<?xml version="1.0" encoding="utf-8"?>
<!-- Generator: Adobe Illustrator 16.0.0, SVG Export Plug-In . SVG Version: 6.00 Build 0)  -->
<!DOCTYPE svg PUBLIC "-//W3C//DTD SVG 1.1//EN" "http://www.w3.org/Graphics/SVG/1.1/DTD/svg11.dtd">
<svg version="1.1" id="Layer_1" xmlns="http://www.w3.org/2000/svg" xmlns:xlink="http://www.w3.org/1999/xlink" x="0px" y="0px"
	 width="11.78px" height="20.786px" viewBox="0 0 11.78 20.786" enable-background="new 0 0 11.78 20.786" xml:space="preserve">
<path fill="#2E2D78" d="M3.539,10.392c0.116,0.123,0.214,0.231,0.317,0.334c2.348,2.351,4.698,4.703,7.052,7.049
	c0.334,0.334,0.536,0.711,0.468,1.192c-0.075,0.511-0.363,0.876-0.848,1.047c-0.516,0.183-0.986,0.063-1.376-0.326
	c-0.968-0.962-1.932-1.929-2.896-2.895c-1.777-1.776-3.555-3.553-5.331-5.332c-0.715-0.716-0.714-1.425,0.003-2.143
	c2.722-2.724,5.447-5.445,8.165-8.17c0.399-0.399,0.859-0.567,1.399-0.391C11,0.92,11.299,1.292,11.376,1.819
	c0.07,0.482-0.136,0.858-0.47,1.192c-2.354,2.347-4.703,4.699-7.052,7.05C3.751,10.164,3.653,10.272,3.539,10.392"/>
</svg>
