<?xml version="1.0" encoding="utf-8"?>
<!-- Generator: Adobe Illustrator 16.0.0, SVG Export Plug-In . SVG Version: 6.00 Build 0)  -->
<!DOCTYPE svg PUBLIC "-//W3C//DTD SVG 1.1//EN" "http://www.w3.org/Graphics/SVG/1.1/DTD/svg11.dtd">
<svg version="1.1" id="Layer_1" xmlns="http://www.w3.org/2000/svg" xmlns:xlink="http://www.w3.org/1999/xlink" x="0px" y="0px"
	 width="11.78px" height="20.786px" viewBox="0 0 11.78 20.786" enable-background="new 0 0 11.78 20.786" xml:space="preserve">
<path fill="#2E2D78" d="M8.241,10.392c-0.116,0.123-0.215,0.231-0.318,0.334c-2.348,2.351-4.697,4.703-7.052,7.049
	c-0.334,0.334-0.536,0.711-0.468,1.192c0.075,0.511,0.363,0.876,0.848,1.047c0.516,0.183,0.986,0.063,1.376-0.326
	c0.968-0.962,1.932-1.929,2.896-2.895c1.777-1.776,3.555-3.553,5.331-5.332c0.716-0.716,0.714-1.425-0.003-2.143
	c-2.722-2.724-5.447-5.445-8.165-8.17C2.286,0.75,1.826,0.582,1.286,0.758C0.779,0.92,0.48,1.292,0.403,1.819
	c-0.07,0.482,0.136,0.858,0.47,1.192c2.354,2.347,4.703,4.699,7.052,7.05C8.028,10.164,8.126,10.272,8.241,10.392"/>
</svg>
