<?xml version="1.0" encoding="utf-8"?>
<!-- Generator: Adobe Illustrator 16.0.0, SVG Export Plug-In . SVG Version: 6.00 Build 0)  -->
<!DOCTYPE svg PUBLIC "-//W3C//DTD SVG 1.1//EN" "http://www.w3.org/Graphics/SVG/1.1/DTD/svg11.dtd">
<svg version="1.1" id="Layer_1" xmlns="http://www.w3.org/2000/svg" xmlns:xlink="http://www.w3.org/1999/xlink" x="0px" y="0px"
	 width="7.313px" height="12.906px" viewBox="0 0 7.313 12.906" enable-background="new 0 0 7.313 12.906" xml:space="preserve">
<path fill="#FFFFFF" d="M2.161,6.453c0.074-0.078,0.136-0.146,0.202-0.212C3.857,4.745,5.352,3.248,6.85,1.755
	c0.213-0.212,0.343-0.453,0.298-0.759C7.101,0.67,6.917,0.438,6.61,0.33c-0.329-0.116-0.629-0.04-0.877,0.207
	C5.117,1.15,4.504,1.766,3.89,2.379C2.759,3.51,1.628,4.641,0.498,5.772C0.043,6.229,0.043,6.679,0.5,7.136
	c1.732,1.733,3.466,3.465,5.197,5.2c0.253,0.253,0.545,0.359,0.89,0.249c0.322-0.105,0.512-0.34,0.562-0.676
	c0.045-0.307-0.086-0.546-0.299-0.758C5.351,9.658,3.855,8.161,2.362,6.665C2.295,6.599,2.234,6.531,2.161,6.453"/>
</svg>
