<?xml version="1.0" encoding="utf-8"?>
<!-- Generator: Adobe Illustrator 16.0.0, SVG Export Plug-In . SVG Version: 6.00 Build 0)  -->
<!DOCTYPE svg PUBLIC "-//W3C//DTD SVG 1.1//EN" "http://www.w3.org/Graphics/SVG/1.1/DTD/svg11.dtd">
<svg version="1.1" id="Layer_1" xmlns="http://www.w3.org/2000/svg" xmlns:xlink="http://www.w3.org/1999/xlink" x="0px" y="0px"
	 width="7.313px" height="12.906px" viewBox="0 0 7.313 12.906" enable-background="new 0 0 7.313 12.906" xml:space="preserve">
<path fill="#FFFFFF" d="M5.153,6.453C5.079,6.375,5.017,6.307,4.951,6.241C3.456,4.745,1.962,3.248,0.463,1.755
	C0.25,1.542,0.121,1.302,0.166,0.996C0.213,0.67,0.396,0.438,0.704,0.33c0.329-0.116,0.629-0.04,0.877,0.207
	C2.196,1.15,2.81,1.766,3.423,2.379C4.555,3.51,5.686,4.641,6.815,5.772c0.455,0.456,0.455,0.906-0.002,1.364
	c-1.732,1.733-3.466,3.465-5.197,5.2c-0.253,0.253-0.545,0.359-0.89,0.249c-0.322-0.105-0.512-0.34-0.562-0.676
	c-0.045-0.307,0.086-0.546,0.299-0.758c1.499-1.494,2.994-2.991,4.487-4.486C5.018,6.599,5.08,6.531,5.153,6.453"/>
</svg>
