<?xml version="1.0" encoding="utf-8"?>
<!-- Generator: Adobe Illustrator 16.0.0, SVG Export Plug-In . SVG Version: 6.00 Build 0)  -->
<!DOCTYPE svg PUBLIC "-//W3C//DTD SVG 1.1//EN" "http://www.w3.org/Graphics/SVG/1.1/DTD/svg11.dtd">
<svg version="1.1" id="Layer_1" xmlns="http://www.w3.org/2000/svg" xmlns:xlink="http://www.w3.org/1999/xlink" x="0px" y="0px"
	 width="50px" height="49.996px" viewBox="4085.235 8166.422 50 49.996" enable-background="new 4085.235 8166.422 50 49.996"
	 xml:space="preserve">
<g>
	<g>
		<path fill="#2E2D78" d="M4115.743,8191.42l18.693-18.695c0.515-0.514,0.799-1.201,0.799-1.934s-0.283-1.42-0.799-1.934
			l-1.638-1.637c-0.515-0.517-1.202-0.799-1.935-0.799c-0.731,0-1.418,0.282-1.934,0.799l-18.694,18.693l-18.695-18.693
			c-0.514-0.517-1.201-0.799-1.934-0.799c-0.732,0-1.418,0.282-1.933,0.799l-1.639,1.637c-1.067,1.066-1.067,2.802,0,3.867
			l18.694,18.695l-18.694,18.694c-0.515,0.516-0.798,1.202-0.798,1.935c0,0.731,0.284,1.418,0.798,1.934l1.639,1.638
			c0.514,0.516,1.201,0.798,1.933,0.798c0.732,0,1.419-0.282,1.934-0.798l18.695-18.694l18.694,18.694
			c0.516,0.516,1.201,0.798,1.934,0.798l0,0c0.732,0,1.419-0.282,1.934-0.798l1.639-1.638c0.514-0.515,0.799-1.202,0.799-1.934
			c0-0.732-0.285-1.419-0.799-1.935L4115.743,8191.42z"/>
	</g>
</g>
</svg>
