<?xml version="1.0" encoding="utf-8"?>
<!-- Generator: Adobe Illustrator 16.0.0, SVG Export Plug-In . SVG Version: 6.00 Build 0)  -->
<!DOCTYPE svg PUBLIC "-//W3C//DTD SVG 1.1//EN" "http://www.w3.org/Graphics/SVG/1.1/DTD/svg11.dtd">
<svg version="1.1" id="Layer_1" xmlns="http://www.w3.org/2000/svg" xmlns:xlink="http://www.w3.org/1999/xlink" x="0px" y="0px"
	 width="250.127px" height="64.992px" viewBox="0 0 250.127 64.992" enable-background="new 0 0 250.127 64.992"
	 xml:space="preserve">
<path fill="#2E2D78" d="M250.127,2.922V0h-80.368c0,0.017,0.002,0.032,0.002,0.048c0,2.347-1.902,4.25-4.248,4.25
	c-2.348,0-4.25-1.903-4.25-4.25c0-0.016,0.002-0.031,0.004-0.048H0v2.923c0.004,0,0.007-0.002,0.011-0.002
	c1.413,0,2.559,1.147,2.559,2.561c0,1.412-1.146,2.559-2.559,2.559C0.007,8.04,0.004,8.038,0,8.038v1.639
	c0.004,0,0.007-0.002,0.011-0.002c1.413,0,2.559,1.146,2.559,2.561c0,1.413-1.146,2.559-2.559,2.559
	c-0.004,0-0.007-0.002-0.011-0.002v1.639c0.004,0,0.007-0.001,0.011-0.001c1.413,0,2.559,1.146,2.559,2.559s-1.146,2.56-2.559,2.56
	c-0.004,0-0.007-0.002-0.011-0.002v1.639c0.004,0,0.007-0.001,0.011-0.001c1.413,0,2.559,1.146,2.559,2.559s-1.146,2.56-2.559,2.56
	c-0.004,0-0.007-0.001-0.011-0.001v1.639c0.004,0,0.007-0.001,0.011-0.001c1.413,0,2.559,1.145,2.559,2.558s-1.146,2.56-2.559,2.56
	c-0.004,0-0.007-0.001-0.011-0.001v1.638c0.004,0,0.007,0,0.011,0c1.413,0,2.559,1.145,2.559,2.558c0,1.414-1.146,2.56-2.559,2.56
	c-0.004,0-0.007-0.001-0.011-0.001v1.638c0.004,0,0.007-0.001,0.011-0.001c1.413,0,2.559,1.146,2.559,2.559
	c0,1.414-1.146,2.561-2.559,2.561c-0.004,0-0.007-0.001-0.011-0.001V50.2c0.004,0,0.007-0.001,0.011-0.001
	c1.413,0,2.559,1.146,2.559,2.559c0,1.414-1.146,2.56-2.559,2.56c-0.004,0-0.007,0-0.011,0v1.637c0.004,0,0.007-0.001,0.011-0.001
	c1.413,0,2.559,1.146,2.559,2.559c0,1.414-1.146,2.56-2.559,2.56c-0.004,0-0.007-0.001-0.011-0.001v2.922h161.263
	c0-2.346,1.902-4.249,4.25-4.249c2.346,0,4.248,1.903,4.248,4.249h80.366v-2.921c-1.411-0.002-2.556-1.146-2.556-2.56
	c0-1.412,1.145-2.557,2.556-2.559v-1.636c-1.411-0.001-2.556-1.146-2.556-2.56c0-1.412,1.145-2.557,2.556-2.559v-1.636
	c-1.411-0.002-2.556-1.146-2.556-2.56c0-1.412,1.145-2.557,2.556-2.559v-1.637c-1.411-0.001-2.556-1.146-2.556-2.559
	s1.145-2.557,2.556-2.558v-1.638c-1.411-0.001-2.556-1.146-2.556-2.559s1.145-2.556,2.556-2.558v-1.638
	c-1.411-0.001-2.556-1.146-2.556-2.559s1.145-2.557,2.556-2.559v-1.637c-1.411-0.001-2.556-1.146-2.556-2.559
	s1.145-2.557,2.556-2.559v-1.637c-1.411-0.001-2.556-1.146-2.556-2.558c0-1.413,1.145-2.558,2.556-2.56V8.039
	c-1.411-0.002-2.556-1.146-2.556-2.558C247.571,4.068,248.716,2.923,250.127,2.922"/>
</svg>
