<?xml version="1.0" encoding="utf-8"?>
<!-- Generator: Adobe Illustrator 16.0.0, SVG Export Plug-In . SVG Version: 6.00 Build 0)  -->
<!DOCTYPE svg PUBLIC "-//W3C//DTD SVG 1.1//EN" "http://www.w3.org/Graphics/SVG/1.1/DTD/svg11.dtd">
<svg version="1.1" id="Layer_1" xmlns="http://www.w3.org/2000/svg" xmlns:xlink="http://www.w3.org/1999/xlink" x="0px" y="0px"
	 width="107.463px" height="31.831px" viewBox="0 0 107.463 31.831" enable-background="new 0 0 107.463 31.831"
	 xml:space="preserve">
<g>
	<path fill="#010101" d="M53.785,0.172c15.778,0,31.555,0,47.333,0.001c2.577,0,4.597,1.344,5.43,3.611
		c0.234,0.637,0.332,1.298,0.332,1.976c-0.002,6.771,0.007,13.542-0.005,20.312c-0.005,3.166-2.358,5.525-5.519,5.58
		c-0.115,0.002-0.23,0.002-0.344,0.002c-31.523,0-63.046-0.004-94.569,0.006c-2.214,0-3.94-0.832-5.107-2.734
		c-0.554-0.904-0.755-1.904-0.754-2.959C0.587,21.31,0.584,16.654,0.584,12c0-2.017-0.001-4.033,0.001-6.05
		c0.002-3.435,2.336-5.776,5.768-5.777C22.164,0.171,37.973,0.172,53.785,0.172"/>
	<path fill="#FFFFFF" d="M10.64,15.857c0.042-1.689,0.48-3.374,1.885-4.653c1.336-1.217,2.933-1.629,4.597-0.915
		c1.299,0.558,2.424,0.512,3.704-0.029c1.947-0.823,4.047-0.236,5.409,1.311c0.195,0.222,0.243,0.331-0.049,0.547
		c-2.762,2.052-2.482,5.867,0.544,7.559c0.182,0.103,0.269,0.168,0.18,0.405c-0.555,1.468-1.26,2.845-2.359,3.985
		c-1.077,1.117-2.047,1.33-3.464,0.711c-1.283-0.563-2.541-0.588-3.794,0.027c-1.241,0.609-2.306,0.377-3.253-0.598
		c-1.637-1.68-2.566-3.729-3.119-5.975C10.738,17.501,10.651,16.752,10.64,15.857"/>
	<path fill="#FFFFFF" d="M54.686,24.179c0,1.166-0.014,2.291,0.007,3.416c0.006,0.336-0.074,0.473-0.43,0.439
		c-0.406-0.037-0.937,0.125-1.192-0.078c-0.273-0.217-0.081-0.768-0.086-1.174c-0.032-2.998,0.054-5.999-0.063-8.996
		c-0.012-0.303,0.056-0.422,0.369-0.386c0.354,0.04,0.798-0.144,1.045,0.078c0.244,0.216,0.043,0.681,0.148,1.028
		c0.174-0.002,0.197-0.161,0.273-0.248c1.287-1.461,3.635-1.323,4.726,0.283c1.014,1.494,0.938,3.871-0.121,5.334
		C58.43,25.171,56.149,25.71,54.686,24.179"/>
	<path fill="#FFFFFF" d="M45.973,24.13c0,1.215-0.014,2.326,0.007,3.434c0.007,0.34-0.04,0.523-0.44,0.471s-0.93,0.166-1.18-0.082
		c-0.249-0.248-0.067-0.775-0.073-1.182c-0.042-3.012,0.082-6.025-0.082-9.038c-0.015-0.26,0.062-0.327,0.321-0.336
		c1.166-0.036,1.165-0.044,1.251,1.104c0.137,0.049,0.154-0.082,0.207-0.147c1.33-1.618,3.839-1.474,4.877,0.339
		c0.958,1.67,0.896,3.393-0.108,5.033C49.732,25.394,47.202,25.591,45.973,24.13"/>
	<path fill="#FFFFFF" d="M33.973,24.964c0.367-1.143,0.716-2.229,1.067-3.318c0.719-2.225,1.446-4.447,2.151-6.677
		c0.109-0.342,0.247-0.519,0.637-0.476c0.534,0.059,1.206-0.208,1.574,0.103c0.342,0.288,0.378,0.944,0.539,1.443
		c0.918,2.832,1.826,5.666,2.758,8.492c0.131,0.396,0.026,0.473-0.345,0.438c-0.437-0.043-0.991,0.172-1.285-0.084
		c-0.285-0.248-0.315-0.797-0.449-1.213c-0.155-0.482-0.317-0.965-0.448-1.453c-0.06-0.221-0.14-0.33-0.392-0.326
		c-0.952,0.014-1.902,0.018-2.854-0.002c-0.269-0.006-0.326,0.133-0.386,0.334c-0.24,0.799-0.5,1.592-0.727,2.395
		c-0.074,0.27-0.192,0.367-0.475,0.352C34.901,24.942,34.464,24.964,33.973,24.964"/>
	<path fill="#FFFFFF" d="M63.813,23.095c0.97,0.516,1.939,0.768,2.983,0.588c0.676-0.117,1.207-0.434,1.382-1.148
		c0.169-0.697-0.114-1.346-0.782-1.76c-0.29-0.178-0.612-0.311-0.931-0.438c-0.625-0.25-1.239-0.516-1.78-0.928
		c-1.535-1.168-1.491-3.364,0.132-4.413c1.43-0.924,2.985-0.865,4.471-0.211c0.491,0.216-0.095,0.78-0.141,1.19
		c-0.034,0.309-0.262,0.107-0.407,0.057c-0.738-0.248-1.481-0.421-2.266-0.239c-0.604,0.14-1.069,0.44-1.183,1.091
		c-0.113,0.645,0.205,1.1,0.72,1.445c0.466,0.313,0.997,0.491,1.505,0.719c0.495,0.224,0.974,0.471,1.388,0.825
		c1.564,1.335,1.306,3.827-0.539,4.743c-1.513,0.75-3.076,0.643-4.622,0.029c-0.261-0.104-0.342-0.256-0.241-0.533
		C63.62,23.794,63.703,23.458,63.813,23.095"/>
	<path fill="#FFFFFF" d="M83.815,21.093c-0.044,2.146-1.234,3.66-3.033,3.977c-2.39,0.422-4.248-1.123-4.372-3.633
		c-0.107-2.141,1.162-3.85,3.086-4.157c2.177-0.347,4.01,1.046,4.267,3.243C83.79,20.749,83.806,20.978,83.815,21.093"/>
	<path fill="#FFFFFF" d="M94.201,21.581c-0.704,0-1.409,0.023-2.112-0.008c-0.393-0.018-0.421,0.139-0.369,0.457
		c0.16,0.984,0.868,1.666,1.896,1.758c0.723,0.066,1.443,0.027,2.136-0.209c0.255-0.086,0.358-0.082,0.416,0.229
		c0.17,0.9,0.189,0.904-0.696,1.111c-0.836,0.195-1.685,0.271-2.535,0.121c-1.711-0.303-2.761-1.607-2.859-3.543
		c-0.039-0.779,0.1-1.531,0.428-2.244c0.76-1.66,2.547-2.43,4.27-1.809c1.332,0.48,1.814,1.578,1.952,2.869
		c0.134,1.266,0.111,1.268-1.147,1.268H94.201z"/>
	<path fill="#FFFFFF" d="M73.612,15.519c0,0.529,0.019,1.004-0.006,1.475c-0.016,0.312,0.061,0.443,0.399,0.418
		c0.391-0.03,0.787,0,1.179-0.011c0.205-0.006,0.278,0.054,0.293,0.275c0.068,0.991,0.076,0.991-0.898,0.991
		c-0.967,0-0.967,0-0.967,0.969c0,0.918-0.01,1.836,0.006,2.75c0.02,1.102,0.352,1.406,1.438,1.314
		c0.257-0.02,0.313,0.057,0.307,0.283c-0.027,1.025,0.332,0.996-0.97,1.109c-1.475,0.125-2.229-0.48-2.383-1.953
		c-0.136-1.322-0.049-2.653-0.045-3.979c0.002-0.412-0.107-0.545-0.516-0.505c-0.188,0.017-0.508,0.138-0.563-0.105
		c-0.078-0.34-0.071-0.728,0.011-1.068c0.043-0.175,0.36-0.089,0.544-0.069c0.388,0.039,0.544-0.057,0.524-0.493
		c-0.037-0.88-0.008-0.881,0.817-1.14C73.047,15.698,73.307,15.615,73.612,15.519"/>
	<path fill="#FFFFFF" d="M86.815,18.718c0.092-0.157,0.175-0.309,0.264-0.455c0.283-0.469,0.682-0.791,1.21-0.938
		c0.805-0.228,0.961-0.106,0.961,0.717v0.049c0,0.704,0,0.704-0.669,0.75c-0.963,0.065-1.589,0.822-1.609,1.996
		c-0.02,1.178-0.036,2.355,0.01,3.533c0.021,0.518-0.142,0.621-0.622,0.604c-1.097-0.035-1.094-0.01-1.098-1.094
		c-0.009-2.014-0.007-4.027-0.039-6.04c-0.008-0.39,0.118-0.451,0.465-0.443c0.985,0.019,0.983,0.003,1.04,0.987
		C86.733,18.485,86.679,18.61,86.815,18.718"/>
	<path fill="#FFFFFF" d="M22.835,5.638c-0.082,2.004-1.623,3.762-3.511,4.035c-0.399,0.057-0.553-0.012-0.536-0.456
		c0.069-1.917,1.777-3.851,3.672-4.119C22.847,5.042,22.859,5.062,22.835,5.638"/>
	<path fill="#FFFFFF" d="M35,8.155c0-0.704,0.019-1.408-0.008-2.113c-0.011-0.303,0.099-0.39,0.379-0.419
		c0.523-0.05,1.048-0.082,1.569-0.03c1.731,0.173,2.597,1.466,2.182,3.233c-0.274,1.166-1.112,1.83-2.458,1.949
		C35,10.924,35,10.924,35,9.284V8.155z"/>
	<path fill="#FFFFFF" d="M69.369,10.17c-0.545,0.648-1.11,0.766-1.715,0.593c-0.63-0.183-0.914-0.697-1.049-1.306
		c-0.107-0.476-0.07-0.941,0.103-1.395c0.433-1.134,1.475-1.443,2.543-0.69c0-0.572,0.021-1.101-0.008-1.628
		c-0.02-0.345,0.096-0.438,0.436-0.438c0.336,0.001,0.401,0.114,0.398,0.426c-0.011,1.521,0.007,3.042,0,4.563
		c-0.001,0.166,0.176,0.455-0.214,0.472C69.547,10.782,69.25,10.795,69.369,10.17"/>
	<path fill="#FFFFFF" d="M46.101,9.846c0.362-0.811,0.514-1.596,0.756-2.351c0.075-0.238,0.076-0.487,0.47-0.491
		c0.399-0.003,0.405,0.246,0.469,0.488c0.209,0.768,0.414,1.54,0.699,2.305c0.204-0.801,0.408-1.604,0.614-2.404
		c0.085-0.333,0.418-0.489,0.74-0.367c0.148,0.057,0.097,0.139,0.069,0.23c-0.334,1.094-0.677,2.187-0.998,3.285
		c-0.094,0.315-0.325,0.202-0.517,0.225c-0.215,0.024-0.356-0.017-0.418-0.281c-0.161-0.683-0.365-1.358-0.551-2.036
		c-0.03-0.108-0.027-0.232-0.163-0.294c-0.215,0.755-0.445,1.505-0.634,2.264c-0.078,0.315-0.25,0.354-0.524,0.355
		c-0.271,0.002-0.401-0.065-0.478-0.35c-0.27-0.994-0.581-1.976-0.858-2.968c-0.037-0.13-0.26-0.376,0.044-0.413
		c0.239-0.028,0.613-0.215,0.715,0.254C45.712,8.112,45.896,8.926,46.101,9.846"/>
	<path fill="#FDFEFF" d="M89.128,7.51c0.494-0.557,1.022-0.705,1.607-0.462c0.615,0.258,0.759,0.825,0.782,1.417
		c0.025,0.669-0.009,1.341,0.014,2.011c0.013,0.361-0.216,0.287-0.416,0.289c-0.207,0.001-0.432,0.062-0.419-0.296
		c0.021-0.588,0.01-1.176,0.004-1.766c-0.006-0.721-0.24-1.045-0.748-1.051c-0.536-0.007-0.818,0.343-0.823,1.04
		c-0.005,0.59-0.021,1.181,0.005,1.767c0.016,0.399-0.249,0.292-0.459,0.308c-0.228,0.016-0.397,0.017-0.394-0.317
		c0.017-1.603,0.02-3.208-0.001-4.811c-0.006-0.388,0.221-0.307,0.44-0.324c0.263-0.018,0.432,0.01,0.415,0.355
		C89.106,6.248,89.128,6.829,89.128,7.51"/>
	<path fill="#FFFFFF" d="M61.407,8.891c-0.007,1.125-0.777,1.948-1.828,1.952c-1.059,0.005-1.81-0.816-1.794-1.962
		c0.016-1.13,0.785-1.932,1.849-1.92C60.676,6.973,61.414,7.775,61.407,8.891"/>
	<path fill="#FFFFFF" d="M77.154,8.875c-0.001,1.149-0.786,1.981-1.858,1.966c-1.045-0.014-1.77-0.813-1.764-1.943
		c0.007-1.13,0.772-1.941,1.831-1.938C76.41,6.964,77.155,7.762,77.154,8.875"/>
	<path fill="#FDFEFF" d="M79.088,7.575c0.333-0.345,0.589-0.543,0.923-0.604c0.83-0.158,1.473,0.304,1.553,1.215
		c0.069,0.78,0.032,1.57,0.03,2.355c-0.001,0.381-0.305,0.187-0.477,0.22c-0.19,0.036-0.348,0.011-0.341-0.267
		c0.017-0.653,0.017-1.308,0.001-1.962c-0.013-0.542-0.252-0.836-0.672-0.877c-0.502-0.05-0.872,0.27-0.891,0.813
		c-0.021,0.654-0.027,1.311-0.001,1.965c0.018,0.372-0.197,0.33-0.432,0.335c-0.25,0.006-0.432,0.01-0.423-0.346
		c0.021-0.966-0.011-1.931,0.002-2.898c0.002-0.177-0.198-0.491,0.226-0.505C78.899,7.011,79.21,6.984,79.088,7.575"/>
	<path fill="#FFFFFF" d="M43.802,8.864c0.002,1.16-0.767,1.985-1.843,1.978c-1.04-0.007-1.775-0.809-1.775-1.932
		c0-1.126,0.77-1.947,1.824-1.948C43.057,6.96,43.8,7.748,43.802,8.864"/>
	<path fill="#FFFFFF" d="M51.799,7.553c0.515-0.569,1.051-0.747,1.668-0.514c0.607,0.231,0.772,0.78,0.805,1.351
		c0.04,0.701,0.007,1.407,0.021,2.11c0.008,0.378-0.264,0.25-0.447,0.261c-0.179,0.008-0.406,0.074-0.398-0.261
		c0.017-0.621,0.008-1.243,0.002-1.865c-0.006-0.667-0.258-0.988-0.76-0.983c-0.52,0.004-0.805,0.354-0.811,1.013
		c-0.006,0.541-0.016,1.082,0.003,1.621c0.013,0.321-0.008,0.503-0.427,0.499c-0.393-0.006-0.399-0.179-0.398-0.474
		c0.004-0.982-0.01-1.965-0.028-2.947c-0.004-0.198-0.026-0.383,0.254-0.335c0.186,0.032,0.501-0.16,0.494,0.256
		C51.776,7.34,51.786,7.399,51.799,7.553"/>
	<path fill="#FDFEFF" d="M93.515,9.114c0.082,0.67,0.34,0.941,0.938,1.03c0.314,0.046,0.622-0.002,0.928-0.05
		c0.189-0.028,0.34-0.094,0.381,0.19c0.032,0.23,0.018,0.382-0.254,0.409c-0.261,0.025-0.519,0.08-0.777,0.091
		c-0.966,0.044-1.581-0.299-1.871-1.031c-0.326-0.824-0.113-1.83,0.507-2.394c0.503-0.46,1.297-0.554,1.868-0.221
		c0.531,0.308,0.886,1.14,0.778,1.741c-0.048,0.267-0.213,0.235-0.392,0.235C94.92,9.113,94.219,9.114,93.515,9.114"/>
	<path fill="#FFFFFF" d="M64.62,10.324c-0.387,0.393-0.756,0.534-1.188,0.504c-0.485-0.034-0.847-0.254-1.017-0.722
		c-0.168-0.458-0.01-0.974,0.366-1.288c0.369-0.308,0.82-0.378,1.275-0.461c0.15-0.028,0.449,0.165,0.443-0.191
		c-0.004-0.279-0.132-0.515-0.43-0.59c-0.324-0.083-0.648-0.038-0.965,0.073c-0.151,0.052-0.319,0.219-0.405-0.095
		c-0.063-0.232-0.021-0.352,0.221-0.439c0.461-0.166,0.928-0.215,1.401-0.132c0.586,0.104,0.939,0.52,1.001,1.177
		c0.074,0.798-0.042,1.605,0.079,2.403c0.024,0.166-0.063,0.206-0.194,0.199C64.956,10.749,64.61,10.9,64.62,10.324"/>
	<path fill="#FFFFFF" d="M85.423,8.789c0-0.246-0.011-0.492,0.003-0.737c0.015-0.261-0.003-0.456-0.352-0.407
		c-0.229,0.032-0.202-0.154-0.206-0.3c-0.003-0.169-0.019-0.352,0.238-0.32c0.272,0.034,0.329-0.099,0.322-0.343
		c-0.007-0.271,0.447-0.59,0.708-0.519c0.192,0.052,0.11,0.222,0.098,0.323c-0.054,0.418,0.07,0.621,0.527,0.541
		c0.216-0.038,0.41-0.037,0.409,0.305c-0.001,0.33-0.177,0.352-0.402,0.313c-0.438-0.073-0.577,0.092-0.535,0.531
		c0.044,0.455,0.008,0.917,0.024,1.375c0.012,0.354,0.146,0.616,0.565,0.563c0.234-0.029,0.277,0.088,0.277,0.283
		c-0.001,0.183,0.032,0.34-0.229,0.402c-0.776,0.191-1.352-0.181-1.428-0.979c-0.032-0.342-0.006-0.688-0.006-1.032H85.423z"/>
	<path fill="#F9F9FA" d="M56.576,8.07c0,0.784-0.02,1.57,0.008,2.353c0.013,0.352-0.162,0.358-0.416,0.346
		c-0.229-0.009-0.445,0.05-0.441-0.327c0.02-1.602,0.02-3.204,0-4.805c-0.004-0.384,0.226-0.308,0.445-0.322
		c0.262-0.02,0.424,0.008,0.412,0.352C56.557,6.467,56.576,7.268,56.576,8.07"/>
	<path fill="#080808" d="M87.097,24.831v-3.533V20.86c0.021,0,0.041,0.001,0.063,0.001v3.991
		C87.138,24.847,87.117,24.839,87.097,24.831"/>
	<path fill="#010101" d="M54.672,21.251c0.008-0.541-0.002-1.078,0.226-1.594c0.542-1.229,2.136-1.455,2.987-0.416
		c0.81,0.99,0.808,2.914-0.004,3.91c-0.518,0.633-1.197,0.787-1.949,0.592c-0.732-0.191-1.086-0.756-1.207-1.465
		C54.668,21.94,54.688,21.593,54.672,21.251"/>
	<path fill="#010101" d="M45.975,21.224c-0.021-0.49-0.003-1.012,0.197-1.51c0.508-1.269,2.116-1.531,3.012-0.494
		c0.856,0.99,0.846,2.99-0.021,3.977c-0.508,0.576-1.156,0.721-1.876,0.563c-0.678-0.152-1.041-0.639-1.224-1.279
		C45.949,22.079,45.97,21.667,45.975,21.224"/>
	<path fill="#020202" d="M38.336,16.008c0.324,1.036,0.616,1.967,0.906,2.901c0.145,0.467,0.272,0.943,0.431,1.405
		c0.073,0.216,0.044,0.293-0.196,0.291c-0.752-0.008-1.508-0.007-2.261-0.001c-0.219,0.003-0.241-0.084-0.185-0.268
		C37.458,18.931,37.881,17.522,38.336,16.008"/>
	<path fill="#010101" d="M78.108,21.231c0.002-0.682,0.117-1.335,0.522-1.906c0.793-1.118,2.24-1.086,2.982,0.063
		c0.64,0.988,0.617,2.727-0.047,3.688c-0.79,1.143-2.278,1.115-3.015-0.061C78.21,22.472,78.107,21.862,78.108,21.231"/>
	<path fill="#020202" d="M93.499,18.386c0.95-0.002,1.745,0.877,1.656,1.814c-0.017,0.188-0.109,0.203-0.254,0.203
		c-0.979-0.002-1.959-0.003-2.94,0c-0.171,0.001-0.265-0.021-0.252-0.24C91.761,19.256,92.625,18.388,93.499,18.386"/>
	<path fill="#010101" d="M35.788,8.139c0-0.522,0.01-1.046-0.004-1.566c-0.008-0.227,0.051-0.317,0.293-0.323
		c0.628-0.018,1.275-0.046,1.751,0.434c0.655,0.661,0.59,1.489,0.358,2.298c-0.202,0.707-0.751,1.037-1.458,1.118
		c-0.941,0.108-0.941,0.104-0.941-0.833V8.139z"/>
	<path fill="#F7F8F8" d="M35.131,10.576c0-1.566,0-3.051,0-4.535c0-0.268,0.163-0.279,0.493-0.221
		c-0.446,0.054-0.395,0.303-0.395,0.528c0,1.227,0.002,2.454-0.003,3.68C35.225,10.184,35.275,10.348,35.131,10.576"/>
	<path fill="#020202" d="M69.251,8.748c0.001,0.972-0.317,1.427-0.909,1.415c-0.604-0.014-1.022-0.614-0.961-1.403
		c0.016-0.192,0.061-0.389,0.138-0.565c0.193-0.44,0.55-0.634,1.029-0.561c0.441,0.065,0.61,0.392,0.68,0.788
		C69.253,8.564,69.249,8.714,69.251,8.748"/>
	<path fill="#020202" d="M60.535,8.857c0.005,0.817-0.412,1.393-0.995,1.376c-0.568-0.015-0.935-0.574-0.915-1.389
		c0.019-0.76,0.435-1.3,0.991-1.283C60.155,7.581,60.531,8.108,60.535,8.857"/>
	<path fill="#020202" d="M76.283,8.882c-0.002,0.791-0.407,1.352-0.974,1.351c-0.572,0-0.95-0.55-0.938-1.366
		c0.012-0.762,0.415-1.306,0.969-1.306S76.286,8.109,76.283,8.882"/>
	<path fill="#020202" d="M42.934,8.87c0,0.825-0.415,1.388-1.004,1.364c-0.561-0.025-0.927-0.594-0.904-1.399
		c0.02-0.73,0.421-1.263,0.958-1.272C42.537,7.552,42.934,8.098,42.934,8.87"/>
	<path fill="#080808" d="M94.346,8.52c-0.098,0-0.197,0.013-0.293-0.003c-0.18-0.031-0.447,0.113-0.518-0.096
		c-0.064-0.183,0.087-0.401,0.216-0.573c0.212-0.276,0.503-0.352,0.829-0.298c0.323,0.053,0.503,0.266,0.602,0.572
		c0.093,0.288,0.045,0.438-0.299,0.401C94.705,8.502,94.525,8.52,94.346,8.52"/>
	<path fill="#040404" d="M64.557,9.294c0.021,0.497-0.188,0.796-0.626,0.905c-0.268,0.067-0.532,0.03-0.675-0.253
		c-0.149-0.298-0.094-0.579,0.158-0.794c0.279-0.238,0.628-0.267,0.974-0.245C64.695,8.931,64.482,9.199,64.557,9.294"/>
</g>
</svg>
