<?xml version="1.0" encoding="utf-8"?>
<!-- Generator: Adobe Illustrator 16.0.0, SVG Export Plug-In . SVG Version: 6.00 Build 0)  -->
<!DOCTYPE svg PUBLIC "-//W3C//DTD SVG 1.1//EN" "http://www.w3.org/Graphics/SVG/1.1/DTD/svg11.dtd">
<svg version="1.1" id="Layer_1" xmlns="http://www.w3.org/2000/svg" xmlns:xlink="http://www.w3.org/1999/xlink" x="0px" y="0px"
	 width="49.396px" height="49.397px" viewBox="0 0 49.396 49.397" enable-background="new 0 0 49.396 49.397" xml:space="preserve">
<g>
	<path fill="#FFFFFF" d="M48.793,24.7c0,13.308-10.788,24.094-24.096,24.094c-13.306,0-24.094-10.787-24.094-24.094
		c0-13.308,10.787-24.097,24.094-24.097C38.006,0.604,48.793,11.393,48.793,24.7"/>
	<g>
		<g>
			<path fill="#808080" d="M11.784,21.859c-0.404,0-0.732-0.328-0.732-0.732v-5.771c0-2.283,1.859-4.143,4.145-4.143h5.754
				c0.404,0,0.732,0.328,0.732,0.732c0,0.403-0.328,0.73-0.732,0.73h-5.754c-1.479,0-2.681,1.203-2.681,2.68v5.771
				C12.515,21.531,12.189,21.859,11.784,21.859z"/>
		</g>
		<g>
			<path fill="#808080" d="M37.613,21.844c-0.404,0-0.732-0.328-0.732-0.731v-5.757c0-1.477-1.201-2.68-2.681-2.68h-5.771
				c-0.403,0-0.731-0.327-0.731-0.73c0-0.404,0.328-0.732,0.731-0.732h5.771c2.286,0,4.145,1.859,4.145,4.143v5.757
				C38.344,21.516,38.016,21.844,37.613,21.844z"/>
		</g>
		<g>
			<path fill="#808080" d="M20.968,38.187h-5.77c-2.286,0-4.145-1.858-4.145-4.145v-5.754c0-0.404,0.328-0.731,0.732-0.731
				c0.404,0,0.731,0.327,0.731,0.731v5.754c0,1.479,1.202,2.681,2.681,2.681h5.77c0.404,0,0.732,0.328,0.732,0.732
				C21.699,37.858,21.372,38.187,20.968,38.187z"/>
		</g>
		<g>
			<path fill="#808080" d="M34.199,38.187h-5.753c-0.404,0-0.731-0.328-0.731-0.731c0-0.404,0.327-0.732,0.731-0.732h5.753
				c1.479,0,2.681-1.202,2.681-2.681v-5.771c0-0.403,0.328-0.731,0.732-0.731c0.403,0,0.731,0.328,0.731,0.731v5.771
				C38.344,36.328,36.486,38.187,34.199,38.187z"/>
		</g>
	</g>
</g>
</svg>
