<?xml version="1.0" encoding="utf-8"?>
<!-- Generator: Adobe Illustrator 16.0.0, SVG Export Plug-In . SVG Version: 6.00 Build 0)  -->
<!DOCTYPE svg PUBLIC "-//W3C//DTD SVG 1.1//EN" "http://www.w3.org/Graphics/SVG/1.1/DTD/svg11.dtd">
<svg version="1.1" id="Layer_1" xmlns="http://www.w3.org/2000/svg" xmlns:xlink="http://www.w3.org/1999/xlink" x="0px" y="0px"
	 width="375.016px" height="370.367px" viewBox="0 0 375.016 370.367" enable-background="new 0 0 375.016 370.367"
	 xml:space="preserve">
<g>
	<defs>
		<rect id="SVGID_1_" x="0.008" y="-0.124" width="375" height="370.491"/>
	</defs>
	<clipPath id="SVGID_2_">
		<use xlink:href="#SVGID_1_"  overflow="visible"/>
	</clipPath>
	<path clip-path="url(#SVGID_2_)" fill="#DDDDED" d="M280.729,177.441c-17.746-0.976-34.896-1.641-52.042-6.98
		c-31.446-9.795-61.292-27.308-80.679-54.498c-9.944-13.947-12.768-31.782-21.989-46.313c-3.314-5.223-6.971-10.219-10.681-15.164
		c-6.225-8.296-13.06-16.161-20.656-23.231C78.074,15.793,59.818,6.87,37.727,2.416C32.842,1.43,0.049-3.204,0.008,4.482v365.884
		h375v-81.674C373.473,235.808,336.948,180.533,280.729,177.441z"/>
	<path clip-path="url(#SVGID_2_)" fill="#FF8358" d="M288.591,179.701c-2.595-0.38-5.23-1.687-7.917-1.834
		c-17.746-0.976-34.841-2.066-51.987-7.406c-13.059-4.067-25.838-9.471-37.71-16.341c-2.509,15.666,0.051,31.75,0.494,48.99
		c0.678,19.531,3.841,38.812,14.718,53.146c7.036,9.451,16.687,15.531,27.144,19.028c7.262,2.427,14.943,3.622,22.463,3.843
		c10.07,0.252,20.495-1.291,29.5-6.867c16.912-10.648,24.787-33.614,29.08-55.319c0.702-3.746,1.317-7.52,1.839-11.306
		C307.843,195.643,298.46,188.113,288.591,179.701z"/>
	<path clip-path="url(#SVGID_2_)" fill="#FF8358" d="M161.054,501.28c-4.021,0.127-8.536-0.559-13.51-2.082
		c-38.053-11.668-54.965-52.79-67.228-87.308c-8.343-23.481-22.677-67.535-20.686-98.553c0.392-6.206,1.411-11.86,3.285-16.761
		c2.775-7.306,10.777-13.186,18.141-11.346c0.458,0.103,1.313,0.857,1.336,0.406c-0.035-3.347,1.483-1.643,3.861,2.963
		c6.177,11.757,18.005,42.307,22.936,50.973c12.338,21.784,29.077,50.841,43.609,71.223c0.222,0.315,0.443,0.632,0.664,0.948
		c1.1,1.502,2.212,2.97,3.338,4.405c14.13,18.27,30.221,33.283,26.394,61.938C181.064,492.89,173.365,500.89,161.054,501.28"/>
	<path clip-path="url(#SVGID_2_)" fill="#FF8358" d="M55.473,297.032C46.721,284.158,39,265.522,45.28,250.473
		c4.104-9.838,15.35-15.079,21.713-23.546c3.282-4.366,8.065-7.198,13.467-7.97c0.982-0.142,1.961-0.209,2.935-0.209
		c4.39,0,8.639,1.411,12.209,4.091c19.788,0-7.846,64.618-9.844,70.745c-2.206,6.766-5.667,14.653-12.702,15.724
		c-6.459,0.982-11.964-4.509-15.824-9.781C56.645,298.723,56.057,297.89,55.473,297.032"/>
	<path clip-path="url(#SVGID_2_)" fill="#3772CE" d="M129.285,275.331l-36.914,23.89c-3.598,1.981-10.901-1.47-12.022-5.68
		L52.683,189.537c-1.119-4.209,0.889-9.227,4.486-11.208l40.395-22.246c3.597-1.98,11.794-0.65,12.914,3.561l23.292,104.479
		C134.89,268.332,132.882,273.349,129.285,275.331"/>
	<path clip-path="url(#SVGID_2_)" fill="#1F3598" d="M134.232,276.375l-40.395,22.246c-3.597,1.98-7.42,0.175-8.541-4.035
		L57.63,190.583c-1.119-4.209,0.889-9.228,4.486-11.208l40.395-22.246c3.597-1.98,7.42-0.174,8.54,4.035l27.666,104.004
		C139.836,269.376,137.83,274.395,134.232,276.375"/>
	<path clip-path="url(#SVGID_2_)" fill="#F4F8F9" d="M123.223,257.883l-29.771,16.395c-2.575,1.417-5.312,0.125-6.114-2.889
		l-21.119-79.391c-0.801-3.014,0.637-6.606,3.212-8.024l29.771-16.395c2.575-1.418,5.312-0.125,6.114,2.889l21.118,79.391
		C127.236,252.873,125.798,256.465,123.223,257.883"/>
	<path clip-path="url(#SVGID_2_)" fill="#F4F8F9" d="M116.551,272.417c0.681,2.557-0.539,5.606-2.726,6.81
		c-2.184,1.204-4.507,0.105-5.188-2.451c-0.681-2.559,0.54-5.607,2.726-6.811C113.548,268.76,115.871,269.858,116.551,272.417"/>
	<path clip-path="url(#SVGID_2_)" fill="#2E2D78" d="M112.688,227.229l-26.106,13.785c-1.909,1.008-3.9,0.043-4.447-2.153
		l-0.898-3.606c-0.548-2.197,0.555-4.795,2.464-5.803l26.106-13.786c1.908-1.007,3.9-0.042,4.446,2.155l0.899,3.605
		C115.7,223.624,114.596,226.221,112.688,227.229"/>
	<path clip-path="url(#SVGID_2_)" fill="#2E2D78" d="M116.682,241.699l-24.927,14.12c-1.844,0.99-3.863-0.011-4.508-2.236
		l-1.377-4.232c-0.645-2.225,0.329-4.831,2.174-5.821l25.246-13.54c1.846-0.99,3.864,0.012,4.508,2.236l1.058,3.652
		C119.5,238.103,118.526,240.709,116.682,241.699"/>
	<path clip-path="url(#SVGID_2_)" fill="#FF8358" d="M101.08,232.162c-3.309-3.557-8.875-3.757-12.432-0.446l-31.25,29.083
		c3.307,5.115,5.822,10.902,7.623,16.938l35.613-33.144C104.19,241.284,104.39,235.718,101.08,232.162"/>
	<path clip-path="url(#SVGID_2_)" fill="#FF8358" d="M497.764,498.976l-16.109,8.211c-15.891,8.16-35.361,3.438-45.828-11.039
		l-58.842-81.576l-10.845-15.047c-11.771-18.711-40.575-62.671-12.094-80.193c8.93-5.494,20.42-3.074,30.529-0.291
		c28.393,7.817,34.361,30.067,50.271,52.521l69.174,97.616C511.27,479.401,508.293,493.581,497.764,498.976"/>
	<path clip-path="url(#SVGID_2_)" fill="#D7E9F9" d="M432.184,386.913c-5.16,13.652-27.178,32.368-39.934,38.875
		c-19.419,9.936-36.086-13.3-51.438-28.14c-16.505-15.96-31.023-36.471-30.959-59.418c0-9.102,2.532-18.46,8.557-25.286
		c2.051-2.308,4.455-4.262,7.083-5.897c3.749-0.416,7.499-0.737,11.249-1.025c6.826-0.224,13.589,0,20.287,0.706
		c11.473,1.153,22.721,3.652,33.65,7.275c1.346,0.93,2.66,1.891,3.975,2.884c6.633,5.063,12.754,10.865,18.459,16.954
		C426.734,348.293,439.234,368.357,432.184,386.913"/>
	<path clip-path="url(#SVGID_2_)" fill="#73B0DD" d="M285.862,312.026c0.072,0.107,0.143,0.214,0.179,0.321
		c-1.82,0.499-3.64,0.893-5.531,1.213c-0.392,0.071-0.784,0.144-1.177,0.179c-0.215-0.393-0.394-0.82-0.607-1.249L285.862,312.026z"
		/>
	<path clip-path="url(#SVGID_2_)" fill="#D7E9F9" d="M375.363,505.476c-0.193,5.545-0.096,10.961,0.354,16.376
		c-0.129,0-0.707,1.797-1.347,3.846c0.033,2.148-0.318,4.328-1.186,6.443c-2.531,6.473-9.037,12.66-19.678,17.658
		c-20.318,9.582-49.932,12.244-75.442,7.885c-9.614-1.635-18.588-4.295-26.313-7.885c-9.486-4.455-15.8-9.807-18.876-15.512v-0.031
		c0,0-0.032,0-0.032-0.033h-0.865c-0.064-0.641-0.128-1.41-0.192-2.275c-1.282-3.301-1.538-6.697-0.77-10.063
		c-0.032-0.225-0.032-0.418-0.032-0.641c-0.063-0.93-0.128-1.89-0.192-2.853c-0.256-3.27-0.513-6.604-0.704-9.68
		c-0.064-0.641-0.097-1.281-0.129-1.924c-0.16-2.691-0.32-5.061-0.448-6.855c-0.032-0.547-0.064-1.059-0.096-1.477
		c0-0.225-0.032-0.416-0.032-0.609c-0.449-7.658-1.091-15.383-2.885-22.656c-0.673-2.725-1.538-5.385-2.628-7.949
		c0,0-0.032,0,0-0.033c-1.795-4.261-4.198-8.3-7.468-11.92c-2.5-4.393-5.224-8.591-7.948-12.726c-0.031-0.031,0-0.031,0-0.031
		c-3.012-4.647-5.993-9.294-8.557-14.165c-0.577-1.058-1.122-2.18-1.635-3.269c-0.513-1.122-0.993-2.244-1.474-3.398
		c-3.141-7.788-4.872-16.44-3.878-26.952c0.096-0.962,0.192-1.955,0.32-2.916c0.353-2.917,0.833-5.706,1.442-8.397
		c2.019-9.902,5.352-18.62,9.935-26.345c9.968-16.729,25.735-28.522,46.695-37.016c3.205-1.314,6.57-2.532,10.031-3.654
		c0.449-0.159,0.93-0.288,1.378-0.449c7.884-2.563,15.736-4.71,22.915-6.505c13.332-3.364,31.664-5.48,49.516-3.975
		c0.352,0.033,0.704,0.064,1.058,0.097c7.307,0.642,14.55,1.891,21.248,3.942c9.904,2.885,18.651,7.468,25.126,14.101
		c1.41,1.346,2.725,2.885,3.91,4.455c21.088,29.102,10.094,69.001,2.947,98.229C382.766,453.716,376.004,480.028,375.363,505.476"/>
	<path clip-path="url(#SVGID_2_)" fill="#FFFFFF" d="M343.187,318.664c0,2.275-4.973,9.536-6.126,11.587
		c-5.063,8.942-23.762,14.4-42.189,14.4c-22.627,0-32.479-13.776-32.479-25.987c0-0.93,0.097-1.827,0.32-2.693
		c7.884-2.563,15.736-4.71,22.915-6.505c13.332-3.364,31.663-5.48,49.516-3.975C340.238,309.113,343.187,313.631,343.187,318.664"/>
	<path clip-path="url(#SVGID_2_)" fill="#FF8358" d="M186.026,560.355c-6.978,16.451-24.916,25.35-42.236,20.953l-17.541-4.455
		c-11.437-2.904-17.478-16.078-12.682-27.656l69.107-166.833c6.586-15.529,29.129-8.936,43.782-2.673
		c15.226,6.509,22.144,25.199,6.082,70.996L186.026,560.355z"/>
	<path clip-path="url(#SVGID_2_)" fill="#D7E9F9" d="M222.787,338.977c-14.278,0.366-28.458,11.748-38.672,24.212
		c-16.013,19.538-20.695,37.219-29.211,60.888c2.711,4.517,6.838,8.14,12.746,10.358c11.368,4.271,22.737,8.54,34.105,12.812
		c7.064,2.651,17.416,16.906,23.948,14.856c5.788-1.821,9.416-8.153,12.236-14.143c5.1-10.828,9.351-22.166,12.688-33.836
		c3.789-13.25,6.412-27.343,4.346-41.069c-2.065-13.728-9.607-27.053-21.146-31.975
		C230.186,339.525,226.482,338.882,222.787,338.977"/>
	<path clip-path="url(#SVGID_2_)" fill="#715154" d="M301.731,218.206c0.131,0,0.261,0.144,0.392,0.287
		c0.131-0.575,0.131-1.294,0.131-1.87C302.254,217.199,302.123,217.774,301.731,218.206"/>
	<path clip-path="url(#SVGID_2_)" fill="#715154" d="M265.883,202.459c0.146,0,0.289,0.159,0.436,0.319
		c0.146-0.639,0.146-1.438,0.146-2.077C266.464,201.341,266.318,201.981,265.883,202.459"/>
	<path clip-path="url(#SVGID_2_)" fill="#D7E9F9" d="M230.072,197.075c0.121,0,0.24,0.143,0.362,0.286
		c0.121-0.573,0.121-1.291,0.121-1.865C230.556,196.07,230.435,196.644,230.072,197.075"/>
	<path clip-path="url(#SVGID_2_)" fill="#FF8358" d="M274.656,323.772c16.113,0.235,32.094,2.332,48.104,3.671
		c2.117-3.206,3.356-7.041,3.356-11.17V221.81h-53.709v94.463c0,2.668,0.528,5.208,1.463,7.542
		C274.135,323.81,274.39,323.768,274.656,323.772"/>
	<path clip-path="url(#SVGID_2_)" fill="#FF8358" d="M318.172,309.316c-10.443-6.03-27.377-6.03-37.82,0
		c-10.444,6.03-10.444,15.807,0,21.837c10.443,6.029,27.377,6.029,37.82,0C328.616,325.123,328.616,315.346,318.172,309.316"/>
	<path clip-path="url(#SVGID_2_)" fill="#715154" d="M265.185,222.263c0.138,0,0.274,0.15,0.411,0.301
		c0.138-0.603,0.138-1.356,0.138-1.96C265.733,221.208,265.596,221.81,265.185,222.263"/>
	<path clip-path="url(#SVGID_2_)" fill="#D7E9F9" d="M231.392,217.181c0.114,0,0.228,0.134,0.342,0.271
		c0.114-0.541,0.114-1.219,0.114-1.761C231.848,216.233,231.733,216.775,231.392,217.181"/>
	<path clip-path="url(#SVGID_2_)" fill="#FF8358" d="M236.476,199.672c1.36,0.826,2.896,0.813,4.386,0.389
		c0.148-0.405,0.069-0.853,0.289-1.239L236.476,199.672z"/>
	<path clip-path="url(#SVGID_2_)" fill="#FF5E53" d="M287.418,270.882c0,0,38.4,31.074,38.526,49.137l0.379-12.252l-1.768-24.127
		l-10.99-9.474l-21.726-5.684L287.418,270.882z"/>
	<path clip-path="url(#SVGID_2_)" fill="#FF5E53" d="M295.138,183.929l-30.788,24.063c0,0,2.711,49.365-31.017,67.29
		c7.262,2.427,14.943,3.623,22.463,3.844c10.071,0.252,20.495-1.291,29.5-6.867c16.912-10.648,24.787-33.614,29.08-55.319
		c0.702-3.746,1.317-7.52,1.839-11.306C309.701,197.86,302.612,190.689,295.138,183.929"/>
	<g opacity="0.4" clip-path="url(#SVGID_2_)">
		<g>
			<defs>
				<polygon id="SVGID_3_" points="0.008,370.499 183.789,370.367 183.85,241.83 0.008,241.83 				"/>
			</defs>
			<clipPath id="SVGID_4_">
				<use xlink:href="#SVGID_3_"  overflow="visible"/>
			</clipPath>
			<path clip-path="url(#SVGID_4_)" fill="#FFFFFF" d="M0.008,369.014V241.83c1.302,42.502,32.299,86.926,80.008,89.41
				c15.059,0.784,29.614,1.319,44.165,5.611c22.301,6.578,43.652,17.487,59.669,33.647L0.008,370.367V369.014z"/>
		</g>
	</g>
	<polygon clip-path="url(#SVGID_2_)" fill="#2A267A" points="98.611,181.675 91.513,185.467 90.162,179.134 99.079,174.371 
		99.869,178.072 98.049,179.042 	"/>
	<polygon clip-path="url(#SVGID_2_)" fill="#FFFFFF" points="92.626,180.747 92.433,180.851 92.305,180.25 91.772,180.535 
		91.9,181.134 91.708,181.237 91.409,179.833 91.601,179.731 91.725,180.311 92.257,180.027 92.133,179.447 92.326,179.343 	"/>
	<polygon clip-path="url(#SVGID_2_)" fill="#FFFFFF" points="93.824,180.107 93.125,180.481 92.825,179.077 93.525,178.703 
		93.572,178.924 93.064,179.196 93.143,179.568 93.603,179.323 93.65,179.539 93.189,179.784 93.269,180.157 93.777,179.885 	"/>
	<path clip-path="url(#SVGID_2_)" fill="#FFFFFF" d="M95.074,179.439l-0.182-0.295l-0.479,0.256l-0.031,0.408l-0.203,0.107
		l0.142-1.638l0.222-0.119l0.741,1.168L95.074,179.439z M94.483,178.478l-0.051,0.666l0.346-0.185L94.483,178.478z"/>
	<polygon clip-path="url(#SVGID_2_)" fill="#FFFFFF" points="96.371,178.746 95.66,179.126 95.36,177.722 95.552,177.62 
		95.804,178.798 96.323,178.52 	"/>
	<polygon clip-path="url(#SVGID_2_)" fill="#FFFFFF" points="97.191,176.994 96.822,177.191 97.074,178.371 96.881,178.473 
		96.629,177.293 96.262,177.49 96.214,177.266 97.144,176.77 	"/>
	<polygon clip-path="url(#SVGID_2_)" fill="#FFFFFF" points="98.739,177.481 98.546,177.585 98.417,176.985 97.885,177.269 
		98.013,177.869 97.821,177.971 97.521,176.568 97.714,176.465 97.838,177.045 98.37,176.761 98.246,176.181 98.439,176.078 	"/>
	<path clip-path="url(#SVGID_2_)" fill="#FFFFFF" d="M92.746,183.472c-0.158,0.085-0.308,0.091-0.447,0.017
		c-0.14-0.073-0.234-0.221-0.281-0.441c-0.046-0.219-0.028-0.426,0.056-0.621c0.084-0.194,0.204-0.333,0.359-0.416
		c0.136-0.072,0.257-0.09,0.364-0.051c0.105,0.039,0.186,0.117,0.243,0.233l-0.165,0.172c-0.037-0.08-0.09-0.136-0.157-0.162
		c-0.068-0.027-0.147-0.017-0.238,0.031c-0.101,0.055-0.179,0.146-0.234,0.274c-0.056,0.129-0.065,0.273-0.031,0.435
		c0.033,0.157,0.096,0.261,0.189,0.311c0.092,0.05,0.191,0.047,0.294-0.009c0.088-0.047,0.154-0.115,0.199-0.206
		c0.045-0.09,0.07-0.185,0.072-0.283l0.191-0.022c0,0.146-0.034,0.287-0.104,0.425C92.986,183.294,92.883,183.4,92.746,183.472"/>
	<path clip-path="url(#SVGID_2_)" fill="#FFFFFF" d="M93.62,182.626c-0.08-0.084-0.134-0.2-0.166-0.348s-0.032-0.293-0.001-0.435
		c0.031-0.143,0.083-0.265,0.157-0.368c0.074-0.103,0.162-0.181,0.263-0.235c0.102-0.054,0.202-0.075,0.3-0.065
		c0.098,0.011,0.188,0.058,0.267,0.142c0.079,0.083,0.135,0.198,0.166,0.346c0.032,0.148,0.032,0.294,0.001,0.437
		c-0.031,0.144-0.084,0.267-0.158,0.369c-0.075,0.104-0.162,0.182-0.263,0.235c-0.102,0.055-0.201,0.076-0.3,0.065
		C93.787,182.758,93.699,182.711,93.62,182.626 M93.683,181.741c-0.056,0.129-0.066,0.273-0.032,0.433
		c0.034,0.16,0.097,0.265,0.191,0.313c0.094,0.05,0.193,0.047,0.295-0.009c0.104-0.055,0.184-0.147,0.239-0.276
		c0.057-0.129,0.068-0.274,0.034-0.434c-0.035-0.159-0.098-0.264-0.193-0.313c-0.094-0.05-0.192-0.046-0.296,0.009
		C93.817,181.52,93.739,181.612,93.683,181.741"/>
	<path clip-path="url(#SVGID_2_)" fill="#FFFFFF" d="M95.59,181.92l-0.4,0.213l-0.299-1.403l0.401-0.214
		c0.16-0.086,0.306-0.094,0.437-0.023c0.129,0.069,0.218,0.214,0.265,0.434c0.047,0.218,0.03,0.416-0.047,0.596
		C95.869,181.703,95.75,181.834,95.59,181.92 M95.336,181.813l0.201-0.107c0.105-0.056,0.182-0.143,0.233-0.262
		c0.049-0.118,0.058-0.256,0.024-0.411c-0.033-0.156-0.093-0.26-0.178-0.308s-0.179-0.044-0.284,0.012l-0.202,0.108L95.336,181.813z
		"/>
	<polygon clip-path="url(#SVGID_2_)" fill="#FFFFFF" points="97.275,181.02 96.575,181.394 96.275,179.991 96.976,179.617 
		97.022,179.838 96.515,180.11 96.593,180.482 97.054,180.236 97.101,180.452 96.64,180.698 96.719,181.07 97.228,180.798 	"/>
	<polygon clip-path="url(#SVGID_2_)" fill="#E9564B" points="82.387,183.226 81.866,188.23 79.531,184.752 78.275,185.423 
		81.872,190.694 82.805,190.196 83.643,182.555 	"/>
	<path clip-path="url(#SVGID_2_)" fill="#E9564B" d="M89.044,181.391c-0.335-0.367-0.745-0.578-1.219-0.625
		c-0.467-0.047-0.97,0.073-1.5,0.355l-1.98,1.059l1.378,6.457l1.991-1.063c0.526-0.282,0.973-0.67,1.324-1.153
		c0.358-0.492,0.602-1.053,0.726-1.668c0.123-0.609,0.117-1.237-0.018-1.866C89.612,182.259,89.376,181.756,89.044,181.391
		 M85.794,182.928l0.806-0.431c0.332-0.178,0.637-0.253,0.908-0.224c0.265,0.028,0.481,0.146,0.665,0.357
		c0.185,0.215,0.321,0.518,0.402,0.899c0.081,0.381,0.089,0.746,0.023,1.088c-0.065,0.337-0.194,0.633-0.391,0.904
		c-0.203,0.277-0.472,0.508-0.801,0.683l-0.819,0.438L85.794,182.928z"/>
	<path clip-path="url(#SVGID_2_)" fill="#E9564B" d="M77.447,191.306c-0.193,0.324-0.448,0.568-0.778,0.745
		c-0.288,0.153-0.559,0.207-0.827,0.165c-0.268-0.041-0.495-0.171-0.692-0.396c-0.197-0.225-0.338-0.531-0.419-0.912
		c-0.082-0.384-0.088-0.753-0.016-1.129c0.071-0.371,0.201-0.693,0.397-0.984c0.197-0.293,0.433-0.509,0.72-0.663
		c0.333-0.178,0.63-0.229,0.908-0.155c0.26,0.067,0.465,0.253,0.627,0.564l1.193-0.637l-0.05-0.118
		c-0.191-0.457-0.453-0.803-0.775-1.028c-0.32-0.222-0.675-0.334-1.056-0.329c-0.374,0.004-0.753,0.107-1.126,0.307
		c-0.495,0.265-0.922,0.661-1.272,1.179c-0.348,0.516-0.59,1.101-0.72,1.738c-0.129,0.638-0.129,1.27,0.001,1.88
		c0.13,0.607,0.372,1.109,0.719,1.492c0.348,0.383,0.764,0.616,1.239,0.692c0.476,0.077,0.968-0.019,1.462-0.283
		c0.376-0.2,0.718-0.48,1.018-0.835c0.304-0.36,0.545-0.789,0.713-1.271c0.169-0.489,0.243-1.016,0.219-1.565l-0.006-0.141
		l-1.196,0.639C77.719,190.661,77.628,191.003,77.447,191.306"/>
	<g clip-path="url(#SVGID_2_)">
		<text transform="matrix(0.8638 -0.4403 0.2415 1.061 76.6343 210.9082)"><tspan x="0" y="0" fill="#2A267A" font-family="'CircularStd-Medium'" font-size="4.649">B</tspan><tspan x="2.962" y="0" fill="#2A267A" font-family="'CircularStd-Medium'" font-size="4.649">e </tspan><tspan x="6.662" y="0" fill="#2A267A" font-family="'CircularStd-Medium'" font-size="4.649">R</tspan><tspan x="9.618" y="0" fill="#2A267A" font-family="'CircularStd-Medium'" font-size="4.649">e</tspan><tspan x="12.292" y="0.001" fill="#2A267A" font-family="'CircularStd-Medium'" font-size="4.649">s</tspan><tspan x="14.509" y="0" fill="#2A267A" font-family="'CircularStd-Medium'" font-size="4.649">p</tspan><tspan x="17.443" y="0" fill="#2A267A" font-family="'CircularStd-Medium'" font-size="4.649">o</tspan><tspan x="20.228" y="0.001" fill="#2A267A" font-family="'CircularStd-Medium'" font-size="4.649">n</tspan><tspan x="23.007" y="0" fill="#2A267A" font-family="'CircularStd-Medium'" font-size="4.649">s</tspan><tspan x="25.225" y="0" fill="#2A267A" font-family="'CircularStd-Medium'" font-size="4.649">i</tspan><tspan x="26.527" y="0.001" fill="#2A267A" font-family="'CircularStd-Medium'" font-size="4.649">bl</tspan><tspan x="30.785" y="0" fill="#2A267A" font-family="'CircularStd-Medium'" font-size="4.649">e</tspan><tspan x="33.402" y="0" fill="#2A267A" font-family="'CircularStd-Medium'" font-size="4.649">. </tspan></text>
	</g>
	<g clip-path="url(#SVGID_2_)">
		<text transform="matrix(0.8638 -0.4403 0.2415 1.061 84.1167 214.2246)"><tspan x="0" y="0" fill="#2A267A" font-family="'CircularStd-Medium'" font-size="4.649">S</tspan><tspan x="2.845" y="0" fill="#2A267A" font-family="'CircularStd-Medium'" font-size="4.649">t</tspan><tspan x="4.63" y="0" fill="#2A267A" font-family="'CircularStd-Medium'" font-size="4.649">a</tspan><tspan x="7.122" y="0" fill="#2A267A" font-family="'CircularStd-Medium'" font-size="4.649">y </tspan><tspan x="10.799" y="0" fill="#2A267A" font-family="'CircularStd-Medium'" font-size="4.649">S</tspan><tspan x="13.696" y="0" fill="#2A267A" font-family="'CircularStd-Medium'" font-size="4.649">a</tspan><tspan x="16.257" y="0" fill="#2A267A" font-family="'CircularStd-Medium'" font-size="4.649">f</tspan><tspan x="17.987" y="0" fill="#2A267A" font-family="'CircularStd-Medium'" font-size="4.649">e</tspan><tspan x="20.604" y="0" fill="#2A267A" font-family="'CircularStd-Medium'" font-size="4.649">.</tspan></text>
	</g>
	<path clip-path="url(#SVGID_2_)" fill="#1F3598" d="M163.317,133.563c2.734,23.271,31.474,33.861,53.421,32.762
		C197.058,158.809,178.49,148.053,163.317,133.563z"/>
	<path clip-path="url(#SVGID_2_)" fill="#1F3598" d="M150.514,119.332c-0.193,32.305,36.567,42.972,60.204,44.575
		C187.389,154.079,166.003,139.511,150.514,119.332z"/>
	<path clip-path="url(#SVGID_2_)" fill="#1F3598" d="M328.935,328.811c1.475,12.706,2.035,23.96,0.796,36.64
		c-0.16,1.638-0.305,3.277-0.454,4.916h45.732v-81.674c-1.535-52.885-38.06-108.16-94.279-111.252
		c-17.746-0.976-34.896-1.641-52.042-6.98c-3.43-1.068-6.838-2.234-10.218-3.488c-5.364,7.843,17.567,65.03,22.38,70.409
		c12.946,14.464,30.237,24.944,47.353,33.734c17.396,8.934,31.879,19.311,37.534,39.058
		C327.474,316.241,328.206,322.542,328.935,328.811z"/>
	<path clip-path="url(#SVGID_2_)" fill="#FF8358" d="M266.415,202.232c0.434,8.975-3.564,17.483-8.092,25.023
		c-2.862,4.769-6.056,9.437-10.311,12.778c-4.256,3.342-9.751,5.225-14.862,3.881c-15.947-4.193-14.453-29.518-9.506-41.944
		c3.777-9.482,11.815-17.332,21.305-18.603C255.879,181.907,265.831,190.176,266.415,202.232"/>
	<path opacity="0.4" clip-path="url(#SVGID_2_)" fill="#FFFFFF" d="M280.729,177.441c-17.746-0.976-34.896-1.641-52.042-6.98
		c-31.446-9.795-61.292-27.308-80.679-54.498c-9.944-13.947-12.768-31.782-21.989-46.313c-3.314-5.223-6.971-10.219-10.681-15.164
		c-6.225-8.296-13.06-16.161-20.656-23.231C78.074,15.793,59.818,6.87,37.727,2.416C32.842,1.43,0.049-3.204,0.008,4.482v44.935
		c0.041-7.686,32.834-3.051,37.719-2.066c22.091,4.454,40.347,13.377,56.956,28.839c7.596,7.071,14.431,14.936,20.656,23.231
		c3.71,4.945,7.367,9.941,10.681,15.164c9.221,14.53,12.045,32.365,21.989,46.313c19.387,27.19,49.232,44.703,80.679,54.499
		c17.146,5.339,34.296,6.004,52.042,6.98c56.219,3.091,92.744,58.366,94.279,111.251v-44.936
		C373.473,235.808,336.948,180.533,280.729,177.441z"/>
	<path clip-path="url(#SVGID_2_)" fill="#FFFFFF" d="M0.508,311.919c-0.008-0.271-0.258-0.467-0.5-0.481v7.564
		c1.979,18.484,9.413,36.825,20.94,51.364h1.267C9.058,354.064,1.147,332.78,0.508,311.919z"/>
	<path clip-path="url(#SVGID_2_)" fill="#FFFFFF" d="M33.073,370.291c-19.575-16.994-31.749-43.065-32.565-69.739
		c-0.008-0.271-0.258-0.474-0.5-0.481v7.753c2.562,24.017,14.075,46.923,31.649,62.544h1.475
		C33.112,370.341,33.099,370.312,33.073,370.291z"/>
	<path clip-path="url(#SVGID_2_)" fill="#FFFFFF" d="M348.769,225.833c-17.684-22.513-41.837-35.704-68.012-37.144l-2.977-0.162
		c-16.877-0.913-32.818-1.775-48.944-6.798c-24.451-7.616-58.252-23.221-80.42-54.31c-5.225-7.329-8.541-15.92-11.747-24.229
		c-2.88-7.462-5.858-15.179-10.227-22.063c-3.356-5.289-7.128-10.429-10.704-15.195c-6.724-8.961-13.5-16.582-20.715-23.298
		C78.716,27.456,60.541,18.252,37.825,13.673C33.944,12.89,6.833,8.832,0.774,13.764c-0.323,0.263-0.566,0.555-0.766,0.862v2.104
		c0.275,0,0.499-0.222,0.5-0.498c0.003-0.65,0.297-1.204,0.897-1.693c5.234-4.261,30.292-1.083,36.223,0.114
		c22.526,4.542,40.548,13.666,56.714,28.715c7.171,6.675,13.909,14.252,20.597,23.165c3.563,4.75,7.321,9.871,10.659,15.131
		c4.316,6.801,7.276,14.471,10.138,21.888c3.229,8.366,6.568,17.018,11.866,24.448c22.33,31.315,56.339,47.022,80.938,54.685
		c16.244,5.06,32.246,5.925,49.187,6.841l2.977,0.162c56.797,3.124,92.298,58.771,93.806,110.767c0.008,0.271,0.23,0.485,0.5,0.485
		v-8.283C372.76,268.47,363.417,244.482,348.769,225.833z"/>
	<path clip-path="url(#SVGID_2_)" fill="#FFFFFF" d="M348.769,220.149c-17.684-22.513-41.837-35.704-68.012-37.144l-3.005-0.164
		c-16.867-0.913-32.799-1.775-48.916-6.796c-24.452-7.616-58.253-23.221-80.42-54.31c-5.225-7.328-8.541-15.92-11.747-24.229
		c-2.88-7.462-5.858-15.179-10.227-22.063c-3.36-5.295-7.13-10.433-10.704-15.195c-6.722-8.959-13.498-16.579-20.715-23.297
		C78.718,21.773,60.542,12.569,37.825,7.988C33.944,7.206,6.833,3.146,0.774,8.08C0.451,8.343,0.208,8.635,0.008,8.941v2.104
		c0.275,0,0.499-0.222,0.5-0.498c0.003-0.65,0.297-1.204,0.897-1.693c5.234-4.261,30.292-1.084,36.223,0.114
		c22.528,4.542,40.549,13.667,56.714,28.716c7.173,6.677,13.911,14.254,20.597,23.165c3.561,4.747,7.317,9.866,10.659,15.131
		c4.316,6.801,7.276,14.471,10.138,21.888c3.229,8.366,6.568,17.018,11.866,24.448c22.328,31.315,56.338,47.022,80.938,54.685
		c16.235,5.058,32.228,5.923,49.159,6.84l3.004,0.163c56.797,3.124,92.298,58.772,93.806,110.768c0.008,0.271,0.23,0.485,0.5,0.485
		v-8.283C372.76,262.787,363.417,238.798,348.769,220.149z"/>
</g>
</svg>
