<?xml version="1.0" encoding="utf-8"?>
<!-- Generator: Adobe Illustrator 16.0.0, SVG Export Plug-In . SVG Version: 6.00 Build 0)  -->
<!DOCTYPE svg PUBLIC "-//W3C//DTD SVG 1.1//EN" "http://www.w3.org/Graphics/SVG/1.1/DTD/svg11.dtd">
<svg version="1.1" id="Layer_1" xmlns="http://www.w3.org/2000/svg" xmlns:xlink="http://www.w3.org/1999/xlink" x="0px" y="0px"
	 width="72px" height="72px" viewBox="0 0 72 72" enable-background="new 0 0 72 72" xml:space="preserve">
<g>
	<polygon fill="#FFFFFF" points="44.167,33.205 43.374,36.754 41.6,39.963 37.555,43.413 32.713,43.822 29.61,42.016 26.462,39.812 
		24.649,35.849 24.008,33.055 29.481,34.301 37.636,34.413 	"/>
	<path fill="#2E2D78" d="M46.585,32.987c0.415,0,0.805-0.255,0.957-0.667l0.004-0.009c0.021-0.014,0.172-0.087,0.28-0.14
		c0.59-0.288,1.577-0.769,2.31-2.522c1.119-2.679,0.013-4.128-0.515-4.627c-0.893-0.846-2.258-1.112-3.244-0.635
		c-0.507,0.246-0.719,0.855-0.474,1.362c0.246,0.509,0.857,0.718,1.363,0.473c0.148-0.071,0.618-0.036,0.954,0.282
		c0.471,0.445,0.483,1.283,0.034,2.359c-0.436,1.043-0.865,1.252-1.32,1.475c-0.43,0.209-1.017,0.495-1.305,1.275
		c-0.195,0.529,0.075,1.115,0.603,1.311C46.349,32.968,46.468,32.987,46.585,32.987"/>
	<path fill="#2E2D78" d="M37.72,29.491h2.719c0.563,0,1.019-0.457,1.019-1.021c0-0.563-0.456-1.02-1.019-1.02H37.72
		c-0.563,0-1.021,0.457-1.021,1.02C36.699,29.034,37.157,29.491,37.72,29.491"/>
	<path fill="#2E2D78" d="M28.201,29.491h2.72c0.563,0,1.019-0.457,1.019-1.021c0-0.563-0.456-1.02-1.019-1.02h-2.72
		c-0.563,0-1.02,0.457-1.02,1.02C27.181,29.034,27.638,29.491,28.201,29.491"/>
	<path fill="#2E2D78" d="M24.823,33.35c-0.107-0.416-0.194-0.836-0.265-1.258c-0.172-1.044-0.241-2.105-0.241-3.177
		c0-3.091,1.331-5.98,2.002-7.366c2.609,0.653,5.176,1.518,7.642,2.576c0.257,0.11,0.548,0.11,0.804,0
		c2.449-1.05,4.996-1.911,7.586-2.563c0.257,0.691,0.467,1.369,0.637,2.055c0.342,1.354,0.547,3.231,0.657,4.239
		c0.026,0.23,0.048,0.434,0.079,0.612c0.04,0.842,0.022,1.709,0.004,2.647c-0.017,1.027-0.065,3.756-1.815,6.507
		c-1.572,2.468-4.648,5.178-7.698,5.317l-2.464,1.579c0.779,0.253,1.603,0.44,2.425,0.461c0.012,0,0.025,0.001,0.039,0.001
		c0.012,0,0.026-0.001,0.039-0.001c3.818-0.147,7.462-3.252,9.38-6.263c2.058-3.236,2.115-6.495,2.133-7.566
		c0.016-0.799-0.033-1.542-0.088-2.268c0.615-0.837,1.048-1.522,1.311-2.075c1.942-4.068,0.782-9.288,0.77-9.34
		C46.6,12.594,42.742,9.013,37.439,7.89c-5.546-1.176-11.127,0.688-14.219,4.745c-0.341,0.447-0.254,1.088,0.194,1.429
		c0.447,0.343,1.088,0.255,1.429-0.192c2.617-3.435,7.396-4.998,12.173-3.987c4.512,0.956,7.786,3.968,8.76,8.057
		c0.21,0.884,0.706,4.553-0.385,7.425c-0.111-0.759-0.251-1.553-0.424-2.243c-0.259-1.046-0.604-2.08-1.053-3.152
		c-0.192-0.459-0.685-0.713-1.171-0.599c-2.858,0.664-5.675,1.576-8.38,2.71c-2.704-1.134-5.52-2.045-8.379-2.71
		c-0.485-0.113-0.979,0.14-1.172,0.599c-0.046,0.11-0.127,0.275-0.229,0.485c-0.69,1.418-2.306,4.739-2.306,8.46
		c0,1.043,0.048,2.087,0.192,3.122c0.098,0.703,0.249,1.431,0.441,2.113c0.071,0.251,0.124,0.477,0.208,0.724"/>
	<path fill="#2E2D78" d="M34.128,35.495c-3.141,0-6.771-0.392-10.601-1.563c-0.525-0.162-0.821-0.719-0.66-1.245
		c0.16-0.525,0.717-0.822,1.244-0.66c10.628,3.253,19.894,0.047,19.987,0.014c0.52-0.184,1.088,0.087,1.272,0.604
		s-0.086,1.087-0.603,1.272C44.502,34.013,40.241,35.495,34.128,35.495"/>
	<path fill="#2E2D78" d="M22.94,34.236c0.28,1.33,0.817,2.908,1.818,4.481c1.917,3.011,5.562,6.116,9.38,6.263
		c0.013,0,0.027,0.001,0.039,0.001c0.014,0,0.027-0.001,0.039-0.001l-0.002-2.04c-3.051-0.14-6.164-2.85-7.735-5.317
		c-0.902-1.419-1.352-2.832-1.579-4.009"/>
	<path fill="#2E2D78" d="M34.075,50.884c0.446,0,0.902-0.024,1.36-0.075c0.56-0.062,0.964-0.564,0.903-1.125
		c-0.062-0.56-0.53-0.923-1.089-0.861c-0.429,0.047-0.855,0.067-1.267,0.062c-4.488-0.061-8.042-3.072-8.077-3.103
		c-0.231-0.198-0.539-0.283-0.84-0.23c-2.72,0.478-5.254,1.538-7.529,3.154c-0.459,0.326-0.566,0.963-0.241,1.422
		s0.965,0.566,1.422,0.241c1.902-1.352,4.004-2.267,6.256-2.724c1.141,0.862,4.607,3.18,8.946,3.238
		C33.971,50.884,34.022,50.884,34.075,50.884"/>
	<path fill="#2E2D78" d="M59.3,64.334c0.021,0,0.042-0.001,0.063-0.003c0.563-0.034,0.991-0.518,0.956-1.08
		c-0.541-8.757-7.15-16.2-15.715-17.7c-0.556-0.095-1.084,0.274-1.181,0.829c-0.097,0.556,0.274,1.083,0.829,1.182
		c7.647,1.337,13.548,7.989,14.03,15.814C58.317,63.917,58.765,64.334,59.3,64.334"/>
	<path fill="#2E2D78" d="M22.548,64.192c0.563,0,1.02-0.426,1.02-0.952v-6.345c0-0.525-0.457-0.951-1.02-0.951
		c-0.562,0-1.02,0.426-1.02,0.951v6.345C21.528,63.767,21.986,64.192,22.548,64.192"/>
	<path fill="#2E2D78" d="M47.288,64.192c0.562,0,1.02-0.426,1.02-0.952v-6.345c0-0.525-0.458-0.951-1.02-0.951
		c-0.563,0-1.021,0.426-1.021,0.951v6.345C46.267,63.767,46.725,64.192,47.288,64.192"/>
	<path fill="#2E2D78" d="M34.315,50.916c-0.446,0-0.903-0.024-1.36-0.076c-0.56-0.061-0.964-0.564-0.903-1.125
		c0.062-0.56,0.566-0.963,1.125-0.902c0.428,0.047,0.855,0.068,1.267,0.063c4.488-0.061,9.325-3.063,9.36-3.094
		c0.232-0.198,0.538-0.283,0.839-0.23c2.721,0.477,5.254,1.538,7.529,3.154c0.46,0.326,0.568,0.963,0.242,1.422
		s-0.965,0.565-1.422,0.241c-1.903-1.351-4.005-2.266-6.256-2.723c-1.142,0.861-5.926,3.21-10.265,3.27
		C34.419,50.915,34.368,50.916,34.315,50.916"/>
	<path fill="#2E2D78" d="M59.31,64.457H12.577c-0.496,0-0.898-0.401-0.898-0.896c0-0.496,0.402-0.898,0.898-0.898H59.31
		c0.495,0,0.897,0.402,0.897,0.898C60.207,64.056,59.805,64.457,59.31,64.457"/>
</g>
</svg>
