<?xml version="1.0" encoding="utf-8"?>
<!-- Generator: Adobe Illustrator 16.0.0, SVG Export Plug-In . SVG Version: 6.00 Build 0)  -->
<!DOCTYPE svg PUBLIC "-//W3C//DTD SVG 1.1//EN" "http://www.w3.org/Graphics/SVG/1.1/DTD/svg11.dtd">
<svg version="1.1" id="Layer_1" xmlns="http://www.w3.org/2000/svg" xmlns:xlink="http://www.w3.org/1999/xlink" x="0px" y="0px"
	 width="107.463px" height="31.831px" viewBox="0 0 107.463 31.831" enable-background="new 0 0 107.463 31.831"
	 xml:space="preserve">
<g>
	<path fill="#010101" d="M53.68,31.659c-15.778,0-31.555,0-47.333,0c-2.577-0.002-4.598-1.346-5.431-3.611
		c-0.233-0.637-0.333-1.299-0.332-1.977C0.585,19.3,0.577,12.53,0.588,5.758c0.006-3.165,2.358-5.525,5.519-5.58
		C6.22,0.177,6.336,0.178,6.451,0.178c31.522,0,63.044,0.003,94.568-0.006c2.213-0.001,3.941,0.831,5.107,2.733
		c0.556,0.904,0.756,1.904,0.754,2.958c-0.004,4.589-0.002,9.181-0.002,13.771c0,2.066,0.002,4.131,0,6.197
		c0,3.502-2.318,5.828-5.817,5.828C85.269,31.659,69.475,31.659,53.68,31.659"/>
	<path fill="#FFFFFF" d="M37.572,18.956c-1.036,0-2.066-0.01-3.097,0.006c-0.285,0.006-0.397-0.051-0.399-0.371
		c-0.008-1.131-0.023-1.131,1.11-1.131c1.165,0,2.33,0.01,3.493-0.006c0.286-0.002,0.383,0.064,0.412,0.371
		c0.202,2.16-0.672,3.969-2.399,4.895c-1.936,1.037-4.424,0.781-6.136-0.635c-2.325-1.922-2.637-5.26-0.708-7.551
		c1.968-2.332,5.372-2.656,7.666-0.746c0.251,0.21,0.233,0.322,0.007,0.516c-0.261,0.222-0.458,0.592-0.75,0.686
		c-0.291,0.095-0.521-0.31-0.796-0.469c-1.301-0.747-3.031-0.634-4.262,0.303c-1.262,0.962-1.81,2.649-1.373,4.231
		c0.401,1.457,1.702,2.588,3.195,2.762c0.54,0.063,1.079,0.049,1.613-0.08C36.548,21.397,37.392,20.444,37.572,18.956"/>
	<path fill="#FFFFFF" d="M60.322,22.608c-1.301,1.084-3.021,0.945-4.201-0.303c-1.274-1.35-1.291-3.451-0.037-4.82
		c1.174-1.28,2.868-1.443,4.229-0.357c-0.085-0.551,0.253-0.514,0.602-0.51c0.889,0.012,0.889,0.004,0.889,0.904
		c0,1.723-0.002,3.443,0.002,5.164c0,0.561-0.043,1.113-0.215,1.65c-0.406,1.264-1.396,2.027-2.729,2.109
		c-1.492,0.092-2.751-0.584-3.311-1.756c-0.106-0.219-0.072-0.326,0.152-0.393c0.077-0.023,0.154-0.053,0.226-0.092
		c0.485-0.268,0.837-0.365,1.234,0.256c0.457,0.713,1.27,0.742,2.045,0.51c0.743-0.221,1.027-0.816,1.11-1.525
		C60.35,23.187,60.322,22.921,60.322,22.608"/>
	<path fill="#FFFFFF" d="M75.575,13.164c0.022-0.148,0.142-0.107,0.229-0.107c1.196-0.001,2.395-0.031,3.59,0.012
		c1.453,0.052,2.627,1.049,2.884,2.375c0.292,1.507-0.325,2.851-1.601,3.47c-0.62,0.301-1.284,0.354-1.964,0.355
		c-0.533,0.004-1.248-0.236-1.552,0.098c-0.265,0.291-0.081,0.994-0.087,1.516c-0.006,0.672-0.01,1.344,0.005,2.016
		c0.005,0.234-0.066,0.297-0.302,0.307c-1.228,0.055-1.228,0.063-1.228-1.146c0-2.752,0-5.506,0.002-8.259
		c0-0.18,0.016-0.36,0.025-0.538c0.19-0.007,0.148,0.137,0.148,0.241c0.003,3.067,0.002,6.133,0.004,9.202
		c0.001-3.027,0.006-6.053-0.006-9.079c0-0.32,0.084-0.425,0.413-0.418c0.955,0.02,1.911,0.008,2.868-0.018
		c0.062-0.043-0.027-0.111,0.008-0.055c0.013,0.023,0.006,0.042-0.023,0.043C77.852,13.222,76.713,13.252,75.575,13.164"/>
	<path fill="#FFFFFF" d="M91.32,18.847c-0.029-0.686-0.364-1.104-0.915-1.334c-0.695-0.289-1.434-0.299-1.975,0.25
		c-0.366,0.377-0.604,0.311-0.983,0.119c-0.821-0.412-0.857-0.463-0.17-1.088c1.128-1.025,2.446-1.101,3.808-0.588
		c1.252,0.471,1.787,1.479,1.811,2.77s-0.001,2.586,0.016,3.879c0.004,0.289-0.094,0.381-0.361,0.344
		c-0.064-0.008-0.132-0.002-0.197-0.002c-0.918,0.002-0.918,0.002-1.047-0.957c-0.578,0.877-1.353,1.26-2.348,1.176
		c-1.729-0.145-2.856-1.639-2.354-3.176c0.362-1.113,1.295-1.498,2.344-1.664C89.734,18.452,90.518,18.515,91.32,18.847"/>
	<path fill="#FFFFFF" d="M93.479,16.315c0.569,0,1.057,0.013,1.543-0.005c0.259-0.01,0.278,0.185,0.346,0.339
		c0.31,0.705,0.612,1.41,0.918,2.115c0.299,0.689,0.597,1.379,0.898,2.07c0.203-0.037,0.182-0.223,0.229-0.34
		c0.512-1.258,1.018-2.518,1.501-3.785c0.117-0.308,0.267-0.433,0.606-0.406c0.435,0.036,0.873,0.01,1.386,0.01
		c-0.467,1.076-0.899,2.076-1.336,3.074c-0.948,2.174-1.904,4.344-2.84,6.521c-0.143,0.332-0.307,0.484-0.682,0.445
		c-0.389-0.041-0.785-0.008-1.25-0.008c0.45-0.957,0.846-1.887,1.317-2.775c0.248-0.471,0.227-0.844,0.01-1.316
		C95.237,20.325,94.392,18.374,93.479,16.315"/>
	<path fill="#FFFFFF" d="M43.25,16.396c1.965-0.005,3.497,1.512,3.507,3.475c0.01,1.959-1.511,3.48-3.487,3.49
		c-1.967,0.008-3.514-1.52-3.513-3.473C39.759,17.931,41.288,16.401,43.25,16.396"/>
	<path fill="#FFFFFF" d="M50.908,16.396c1.96,0.005,3.492,1.536,3.494,3.493c0.001,1.949-1.548,3.479-3.515,3.471
		c-1.977-0.008-3.501-1.535-3.486-3.49C47.416,17.901,48.94,16.392,50.908,16.396"/>
	<path fill="#8ACFBD" d="M9.855,26.28c-0.318-0.088-0.46-0.316-0.502-0.625c-0.014-1.947-0.011-3.896-0.004-5.842
		c0.042-0.334,0.279-0.412,0.562-0.414c1.009-0.01,2.017,0.02,3.027-0.006c0.957-0.023,1.917,0.051,2.876,0.01
		c0.195-0.008,0.393-0.02,0.573,0.084c0.042,0.027,0.068,0.064,0.082,0.115c-0.057,0.293-0.273,0.479-0.459,0.688
		c-0.24,0.229-0.472,0.465-0.704,0.701c-0.267,0.258-0.528,0.523-0.788,0.787c-0.299,0.289-0.59,0.588-0.882,0.883
		c-0.235,0.225-0.465,0.459-0.694,0.693c-0.267,0.258-0.528,0.521-0.788,0.789c-0.3,0.293-0.597,0.59-0.889,0.891
		c-0.327,0.318-0.645,0.645-0.968,0.965C10.169,26.124,10.051,26.263,9.855,26.28"/>
	<path fill="#FFFFFF" d="M68.541,16.397c1.495-0.005,2.836,1.051,3.187,2.371c0.077,0.291-0.118,0.297-0.27,0.361
		c-1.298,0.541-2.595,1.092-3.903,1.609c-0.384,0.15-0.384,0.285-0.146,0.574c0.714,0.871,2.118,0.902,2.902,0.012
		c0.218-0.246,0.355-0.26,0.58-0.072c0.062,0.055,0.135,0.094,0.202,0.139c0.761,0.488,0.761,0.488,0.081,1.082
		c-1.116,0.98-2.735,1.16-4.035,0.451c-1.271-0.695-1.919-2.072-1.704-3.627c0.199-1.439,1.18-2.529,2.562-2.834
		C68.22,16.416,68.45,16.408,68.541,16.397"/>
	<path fill="#FEC468" d="M20.175,15.904c1.149,0.615,2.312,1.205,3.442,1.851c0.692,0.395,0.689,1.006-0.003,1.404
		c-1.129,0.648-2.287,1.248-3.434,1.867c-0.521-0.242-0.799-0.766-1.25-1.088c-0.199-0.205-0.376-0.43-0.591-0.621
		c-0.215-0.223-0.439-0.438-0.653-0.662c-0.047-0.049-0.085-0.104-0.111-0.166c-0.011-0.045-0.01-0.09,0.002-0.133
		c0.068-0.141,0.165-0.262,0.283-0.365c0.211-0.166,0.391-0.367,0.58-0.555c0.271-0.264,0.535-0.529,0.797-0.801
		C19.563,16.408,19.715,15.96,20.175,15.904"/>
	<path fill="#FFFFFF" d="M62.983,17.978c0-1.539,0.01-3.076-0.009-4.615c-0.004-0.334,0.076-0.444,0.429-0.44
		c1.124,0.01,1.124-0.005,1.124,1.116c0,2.881-0.007,5.762,0.009,8.643c0.002,0.377-0.079,0.502-0.48,0.492
		c-1.072-0.025-1.072-0.004-1.072-1.07V17.978z"/>
	<path fill="#FFFFFF" d="M85.228,18.144c0,1.541-0.01,3.078,0.007,4.617c0.004,0.318-0.039,0.453-0.41,0.447
		c-1.137-0.016-1.137,0.002-1.137-1.146c0-2.85,0.006-5.7-0.008-8.548c-0.001-0.347,0.057-0.478,0.446-0.471
		c1.102,0.022,1.102,0.002,1.102,1.124V18.144z"/>
	<path fill="#FDFEFF" d="M57.554,8.119c0-1.161,0.002-2.206-0.001-3.249c-0.001-0.207-0.021-0.369,0.29-0.376
		c0.345-0.006,0.31,0.187,0.308,0.407c-0.002,1.278,0.003,2.557-0.005,3.835c0,0.14,0.109,0.373-0.139,0.399
		c-0.225,0.025-0.469,0.084-0.641-0.207c-0.585-0.985-1.199-1.953-1.803-2.927c-0.109-0.177-0.224-0.353-0.421-0.518V7.95
		c0,0.295-0.012,0.591,0.003,0.885c0.01,0.219-0.039,0.322-0.293,0.32c-0.244-0.003-0.303-0.095-0.301-0.321
		c0.008-1.278-0.002-2.556,0.012-3.835c0.002-0.164-0.148-0.445,0.158-0.481c0.273-0.033,0.562-0.095,0.765,0.253
		c0.561,0.962,1.163,1.898,1.749,2.845C57.32,7.754,57.409,7.889,57.554,8.119"/>
	<path fill="#FDFEFF" d="M51.456,4.397c1.359,0.001,2.399,1.073,2.388,2.457c-0.011,1.355-1.061,2.385-2.417,2.374
		c-1.336-0.012-2.4-1.097-2.38-2.427C49.068,5.453,50.128,4.396,51.456,4.397"/>
	<path fill="#FDFEFF" d="M32.634,6.67h0.493c0.681,0.001,0.708,0.032,0.598,0.719c-0.196,1.238-1.255,1.98-2.6,1.821
		c-1.256-0.147-2.155-1.226-2.072-2.502c0.061-0.941,0.495-1.669,1.352-2.077c0.808-0.383,1.627-0.336,2.387,0.163
		c0.123,0.081,0.429,0.136,0.225,0.428c-0.17,0.241-0.308,0.217-0.546,0.045c-0.752-0.541-1.735-0.397-2.347,0.299
		c-0.629,0.714-0.639,1.764-0.024,2.473c0.601,0.693,1.659,0.836,2.406,0.321c0.12-0.083,0.232-0.185,0.325-0.296
		c0.179-0.221,0.365-0.509,0.258-0.756c-0.084-0.195-0.417-0.057-0.637-0.075c-0.229-0.017-0.459-0.015-0.689-0.001
		c-0.235,0.016-0.309-0.075-0.313-0.309c-0.003-0.242,0.112-0.262,0.299-0.255C32.044,6.677,32.339,6.67,32.634,6.67"/>
	<path fill="#FBFCFC" d="M34.477,6.827c0-0.672,0.007-1.342-0.004-2.013c-0.004-0.232,0.066-0.317,0.307-0.313
		c0.704,0.014,1.408,0.013,2.112,0c0.223-0.003,0.314,0.044,0.315,0.294c0.001,0.28-0.153,0.27-0.344,0.269
		c-0.49-0.005-0.983,0.011-1.473-0.007c-0.265-0.01-0.324,0.091-0.331,0.34c-0.04,1.159-0.046,1.158,1.125,1.159
		c0.197,0,0.395,0.008,0.59-0.002c0.216-0.012,0.229,0.112,0.231,0.279c0.003,0.178-0.04,0.272-0.241,0.269
		c-0.442-0.008-0.885,0.009-1.327-0.006c-0.254-0.008-0.374,0.036-0.381,0.339c-0.027,1.115-0.04,1.114,1.068,1.114
		c0.245,0,0.491,0.013,0.735-0.003c0.235-0.014,0.346,0.032,0.349,0.313c0.004,0.307-0.159,0.292-0.367,0.29
		c-0.671-0.005-1.343-0.015-2.014,0.004c-0.285,0.007-0.364-0.089-0.356-0.364C34.488,8.134,34.477,7.48,34.477,6.827"/>
	<path fill="#F9F9FA" d="M38.999,7.091c0-0.523-0.03-1.05,0.01-1.569c0.031-0.412-0.132-0.507-0.493-0.465
		c-0.177,0.021-0.36-0.006-0.539,0.005c-0.218,0.016-0.275-0.081-0.279-0.289c-0.003-0.226,0.092-0.272,0.293-0.271
		c0.883,0.008,1.766,0.01,2.649-0.001c0.226-0.002,0.27,0.093,0.272,0.293c0.002,0.224-0.098,0.267-0.298,0.272
		c-0.323,0.007-0.755-0.151-0.943,0.065c-0.218,0.249-0.067,0.688-0.072,1.043c-0.01,0.868-0.004,1.734-0.002,2.601
		c0,0.197,0.038,0.379-0.281,0.381c-0.328,0.004-0.324-0.167-0.321-0.399C39.004,8.202,38.999,7.646,38.999,7.091"/>
	<path fill="#FBFCFC" d="M46.056,7.111c0,0.541,0.002,1.082,0,1.623c-0.001,0.202,0.069,0.417-0.29,0.423
		c-0.352,0.006-0.303-0.192-0.303-0.402c0.001-1.1-0.012-2.199,0.009-3.296c0.006-0.319-0.079-0.441-0.404-0.402
		c-0.21,0.025-0.426-0.006-0.639,0.008c-0.236,0.015-0.264-0.111-0.266-0.302c-0.001-0.188,0.059-0.262,0.253-0.261
		c0.902,0.009,1.804,0.01,2.706,0c0.223-0.002,0.226,0.119,0.226,0.28c0,0.162-0.008,0.303-0.228,0.28
		c-0.016-0.002-0.033-0.001-0.049,0c-0.322,0.026-0.756-0.147-0.943,0.07c-0.216,0.251-0.056,0.688-0.07,1.045
		C46.046,6.487,46.056,6.799,46.056,7.111"/>
	<path fill="#F7F8F8" d="M43.535,6.819c0,0.671-0.007,1.342,0.003,2.014c0.003,0.217-0.038,0.328-0.292,0.322
		c-0.227-0.006-0.317-0.062-0.315-0.306c0.009-1.343,0.008-2.685,0.001-4.029c-0.001-0.22,0.048-0.318,0.296-0.326
		c0.291-0.008,0.313,0.131,0.31,0.358C43.528,5.508,43.535,6.163,43.535,6.819"/>
	<path fill="#C33D81" d="M15.235,20.896c0.22-0.223,0.442-0.445,0.663-0.67c0.26-0.033,0.307,0.186,0.319,0.34
		c0.076,0.883,0.138,1.768-0.056,2.646c-0.216,0.164-0.449,0.297-0.707,0.385c-0.213,0.002-0.232-0.174-0.235-0.307
		C15.199,22.491,15.135,21.692,15.235,20.896"/>
	<path fill="#C1DEA2" d="M18.504,17.507c-0.172,0.221-0.349,0.434-0.598,0.576c-0.246-0.121-0.271-0.361-0.288-0.586
		c-0.062-0.799-0.023-1.597,0.068-2.394c0.022-0.19,0.055-0.405,0.338-0.375c0.258,0.086,0.491,0.216,0.704,0.385
		c-0.221,0.549-0.092,1.123-0.11,1.683C18.611,17.04,18.637,17.286,18.504,17.507"/>
	<path fill="#CE3F6F" d="M17.625,18.468c0.029,0.031,0.058,0.064,0.087,0.098c0.132,0.205,0.134,0.432,0.131,0.664
		c-0.013,1.027-0.031,2.057-0.03,3.086c-0.145,0.188-0.401,0.164-0.569,0.307c-0.359-0.066-0.249-0.357-0.254-0.57
		c-0.026-0.957,0.001-1.914-0.048-2.869c-0.008-0.115,0.021-0.219,0.084-0.316C17.202,18.698,17.311,18.431,17.625,18.468"/>
	<path fill="#BC3D8A" d="M15.235,20.896c0.214,0.707,0.068,1.43,0.115,2.146c0.012,0.186-0.075,0.396,0.104,0.555
		c-0.276,0.203-0.575,0.363-0.894,0.486c-0.095-0.08-0.128-0.193-0.124-0.305c0.03-0.695-0.022-1.393,0.01-2.086
		C14.709,21.425,14.972,21.161,15.235,20.896"/>
	<path fill="#B4DAA4" d="M16.755,14.036c0.271,0.099,0.523,0.232,0.752,0.409c-0.18,0.896-0.143,1.797-0.073,2.703
		c0.021,0.273-0.037,0.555-0.277,0.748c-0.357,0.02-0.496-0.225-0.604-0.506c0.008-1.005,0.073-2.012,0.002-3.018
		C16.546,14.238,16.49,14.026,16.755,14.036"/>
	<path fill="#9CD3A8" d="M14.402,12.752c0.336,0.129,0.648,0.302,0.941,0.511c-0.262,0.371-0.213,0.807-0.251,1.221
		c-0.033,0.354,0.045,0.718-0.06,1.069c-0.024,0.048-0.062,0.083-0.112,0.104c-0.399-0.133-0.623-0.455-0.843-0.783
		c-0.02-0.054-0.032-0.11-0.038-0.166c-0.033-0.473-0.045-0.948,0.003-1.419C14.065,13.064,14.063,12.782,14.402,12.752"/>
	<path fill="#D14069" d="M17.813,22.315c-0.36-0.299-0.116-0.707-0.137-1.045c-0.057-0.896,0.015-1.801,0.037-2.705
		c0.258,0.201,0.492,0.426,0.692,0.686c0.021,0.934,0.043,1.869-0.095,2.797C18.163,22.169,18.002,22.269,17.813,22.315"/>
	<path fill="#BBDCA3" d="M17.121,17.88c0.205-0.426,0.183-0.855,0.148-1.324c-0.052-0.706-0.204-1.452,0.238-2.112
		c0.193,0.058,0.366,0.152,0.517,0.284c-0.431,0.268-0.236,0.739-0.26,1.076c-0.046,0.676-0.123,1.375,0.052,2.051
		c0.021,0.078,0.06,0.152,0.089,0.229c-0.115,0.076-0.125,0.254-0.278,0.297c-0.169,0.082-0.253-0.059-0.362-0.139
		C17.186,18.134,17.046,18.05,17.121,17.88"/>
	<path fill="#AFD9A5" d="M16.755,14.036c-0.133,0.132-0.076,0.288-0.07,0.446c0.034,0.969,0.09,1.939-0.055,2.904
		c-0.036,0.041-0.08,0.051-0.132,0.033c-0.24-0.174-0.496-0.334-0.519-0.676c0.091-0.627,0.04-1.259,0.035-1.89
		c-0.003-0.325,0.012-0.648,0.018-0.972c0.003-0.155,0.055-0.219,0.206-0.129C16.43,13.809,16.604,13.901,16.755,14.036"/>
	<path fill="#B53D91" d="M14.446,21.692c0.187,0.512,0.149,1.037,0.118,1.566c-0.017,0.273-0.004,0.551-0.004,0.824
		c-0.235,0.184-0.501,0.314-0.778,0.426c-0.173-0.176-0.108-0.406-0.121-0.609c-0.029-0.439-0.05-0.879-0.098-1.316
		C13.858,22.286,14.152,21.989,14.446,21.692"/>
	<path fill="#92CFA9" d="M14.402,12.752c-0.241,0.217-0.234,0.507-0.235,0.795c-0.001,0.433-0.004,0.867-0.007,1.298
		c-0.322,0.012-0.43-0.311-0.672-0.427c-0.186-0.162-0.342-0.34-0.371-0.598c0.065-0.385,0.063-0.775,0.094-1.163
		c0.016-0.187,0.009-0.404,0.296-0.393C13.827,12.387,14.127,12.547,14.402,12.752"/>
	<path fill="#CA3F74" d="M17.025,19.085c0.129,0.189,0.093,0.408,0.093,0.617c0.003,0.842,0,1.684,0.002,2.525
		c0.001,0.143-0.031,0.299,0.125,0.396c-0.109,0.059-0.217,0.117-0.326,0.18c-0.378,0.1-0.4-0.188-0.41-0.418
		c-0.024-0.518-0.01-1.035-0.003-1.553c0.005-0.389-0.003-0.775-0.066-1.158c0.012-0.035,0.023-0.068,0.037-0.104
		C16.552,19.29,16.671,19.056,17.025,19.085"/>
	<path fill="#C63E7A" d="M16.439,19.675c0.412,0.26,0.164,0.672,0.199,1.002c0.059,0.563,0,1.135-0.011,1.705
		c-0.004,0.211,0.021,0.4,0.292,0.422c-0.229,0.18-0.486,0.309-0.758,0.408c-0.08-0.74-0.018-1.482-0.025-2.223
		c-0.003-0.279-0.007-0.555-0.239-0.762C16.078,20.044,16.258,19.858,16.439,19.675"/>
	<path fill="#A4D5A8" d="M14.948,15.636c0.022-0.7-0.012-1.4,0.075-2.1c0.03-0.246,0.171-0.233,0.32-0.273
		c0.191,0.057,0.366,0.15,0.516,0.284c-0.109,0.609-0.063,1.225-0.075,1.836c-0.005,0.26,0.004,0.522-0.201,0.727
		c-0.043,0.036-0.094,0.054-0.149,0.061C15.162,16.093,14.968,15.944,14.948,15.636"/>
	<path fill="#88CDAB" d="M13.507,12.264c-0.37,0.29-0.134,0.707-0.198,1.058c-0.033,0.183-0.045,0.364-0.128,0.533
		c-0.224,0.053-0.311-0.142-0.45-0.245c-0.191-0.22-0.443-0.388-0.585-0.655c-0.012-0.045-0.013-0.091-0.01-0.136
		c0.09-0.214,0.055-0.442,0.077-0.662c0.016-0.167-0.111-0.441,0.214-0.485C12.785,11.872,13.184,11.999,13.507,12.264"/>
	<path fill="#A9D7A6" d="M15.431,16.121c0.213-0.156,0.214-0.384,0.213-0.615c-0.003-0.488,0-0.977-0.002-1.465
		c0-0.198-0.013-0.398,0.217-0.495c0.146,0.034,0.274,0.097,0.378,0.206c-0.162,0.166-0.093,0.379-0.096,0.567
		c-0.008,0.709-0.004,1.418,0.027,2.128c0.007,0.158-0.086,0.232-0.129,0.347c-0.032,0.039-0.072,0.053-0.121,0.041
		C15.662,16.661,15.452,16.456,15.431,16.121"/>
	<path fill="#AD3D96" d="M13.563,22.583c0.094,0.129,0.22,0.225,0.215,0.42c-0.013,0.502,0.001,1.002,0.004,1.504
		c-0.215,0.156-0.438,0.297-0.693,0.375c-0.22-0.096-0.238-0.299-0.24-0.492c-0.003-0.371-0.059-0.746,0.027-1.115
		C13.078,23.017,13.305,22.786,13.563,22.583"/>
	<path fill="#D54162" d="M18.311,22.048c-0.1-0.936-0.09-1.871,0.094-2.795c0.243,0.156,0.411,0.383,0.585,0.607
		c-0.027,0.623,0.143,1.254-0.091,1.865C18.727,21.874,18.523,21.972,18.311,22.048"/>
	<path fill="#C8E1A0" d="M18.504,17.507c-0.011-0.611-0.012-1.222-0.039-1.834c-0.011-0.246,0.009-0.451,0.263-0.56
		c0.263,0.102,0.521,0.209,0.727,0.413c-0.188,0.379,0.022,0.813-0.162,1.192C19.059,17.011,18.798,17.274,18.504,17.507"/>
	<path fill="#44AABF" d="M9.33,25.569c-0.114-0.182-0.066-0.385-0.066-0.576c0.003-4.355,0.009-8.71,0.015-13.064
		c0-0.245-0.003-0.492,0.08-0.728c0.297,0.121,0.188,0.368,0.181,0.583c-0.098,0.302-0.05,0.613-0.057,0.921
		c-0.005,0.35-0.002,0.698-0.001,1.048c-0.001,0.296-0.003,0.593,0.003,0.891c-0.007,0.391-0.003,0.781-0.002,1.171
		c-0.002,0.334-0.002,0.668,0,1.002c-0.002,0.498-0.001,0.996,0.001,1.494c-0.136,2.326-0.085,4.654-0.093,6.98
		C9.391,25.388,9.412,25.491,9.33,25.569"/>
	<path fill="#DB4159" d="M18.899,21.726c0.039-0.621-0.163-1.254,0.09-1.865c0.452,0.332,0.819,0.752,1.192,1.166
		C19.78,21.308,19.344,21.526,18.899,21.726"/>
	<path fill="#7DCAAE" d="M12.426,11.673c-0.058,0.237-0.197,0.469-0.071,0.722c0.104,0.212-0.092,0.323-0.159,0.476
		c-0.38,0.002-0.495-0.367-0.75-0.538c-0.171-0.218-0.456-0.353-0.486-0.673c0.106-0.257,0.234-0.493,0.571-0.474
		C11.853,11.306,12.148,11.472,12.426,11.673"/>
	<path fill="#F7F8F8" d="M75.575,13.164h3.532c0.001,0.032,0.001,0.064,0.001,0.098c-0.919,0-1.839,0.021-2.758-0.009
		c-0.439-0.016-0.587,0.097-0.583,0.564c0.022,2.854,0.013,5.706,0.009,8.558c0,0.174,0.046,0.357-0.048,0.539
		c-0.092-0.182-0.046-0.365-0.046-0.539c-0.003-2.852-0.001-5.705-0.007-8.558c0-0.186,0.077-0.396-0.099-0.555
		C75.577,13.227,75.575,13.195,75.575,13.164"/>
	<path fill="#A44098" d="M12.876,23.276c0.172,0.281,0.095,0.596,0.108,0.896c0.011,0.24-0.033,0.488,0.105,0.709
		c-0.277,0.195-0.571,0.363-0.889,0.484c-0.245-0.416-0.155-0.859-0.108-1.299C12.323,23.774,12.587,23.511,12.876,23.276"/>
	<path fill="#41A2BC" d="M9.442,11.787c-0.029-0.195,0.071-0.41-0.084-0.587c0.061-0.323,0.223-0.553,0.57-0.609
		c0.429,0.283,0.821,0.602,1.036,1.09c-0.028,0.181-0.182,0.165-0.297,0.165c-0.412-0.002-0.822,0.043-1.233,0.058
		C9.401,11.861,9.405,11.822,9.442,11.787"/>
	<path fill="#9A449A" d="M12.092,24.067c0.206,0.42,0.064,0.867,0.108,1.299c-0.209,0.166-0.444,0.285-0.692,0.379
		c-0.291-0.191-0.348-0.473-0.302-0.793C11.501,24.657,11.796,24.362,12.092,24.067"/>
	<path fill="#8F479B" d="M11.206,24.952c0.101,0.266,0.201,0.529,0.302,0.793c-0.521,0.271-0.971,0.762-1.653,0.535
		C10.305,25.837,10.755,25.394,11.206,24.952"/>
	<polygon fill="#070707" points="75.37,13.196 75.37,23.067 75.322,23.067 75.322,13.175 	"/>
	<rect x="64.684" y="13.089" fill="#080808" width="0.039" height="9.908"/>
	<path fill="#6CC6AF" d="M10.922,11.685c-0.331-0.365-0.663-0.729-0.994-1.094c0.346-0.173,0.618,0.041,0.897,0.183
		c0.242,0.123,0.471,0.272,0.705,0.412c-0.215,0.122-0.381,0.295-0.514,0.503C10.983,11.728,10.952,11.727,10.922,11.685"/>
	<path fill="#8BD1C4" d="M9.33,25.569c0.008-2.039,0.015-4.074,0.023-6.111c0.002-0.391,0.011-0.783,0.015-1.174
		c0.056-0.027,0.099-0.014,0.131,0.037c0.026,0.047,0.043,0.096,0.054,0.148c0.031,0.211,0.015,0.424,0.027,0.637
		c0.007,0.195-0.025,0.383-0.138,0.549c0,1.83,0.002,3.658-0.003,5.488c0,0.172,0.063,0.363-0.087,0.512
		C9.33,25.63,9.322,25.601,9.33,25.569"/>
	<path fill="#CFE39E" d="M19.293,16.72c-0.138-0.327,0.043-0.677-0.076-1.011c-0.035-0.097,0.117-0.171,0.238-0.184
		c0.229,0.146,0.529,0.159,0.719,0.378C19.881,16.176,19.587,16.448,19.293,16.72"/>
	<path fill="#080808" d="M42.736,9.007V4.608c0.017,0.001,0.033,0.001,0.049,0.001v4.402C42.769,9.01,42.752,9.009,42.736,9.007"/>
	<path fill="#010101" d="M60.456,19.894c-0.004,1.188-0.783,2.072-1.833,2.084c-1.091,0.012-1.94-0.912-1.935-2.104
		c0.007-1.215,0.824-2.102,1.934-2.098C59.71,17.778,60.46,18.644,60.456,19.894"/>
	<path fill="#010101" d="M78.298,14.543c0.294,0,0.59-0.012,0.885,0.002c0.883,0.039,1.596,0.765,1.597,1.618
		c0,0.852-0.659,1.555-1.547,1.602c-0.62,0.033-1.245,0-1.868,0.016c-0.25,0.006-0.297-0.1-0.295-0.322
		c0.011-0.867,0.015-1.737-0.002-2.604c-0.006-0.276,0.105-0.331,0.345-0.317c0.294,0.016,0.59,0.004,0.886,0.004V14.543z"/>
	<path fill="#020202" d="M89.999,19.825c0.029,0,0.162-0.002,0.29,0.02c0.385,0.063,0.889,0.061,1.021,0.447
		c0.119,0.355-0.245,0.684-0.507,0.951c-0.558,0.574-1.229,0.797-2.015,0.564c-0.35-0.104-0.619-0.314-0.67-0.703
		c-0.051-0.371,0.089-0.68,0.384-0.902C88.915,19.888,89.396,19.817,89.999,19.825"/>
	<path fill="#010101" d="M41.304,19.849c0.026-1.225,0.873-2.094,2.02-2.072c1.13,0.021,1.943,0.949,1.908,2.18
		c-0.031,1.117-0.946,2.043-2,2.02C42.141,21.956,41.278,21.003,41.304,19.849"/>
	<path fill="#010101" d="M52.857,19.925c-0.007,1.123-0.89,2.049-1.957,2.051c-1.075,0.004-1.997-0.973-1.977-2.094
		c0.022-1.215,0.879-2.115,2.005-2.105C52.079,17.786,52.864,18.659,52.857,19.925"/>
	<path fill="#85CEBD" d="M9.442,19.657v-0.592c0.113-0.246,0.313-0.277,0.564-0.283c1.222-0.021,2.443,0.078,3.664,0.029
		c1.057-0.043,2.114-0.014,3.17,0c0.112,0,0.23-0.035,0.319,0.07c-0.044,0.068-0.09,0.135-0.134,0.203
		c-0.184,0.162-0.367,0.324-0.55,0.486c-0.914-0.006-1.829-0.008-2.744-0.018c-1.202-0.01-2.404-0.029-3.606-0.041
		C9.888,19.509,9.638,19.46,9.442,19.657"/>
	<path fill="#020202" d="M66.9,19.765c-0.007-0.826,0.341-1.398,0.993-1.785c0.566-0.334,1.151-0.34,1.718,0.023
		c0.164,0.104,0.372,0.236,0.355,0.434c-0.014,0.16-0.259,0.17-0.404,0.23C68.691,19.03,67.818,19.388,66.9,19.765"/>
	<path fill="#80CDBE" d="M17.159,18.882c-0.485,0.178-0.993,0.068-1.479,0.053c-0.752-0.025-1.502-0.014-2.251,0.018
		c-0.695,0.031-1.384-0.07-2.074-0.049c-0.526,0.02-1.049,0.074-1.576-0.01c-0.101-0.016-0.225,0.111-0.337,0.172
		c0-0.229,0-0.459,0-0.689c0.125-0.234,0.348-0.295,0.583-0.285c2.351,0.098,4.704,0.016,7.056,0.047
		c0.081,0,0.16,0.031,0.243,0.031c0.101,0.07,0.203,0.141,0.305,0.209c-0.004,0.029-0.005,0.061-0.004,0.09
		C17.47,18.606,17.314,18.743,17.159,18.882"/>
	<path fill="#010101" d="M49.686,6.842c-0.006-1.055,0.792-1.915,1.771-1.908c0.987,0.008,1.796,0.864,1.792,1.9
		c-0.004,1.026-0.782,1.824-1.785,1.832C50.46,8.674,49.692,7.886,49.686,6.842"/>
	<path fill="#7BCCBF" d="M17.323,18.171c-0.138,0.17-0.332,0.1-0.504,0.105c-1.221,0.053-2.446,0.025-3.668,0.045
		c-1.012,0.02-2.043,0.025-3.059-0.082c-0.251-0.025-0.439,0.066-0.65,0.139V18.28c-0.084-0.172-0.048-0.346-0.023-0.521
		c0.048-0.41,0.36-0.412,0.658-0.412c1.355,0,2.709-0.033,4.063-0.004c0.799,0.016,1.6-0.045,2.396,0.039
		c0.031,0.002,0.061,0.004,0.092,0.004c0.126,0.201,0.289,0.369,0.492,0.494L17.323,18.171z"/>
	<path fill="#54C4C4" d="M9.364,14.656c0-0.3,0-0.599,0-0.899c0.046-0.025,0.088-0.017,0.124,0.022
		c0.04,0.063,0.059,0.13,0.067,0.201c-0.021,0.248,0.111,0.293,0.329,0.283c0.895-0.044,1.792,0.015,2.685-0.035
		c0.35-0.019,0.67,0.088,1.004,0.124c0.197,0.165,0.393,0.33,0.589,0.494c0.001,0.032,0.002,0.062,0.004,0.092
		c-0.07,0.351-0.371,0.356-0.612,0.346c-1.357-0.059-2.715,0.04-4.072-0.017C9.3,15.09,9.46,14.848,9.364,14.656"/>
	<path fill="#5EC5C1" d="M9.442,15.229c0.124-0.033,0.247-0.095,0.372-0.095c1.197,0,2.393,0.007,3.588,0.019
		c0.279,0.002,0.55,0.005,0.762-0.215c0.27,0.19,0.5,0.42,0.687,0.692c-0.108,0.235-0.334,0.24-0.532,0.234
		c-1.435-0.051-2.868,0.112-4.301,0.006c-0.202-0.014-0.382,0.088-0.58,0.066c-0.032-0.045-0.045-0.097-0.042-0.151
		C9.416,15.601,9.347,15.407,9.442,15.229"/>
	<path fill="#67C7C1" d="M9.442,15.918c0.133-0.171,0.306-0.217,0.518-0.196c0.699,0.065,1.397,0.07,2.102,0.011
		c0.677-0.054,1.363-0.032,2.043-0.001c0.263,0.011,0.504-0.008,0.745-0.101c0.032-0.001,0.065,0,0.098,0.005
		c0.131,0.164,0.262,0.326,0.393,0.488c-0.093,0.371-0.41,0.321-0.669,0.328c-1.011,0.022-2.022,0.007-3.033-0.041
		c-0.73-0.034-1.46,0.129-2.192,0.022C9.366,16.263,9.369,16.091,9.442,15.918"/>
	<path fill="#71C9C0" d="M16.538,17.382c-0.07,0.035-0.139,0.102-0.208,0.102c-1.093,0-2.185-0.012-3.277-0.012
		c-1.09,0-2.18,0.02-3.269,0.016c-0.23-0.002-0.217,0.213-0.34,0.299c-0.09-0.234-0.049-0.475-0.021-0.715
		c0.169-0.432,0.561-0.416,0.911-0.412c1.358,0.01,2.716-0.02,4.074-0.01c0.294,0.002,0.589,0.004,0.884,0
		c0.233-0.002,0.456,0.033,0.662,0.146c0.029,0,0.058-0.002,0.087-0.004C16.206,16.989,16.371,17.187,16.538,17.382"/>
	<path fill="#4EBFC4" d="M13.571,14.353c-0.467,0.109-0.937-0.013-1.408,0.014c-0.797,0.042-1.599-0.007-2.398-0.007
		c-0.088,0-0.175,0.066-0.271,0.107c-0.102-0.168-0.029-0.348-0.052-0.516c0.069-0.28,0.273-0.325,0.523-0.314
		c0.943,0.045,1.884,0.002,2.823-0.081c0.13,0.101,0.261,0.2,0.392,0.3C13.315,14.019,13.383,14.233,13.571,14.353"/>
	<path fill="#6BC8BF" d="M15.953,16.798c-1.874,0.002-3.747,0.006-5.621,0.004c-0.333,0-0.651,0.021-0.89,0.297
		c-0.075-0.092-0.038-0.201-0.048-0.305c0.016-0.127-0.039-0.266,0.049-0.385c0.191-0.121,0.407-0.087,0.617-0.1
		c1.534-0.09,3.068,0.035,4.602,0.003c0.244-0.005,0.495,0.024,0.68-0.189c0.029-0.001,0.059-0.002,0.09-0.003
		C15.605,16.347,15.779,16.571,15.953,16.798"/>
	<path fill="#4BBAC2" d="M12.789,13.557c-0.105,0.23-0.313,0.205-0.508,0.195c-0.806-0.038-1.612,0.137-2.419,0.001
		c-0.189-0.031-0.303,0.081-0.419,0.197v-0.197c-0.091-0.146-0.036-0.308-0.041-0.464c0.061-0.167,0.176-0.297,0.358-0.284
		c0.816,0.067,1.627,0.008,2.44-0.042C12.432,13.125,12.63,13.322,12.789,13.557"/>
	<path fill="#46B1C0" d="M12.201,12.962c-0.723,0.31-1.487,0.206-2.233,0.174c-0.213-0.009-0.365,0.015-0.525,0.125
		c-0.115-0.179,0.012-0.392-0.082-0.573c0.015-0.301-0.106-0.616,0.082-0.902v0.096c0.155,0.173,0.127,0.35,0.074,0.457
		c0.62-0.083,1.316,0.041,1.995-0.067c0.229,0.2,0.457,0.399,0.686,0.597C12.198,12.901,12.2,12.933,12.201,12.962"/>
	<path fill="#80CDBE" d="M9.442,16.804c0,0.1,0,0.195,0,0.295c0,0.229,0.001,0.459,0.001,0.688
		c-0.001,0.164-0.001,0.328-0.001,0.494c-0.025,0-0.05,0.002-0.075,0.004V16.81C9.39,16.761,9.414,16.757,9.442,16.804"/>
	<path fill="#67C7C1" d="M9.442,15.229c0,0.195,0,0.393,0,0.59c-0.024,0.042-0.048,0.042-0.076,0.004l-0.003-1.168
		C9.514,14.83,9.413,15.039,9.442,15.229"/>
	<path fill="#4EBFC4" d="M9.36,12.689c0.157,0.172,0.05,0.383,0.082,0.573v0.491c-0.027,0-0.054,0.001-0.08,0.004
		C9.362,13.401,9.361,13.044,9.36,12.689"/>
	<path fill="#71C9C0" d="M9.367,15.824c0.025-0.002,0.05-0.004,0.076-0.004c0,0.032,0,0.065,0,0.099c0,0.163,0,0.328,0.001,0.492
		c-0.001,0.132-0.001,0.263-0.001,0.394c-0.026,0-0.05,0.002-0.075,0.006C9.367,16.481,9.367,16.152,9.367,15.824"/>
	<path fill="#44AABF" d="M11.511,12.273c-0.258,0.261-0.603,0.131-0.903,0.203c-0.379,0.089-0.755-0.194-1.166,0.005v-0.597
		c0.462-0.29,0.998-0.042,1.479-0.2c0.033,0.001,0.063,0.003,0.095,0.004C11.182,11.882,11.346,12.079,11.511,12.273"/>
</g>
</svg>
