<?xml version="1.0" encoding="utf-8"?>
<!-- Generator: Adobe Illustrator 16.0.0, SVG Export Plug-In . SVG Version: 6.00 Build 0)  -->
<!DOCTYPE svg PUBLIC "-//W3C//DTD SVG 1.1//EN" "http://www.w3.org/Graphics/SVG/1.1/DTD/svg11.dtd">
<svg version="1.1" id="Layer_1" xmlns="http://www.w3.org/2000/svg" xmlns:xlink="http://www.w3.org/1999/xlink" x="0px" y="0px"
	 width="72px" height="72px" viewBox="0 0 72 72" enable-background="new 0 0 72 72" xml:space="preserve">
<g>
	
		<rect x="52.363" y="19.845" transform="matrix(0.7496 -0.6618 0.6618 0.7496 -4.3711 43.1232)" fill="#FFFFFF" width="4.905" height="14.988"/>
	
		<rect x="13.383" y="21.716" transform="matrix(-0.7496 -0.6618 0.6618 -0.7496 9.0815 59.7175)" fill="#FFFFFF" width="4.905" height="12.85"/>
	<path fill="#FABF62" d="M37.01,52.35l0.071-0.065C37.091,52.268,37.01,52.35,37.01,52.35"/>
	<path fill="#2A267A" d="M50.711,44.257c-0.225,0-0.447-0.098-0.601-0.284c-0.271-0.332-0.223-0.819,0.108-1.092
		c2.28-1.867,3.154-3.626,3.927-5.177c0.64-1.288,1.244-2.505,2.509-3.411c0.349-0.25,0.833-0.17,1.083,0.179
		s0.17,0.832-0.178,1.082c-0.952,0.683-1.426,1.636-2.025,2.841c-0.8,1.607-1.794,3.608-4.332,5.687
		C51.059,44.199,50.884,44.257,50.711,44.257"/>
	<path fill="#2A267A" d="M25.698,51.02c-0.667,0-1.294-0.258-1.765-0.728l-0.748-0.747c-0.47-0.471-0.728-1.098-0.728-1.765
		s0.258-1.293,0.728-1.763l2.979-2.978c0.469-0.47,1.095-0.729,1.763-0.729c0.667,0,1.293,0.259,1.764,0.729l0.747,0.748
		c0.47,0.471,0.729,1.097,0.729,1.763c0,0.667-0.259,1.294-0.729,1.764l-2.978,2.978C26.99,50.762,26.365,51.02,25.698,51.02
		 M27.927,43.863c-0.253,0-0.489,0.098-0.665,0.273l-2.979,2.978c-0.176,0.177-0.274,0.414-0.274,0.666
		c0,0.253,0.099,0.489,0.274,0.666l0.748,0.748c0.354,0.354,0.979,0.355,1.332,0l2.978-2.977c0.177-0.178,0.273-0.414,0.273-0.667
		c0-0.252-0.097-0.489-0.273-0.666l-0.748-0.748C28.416,43.961,28.18,43.863,27.927,43.863"/>
	<path fill="#2A267A" d="M22.566,47.844c-0.639,0-1.277-0.243-1.764-0.729l-0.748-0.748c-0.972-0.974-0.972-2.555,0-3.526
		l1.103-1.104c0.972-0.972,2.554-0.972,3.525,0l0.749,0.749c0.972,0.972,0.972,2.554,0,3.525l-1.104,1.104
		C23.843,47.601,23.204,47.844,22.566,47.844 M22.92,42.561c-0.253,0-0.489,0.099-0.665,0.274l-1.104,1.103
		c-0.367,0.367-0.366,0.965,0.001,1.332l0.748,0.748c0.353,0.354,0.979,0.354,1.332,0l1.102-1.103
		c0.177-0.177,0.274-0.413,0.274-0.666c0-0.252-0.098-0.489-0.274-0.666l-0.748-0.748C23.41,42.659,23.173,42.561,22.92,42.561"/>
	<path fill="#2A267A" d="M34.309,54.897c-0.814,0-1.574-0.313-2.141-0.878c-1.028-1.029-1.175-2.646-0.349-3.846
		c0.084-0.14,0.209-0.283,0.33-0.411l1.34-1.342c0.57-0.571,1.331-0.885,2.141-0.885c0.595,0,1.17,0.171,1.664,0.494
		c0.016,0.011,0.031,0.022,0.047,0.035c0.143,0.095,0.276,0.209,0.423,0.354c0.125,0.126,0.237,0.26,0.346,0.413
		c0.839,1.206,0.693,2.827-0.344,3.859l-1.32,1.325c-0.153,0.153-0.306,0.274-0.47,0.374C35.515,54.713,34.925,54.897,34.309,54.897
		 M35.63,49.088c-0.396,0-0.766,0.152-1.044,0.43l-1.321,1.322c-0.045,0.048-0.108,0.119-0.144,0.178
		c-0.426,0.619-0.355,1.405,0.144,1.904c0.477,0.478,1.304,0.561,1.864,0.169c0.101-0.063,0.154-0.106,0.219-0.171l1.319-1.325
		c0.001-0.002,0.002-0.003,0.003-0.004c0.496-0.491,0.567-1.295,0.168-1.868c-0.05-0.07-0.105-0.141-0.171-0.206
		c-0.077-0.076-0.141-0.131-0.203-0.172c-0.013-0.009-0.024-0.019-0.038-0.027C36.19,49.167,35.915,49.088,35.63,49.088"/>
	<path fill="#2A267A" d="M28.944,54.128c-0.64,0-1.278-0.243-1.764-0.728l-0.749-0.75c-0.972-0.972-0.972-2.554,0-3.525L30,45.558
		c0.972-0.972,2.554-0.972,3.525,0l0.748,0.748c0.973,0.973,0.973,2.554,0,3.525L30.706,53.4
		C30.22,53.885,29.582,54.128,28.944,54.128 M31.763,46.379c-0.241,0-0.481,0.093-0.666,0.275l-3.566,3.568
		c-0.368,0.367-0.368,0.965,0,1.331l0.748,0.748c0.366,0.367,0.964,0.367,1.33,0l3.568-3.567c0.367-0.367,0.367-0.963,0-1.331
		l-0.749-0.749C32.245,46.472,32.003,46.379,31.763,46.379"/>
	<path fill="#2A267A" d="M57.438,35.772c-0.217,0-0.433-0.09-0.586-0.266L46.73,23.894c-0.274-0.315-0.25-0.794,0.06-1.079
		l3.625-3.35c0.313-0.291,0.804-0.271,1.095,0.043c0.291,0.315,0.271,0.806-0.043,1.097l-3.071,2.838l9.132,10.477l3.781-3.105
		c0.332-0.271,0.82-0.225,1.093,0.106c0.271,0.332,0.225,0.82-0.107,1.092l-4.364,3.585C57.787,35.715,57.611,35.772,57.438,35.772"
		/>
	<path fill="#2A267A" d="M20.323,43.62c-0.178,0-0.355-0.062-0.503-0.186l-0.209-0.179c-0.871-0.743-0.963-0.821-1.415-1.275
		c-1.415-1.407-2.276-2.937-2.872-4.111c-0.206-0.407-0.395-0.802-0.573-1.178c-0.357-0.751-0.667-1.399-1.008-1.903
		c-0.024-0.038-0.048-0.078-0.065-0.12l-0.017-0.012c-0.257-0.344-0.187-0.829,0.157-1.086c0.343-0.257,0.83-0.185,1.086,0.156
		c0.041,0.057,0.101,0.135,0.153,0.236c0.395,0.593,0.734,1.306,1.094,2.061c0.174,0.366,0.357,0.749,0.558,1.145
		c0.541,1.072,1.324,2.462,2.582,3.714c0.412,0.412,0.465,0.456,1.328,1.193l0.209,0.18c0.326,0.278,0.364,0.768,0.086,1.095
		C20.761,43.527,20.543,43.62,20.323,43.62"/>
	<path fill="#2A267A" d="M35.32,25.18c-0.158,0-0.315-0.048-0.454-0.146c-1.663-1.206-3.907-1.549-6.001-0.916
		c-0.16,0.046-0.291,0.085-0.423,0.119c-0.416,0.103-0.837-0.15-0.939-0.565c-0.105-0.416,0.147-0.837,0.563-0.94
		c0.109-0.027,0.218-0.061,0.327-0.093c2.581-0.776,5.332-0.349,7.384,1.14c0.347,0.251,0.425,0.735,0.173,1.082
		C35.799,25.07,35.561,25.18,35.32,25.18"/>
	<path fill="#2A267A" d="M46.175,50.912c-0.81,0-1.567-0.312-2.137-0.882c-0.303-0.304-0.303-0.794,0-1.097
		c0.303-0.304,0.794-0.304,1.097,0c0.553,0.551,1.527,0.552,2.08,0c0.303-0.304,0.794-0.304,1.097,0
		c0.303,0.302,0.303,0.793,0,1.097C47.743,50.601,46.984,50.912,46.175,50.912"/>
	<path fill="#2A267A" d="M42.787,54.035c-0.811,0-1.616-0.279-2.194-0.843l-3.078-2.565c-0.33-0.273-0.373-0.763-0.1-1.092
		c0.274-0.329,0.765-0.373,1.092-0.1l3.104,2.586c0.019,0.015,0.035,0.031,0.052,0.048c0.563,0.564,1.729,0.55,2.308-0.028
		c0.572-0.572,0.572-1.507,0-2.08l-5.452-5.05c-0.314-0.291-0.333-0.782-0.042-1.096c0.292-0.315,0.782-0.333,1.097-0.042
		l5.472,5.07c1.2,1.198,1.2,3.115,0.021,4.295C44.468,53.735,43.625,54.035,42.787,54.035"/>
	<path fill="#2A267A" d="M13.503,35.702c-0.182,0-0.364-0.063-0.511-0.191l-3.421-2.997c-0.322-0.283-0.354-0.772-0.072-1.095
		c0.282-0.321,0.773-0.355,1.095-0.071l2.852,2.497l7.962-8.646c0.291-0.314,0.782-0.335,1.096-0.045
		c0.315,0.29,0.336,0.78,0.046,1.096l-8.475,9.202C13.922,35.618,13.712,35.702,13.503,35.702"/>
	<path fill="#2A267A" d="M50.423,44.084c-0.2,0-0.399-0.077-0.552-0.23L37.521,31.324c-0.326-0.329-0.836-0.338-1.165-0.022
		c-0.988,0.945-2.391,2.282-3.274,3.125l-0.82,0.782c-0.539,0.519-1.247,0.787-1.999,0.776c-0.751-0.017-1.447-0.324-1.964-0.865
		l-0.3-0.313c-0.096-0.105-0.173-0.197-0.237-0.291c-0.827-1.122-0.692-2.694,0.315-3.667l6.482-6.2
		c0.331-0.316,0.688-0.611,1.06-0.877c2.049-1.483,4.8-1.911,7.354-1.143c1.738,0.527,3.094,0.59,4.26,0.202
		c0.408-0.137,0.846,0.084,0.98,0.49c0.136,0.407-0.084,0.846-0.49,0.981c-1.488,0.495-3.14,0.436-5.197-0.188
		c-2.096-0.63-4.338-0.288-6.001,0.917c-0.317,0.226-0.615,0.473-0.893,0.739l-6.479,6.195c-0.45,0.435-0.51,1.139-0.136,1.638
		c0.011,0.014,0.022,0.029,0.032,0.045c0.023,0.038,0.057,0.067,0.086,0.102l0.285,0.297c0.231,0.242,0.541,0.379,0.877,0.387
		c0.326,0.009,0.649-0.115,0.89-0.345l0.824-0.786c0.884-0.842,2.284-2.179,3.271-3.121c0.93-0.894,2.429-0.872,3.338,0.048
		l0.223,0.221l12.134,12.313c0.302,0.304,0.298,0.796-0.008,1.096C50.817,44.01,50.62,44.084,50.423,44.084"/>
	<path fill="#2A267A" d="M38.633,55.049c-0.275,0-0.565-0.043-0.867-0.144c-1.309-0.437-1.887-1.244-1.947-1.335
		c-0.241-0.354-0.149-0.835,0.206-1.077c0.349-0.238,0.827-0.151,1.07,0.197c0.025,0.033,0.368,0.478,1.161,0.742
		c0.962,0.319,1.669-0.689,1.698-0.732c0.241-0.352,0.723-0.445,1.076-0.205c0.353,0.239,0.448,0.715,0.212,1.07
		C40.855,54.145,39.89,55.049,38.633,55.049"/>
	<path fill="#FFFFFF" d="M58.124,56.57c-0.189,0-0.381-0.068-0.53-0.209L14.13,15.63c-0.313-0.293-0.329-0.784-0.035-1.097
		c0.294-0.313,0.784-0.328,1.096-0.036l43.464,40.731c0.313,0.293,0.329,0.784,0.036,1.097C58.537,56.488,58.331,56.57,58.124,56.57
		"/>
	<path fill="#2A267A" d="M33.452,66.869c-0.021,0-0.044-0.001-0.066-0.003c-0.389-0.032-0.775-0.072-1.158-0.119
		c-0.427-0.052-0.729-0.439-0.677-0.864s0.435-0.722,0.864-0.676c0.365,0.045,0.732,0.082,1.101,0.113
		c0.428,0.036,0.744,0.412,0.709,0.838C34.19,66.563,33.851,66.869,33.452,66.869 M28.604,66.062c-0.063,0-0.128-0.008-0.191-0.024
		c-0.378-0.094-0.753-0.197-1.126-0.305c-0.411-0.12-0.647-0.552-0.528-0.963c0.121-0.411,0.552-0.646,0.963-0.528
		c0.354,0.104,0.711,0.202,1.07,0.292c0.416,0.104,0.668,0.526,0.563,0.941C29.266,65.827,28.949,66.062,28.604,66.062
		 M23.944,64.471c-0.104,0-0.209-0.021-0.312-0.064c-0.356-0.156-0.71-0.318-1.061-0.487c-0.385-0.185-0.547-0.649-0.361-1.035
		c0.187-0.387,0.649-0.547,1.035-0.362c0.333,0.16,0.669,0.314,1.008,0.464c0.394,0.17,0.572,0.628,0.4,1.021
		C24.527,64.297,24.242,64.471,23.944,64.471 M19.61,62.143c-0.146,0-0.291-0.04-0.421-0.125c-0.327-0.211-0.65-0.428-0.969-0.652
		c-0.351-0.246-0.434-0.73-0.188-1.081c0.247-0.351,0.73-0.434,1.081-0.188c0.302,0.212,0.607,0.418,0.918,0.619
		c0.359,0.232,0.462,0.713,0.229,1.072C20.112,62.018,19.863,62.143,19.61,62.143 M15.711,59.144c-0.186,0-0.373-0.066-0.521-0.201
		c-0.288-0.261-0.571-0.527-0.849-0.799c-0.307-0.299-0.313-0.79-0.014-1.097c0.301-0.306,0.791-0.312,1.098-0.013
		c0.266,0.258,0.533,0.511,0.808,0.759c0.316,0.288,0.34,0.779,0.052,1.097C16.132,59.058,15.922,59.144,15.711,59.144
		 M12.35,55.557c-0.229,0-0.453-0.101-0.607-0.293c-0.241-0.304-0.477-0.611-0.708-0.925c-0.254-0.345-0.179-0.83,0.165-1.085
		c0.344-0.254,0.83-0.181,1.085,0.165c0.219,0.298,0.442,0.591,0.672,0.879c0.267,0.335,0.211,0.823-0.124,1.09
		C12.69,55.501,12.519,55.557,12.35,55.557 M9.613,51.475c-0.272,0-0.536-0.144-0.679-0.397c-0.188-0.338-0.369-0.679-0.547-1.026
		c-0.193-0.381-0.043-0.849,0.339-1.043c0.381-0.195,0.849-0.044,1.044,0.338c0.168,0.329,0.341,0.654,0.52,0.976
		c0.209,0.375,0.075,0.847-0.3,1.056C9.871,51.444,9.741,51.475,9.613,51.475 M7.577,47.005c-0.318,0-0.616-0.197-0.729-0.514
		c-0.132-0.364-0.256-0.732-0.374-1.104c-0.13-0.408,0.096-0.845,0.506-0.975c0.405-0.13,0.844,0.096,0.973,0.505
		c0.113,0.353,0.23,0.702,0.354,1.049c0.146,0.403-0.063,0.849-0.467,0.992C7.753,46.99,7.664,47.005,7.577,47.005 M6.298,42.258
		c-0.367,0-0.693-0.262-0.763-0.637c-0.069-0.38-0.132-0.762-0.188-1.149c-0.062-0.424,0.232-0.817,0.657-0.879
		c0.42-0.063,0.816,0.232,0.878,0.656c0.055,0.366,0.113,0.73,0.181,1.093c0.076,0.421-0.202,0.825-0.623,0.903
		C6.392,42.253,6.344,42.258,6.298,42.258"/>
	<path fill="#2A267A" d="M36.978,66.958c-0.416,0-0.761-0.331-0.773-0.751c-0.016-0.428,0.32-0.787,0.75-0.8
		c7.854-0.256,15.14-3.553,20.514-9.288c5.375-5.734,8.194-13.219,7.939-21.073c-0.015-0.429,0.321-0.787,0.75-0.801
		c0.408-0.031,0.786,0.321,0.801,0.75c0.268,8.269-2.7,16.149-8.357,22.185c-5.658,6.037-13.327,9.51-21.597,9.777
		C36.996,66.958,36.986,66.958,36.978,66.958"/>
	<path fill="#2A267A" d="M65.858,32.253c-0.377,0-0.708-0.276-0.766-0.661c-0.056-0.366-0.117-0.73-0.185-1.092
		c-0.08-0.421,0.196-0.825,0.617-0.906c0.423-0.078,0.827,0.196,0.906,0.619c0.072,0.379,0.138,0.762,0.195,1.148
		c0.063,0.424-0.229,0.818-0.652,0.882C65.936,32.25,65.896,32.253,65.858,32.253 M64.734,27.466c-0.326,0-0.631-0.208-0.737-0.537
		c-0.114-0.352-0.234-0.7-0.361-1.046c-0.146-0.403,0.062-0.849,0.463-0.996c0.402-0.146,0.849,0.06,0.995,0.463
		c0.133,0.364,0.259,0.73,0.379,1.101c0.133,0.408-0.091,0.846-0.498,0.978C64.895,27.453,64.814,27.466,64.734,27.466
		 M62.846,22.93c-0.28,0-0.552-0.152-0.688-0.419c-0.17-0.328-0.347-0.652-0.527-0.973c-0.211-0.373-0.079-0.847,0.293-1.057
		c0.373-0.211,0.847-0.081,1.058,0.293c0.19,0.337,0.374,0.678,0.555,1.023c0.195,0.38,0.047,0.848-0.332,1.045
		C63.088,22.901,62.966,22.93,62.846,22.93 M60.243,18.763c-0.238,0-0.473-0.108-0.623-0.313c-0.222-0.296-0.447-0.588-0.679-0.874
		c-0.269-0.334-0.216-0.821,0.118-1.092c0.334-0.268,0.822-0.215,1.091,0.119c0.243,0.302,0.481,0.609,0.714,0.92
		c0.256,0.345,0.184,0.83-0.16,1.086C60.565,18.714,60.404,18.763,60.243,18.763 M56.996,15.07c-0.195,0-0.389-0.072-0.54-0.218
		c-0.265-0.257-0.535-0.508-0.81-0.755c-0.318-0.286-0.346-0.776-0.06-1.095c0.286-0.319,0.778-0.346,1.096-0.06
		c0.289,0.26,0.573,0.524,0.854,0.794c0.307,0.298,0.315,0.789,0.018,1.097C57.401,14.991,57.199,15.07,56.996,15.07 M53.196,11.949
		c-0.153,0-0.308-0.045-0.442-0.139c-0.303-0.21-0.611-0.415-0.922-0.613c-0.36-0.231-0.466-0.711-0.235-1.07
		c0.231-0.363,0.711-0.468,1.071-0.237c0.327,0.209,0.65,0.425,0.97,0.646c0.354,0.244,0.44,0.728,0.195,1.079
		C53.683,11.833,53.441,11.949,53.196,11.949 M48.938,9.483c-0.11,0-0.225-0.024-0.333-0.075c-0.332-0.159-0.669-0.311-1.009-0.457
		c-0.394-0.169-0.575-0.625-0.406-1.02c0.169-0.393,0.623-0.576,1.02-0.405c0.357,0.153,0.712,0.314,1.063,0.481
		c0.388,0.183,0.552,0.646,0.367,1.033C49.507,9.32,49.229,9.483,48.938,9.483 M44.339,7.742c-0.071,0-0.143-0.01-0.215-0.029
		c-0.355-0.103-0.712-0.198-1.072-0.286c-0.416-0.103-0.67-0.523-0.568-0.939c0.103-0.415,0.521-0.669,0.939-0.567
		c0.379,0.093,0.755,0.193,1.129,0.301c0.412,0.119,0.65,0.548,0.532,0.959C44.987,7.521,44.676,7.742,44.339,7.742 M39.515,6.778
		c-0.03,0-0.061-0.002-0.092-0.006c-0.364-0.042-0.731-0.078-1.099-0.106c-0.429-0.033-0.747-0.406-0.715-0.833
		c0.033-0.428,0.408-0.76,0.833-0.714c0.39,0.03,0.776,0.067,1.162,0.112c0.426,0.05,0.729,0.436,0.681,0.861
		C40.239,6.487,39.903,6.778,39.515,6.778"/>
	<path fill="#2A267A" d="M5.816,37.755c-0.417,0-0.762-0.331-0.774-0.751C4.487,19.934,17.924,5.596,34.994,5.042
		c0.427-0.021,0.787,0.32,0.802,0.75c0.013,0.428-0.322,0.786-0.75,0.8C18.83,7.118,6.065,20.738,6.592,36.954
		c0.015,0.428-0.321,0.786-0.75,0.8C5.834,37.755,5.825,37.755,5.816,37.755"/>
</g>
</svg>
