<?xml version="1.0" encoding="utf-8"?>
<!-- Generator: Adobe Illustrator 16.0.0, SVG Export Plug-In . SVG Version: 6.00 Build 0)  -->
<!DOCTYPE svg PUBLIC "-//W3C//DTD SVG 1.1//EN" "http://www.w3.org/Graphics/SVG/1.1/DTD/svg11.dtd">
<svg version="1.1" id="Layer_1" xmlns="http://www.w3.org/2000/svg" xmlns:xlink="http://www.w3.org/1999/xlink" x="0px" y="0px"
	 width="19.967px" height="19.813px" viewBox="0 0 19.967 19.813" enable-background="new 0 0 19.967 19.813" xml:space="preserve">
<g>
	<g>
		<path fill="#E8564B" d="M9.983,9.738c-2.697,0-4.891-2.195-4.891-4.893c0-2.698,2.194-4.893,4.891-4.893
			c2.698,0,4.893,2.195,4.893,4.893C14.875,7.543,12.681,9.738,9.983,9.738z M9.983,1.452c-1.87,0-3.392,1.522-3.392,3.393
			c0,1.871,1.521,3.393,3.392,3.393c1.871,0,3.393-1.522,3.393-3.393C13.375,2.974,11.854,1.452,9.983,1.452z"/>
	</g>
	<g>
		<path fill="#E8564B" d="M18.018,19.861H1.975c-0.36,0-0.694-0.256-0.762-0.609c-0.022-0.115-0.519-2.848,1.135-5.203
			c1.134-1.617,2.974-2.64,5.465-3.039c0.242-0.041,0.479,0.041,0.649,0.21l1.521,1.521l1.521-1.521
			c0.17-0.169,0.408-0.252,0.649-0.21c2.491,0.399,4.331,1.422,5.466,3.038c1.653,2.356,1.157,5.089,1.135,5.204
			C18.688,19.605,18.378,19.861,18.018,19.861z M2.632,18.361h14.703c0.026-0.793-0.074-2.221-0.953-3.465
			c-0.84-1.188-2.216-1.974-4.094-2.34l-1.762,1.761c-0.217,0.216-0.544,0.278-0.824,0.16c-0.088-0.038-0.214-0.111-0.282-0.18
			l-1.742-1.741c-1.878,0.366-3.254,1.152-4.093,2.34C2.706,16.14,2.605,17.568,2.632,18.361z"/>
	</g>
</g>
</svg>
