<?xml version="1.0" encoding="utf-8"?>
<!-- Generator: Adobe Illustrator 16.0.0, SVG Export Plug-In . SVG Version: 6.00 Build 0)  -->
<!DOCTYPE svg PUBLIC "-//W3C//DTD SVG 1.1//EN" "http://www.w3.org/Graphics/SVG/1.1/DTD/svg11.dtd">
<svg version="1.1" id="Layer_1" xmlns="http://www.w3.org/2000/svg" xmlns:xlink="http://www.w3.org/1999/xlink" x="0px" y="0px"
	 width="19.967px" height="19.813px" viewBox="0 0 19.967 19.813" enable-background="new 0 0 19.967 19.813" xml:space="preserve">
<g>
	<path fill="#818181" d="M8.271,19.591c-0.804,0-1.555-0.315-2.116-0.888l-5.065-5.152c-0.556-0.564-0.858-1.312-0.852-2.104
		c0.007-0.792,0.321-1.534,0.886-2.09l8.424-8.283c0.558-0.549,1.297-0.852,2.079-0.852l5.486,0.046
		c1.497,0.012,2.516,0.812,2.595,2.038c0.038,0.592,0.019,1.187,0,1.762c-0.009,0.27-0.017,0.539-0.02,0.805L19.66,8.364
		c-0.005,0.793-0.32,1.536-0.887,2.092l-8.423,8.285C9.792,19.289,9.054,19.591,8.271,19.591z M11.639,1.722
		c-0.393,0-0.768,0.154-1.039,0.421l-8.424,8.283c-0.279,0.274-0.436,0.642-0.439,1.033c-0.003,0.392,0.146,0.761,0.421,1.04
		l5.067,5.153c0.548,0.558,1.516,0.568,2.071,0.019l8.424-8.286c0.28-0.274,0.436-0.641,0.438-1.032l0.029-3.494
		c0.003-0.278,0.012-0.559,0.021-0.84c0.019-0.564,0.035-1.098,0.003-1.617c-0.038-0.58-0.86-0.632-1.111-0.634L11.639,1.722
		L11.639,1.722z"/>
</g>
</svg>
