<?xml version="1.0" encoding="utf-8"?>
<!-- Generator: Adobe Illustrator 16.0.0, SVG Export Plug-In . SVG Version: 6.00 Build 0)  -->
<!DOCTYPE svg PUBLIC "-//W3C//DTD SVG 1.1//EN" "http://www.w3.org/Graphics/SVG/1.1/DTD/svg11.dtd">
<svg version="1.1" id="Layer_1" xmlns="http://www.w3.org/2000/svg" xmlns:xlink="http://www.w3.org/1999/xlink" x="0px" y="0px"
	 width="72px" height="72px" viewBox="0 0 72 72" enable-background="new 0 0 72 72" xml:space="preserve">
<g>
	<path fill="#FFFFFF" d="M43.021,25.791l2.394-2.391c0.188-0.189,0.188-0.495,0-0.685l-2.394-2.391
		c-0.188-0.189-0.188-0.495,0-0.683l2.525-2.525c0.188-0.188,0.495-0.188,0.684,0l2.392,2.391c0.188,0.189,0.494,0.189,0.683,0
		l2.392-2.391c0.188-0.188,0.494-0.188,0.683,0l2.524,2.525c0.189,0.188,0.189,0.493,0,0.683l-2.391,2.392
		c-0.188,0.188-0.188,0.494,0,0.684l2.391,2.391c0.189,0.188,0.189,0.495,0,0.685l-2.524,2.522c-0.188,0.189-0.494,0.189-0.683,0
		l-2.392-2.391c-0.188-0.188-0.495-0.188-0.683,0l-2.392,2.392c-0.188,0.188-0.495,0.188-0.684,0l-2.525-2.523
		C42.833,26.286,42.833,25.979,43.021,25.791"/>
	<path fill="#2A267A" d="M30.478,66.959c-6.388,0-12.493-2.376-17.195-6.691l-0.11-0.101H5.863c-0.465,0-0.842-0.377-0.842-0.841
		s0.377-0.841,0.842-0.841h7.642c0.218,0,0.424,0.082,0.581,0.231c4.439,4.23,10.26,6.561,16.392,6.561h15.758
		c1.399,0,2.54-1.14,2.54-2.541c0-1.417-1.141-2.569-2.54-2.569h-8.212c-0.464,0-0.842-0.377-0.842-0.841s0.378-0.841,0.842-0.841
		h15.588c1.4,0,2.541-1.14,2.541-2.541c0-1.4-1.141-2.54-2.541-2.54H39.396l-0.103,0.079c-0.941,0.719-2.067,1.099-3.258,1.099
		c-1.438,0-2.791-0.562-3.809-1.578c-1.927-1.927-2.109-4.996-0.424-7.139l3.208-4.075l-6.107-6.111
		c-0.433-0.43-0.668-1.003-0.668-1.612c0-0.52,0.17-1.009,0.493-1.416l0.496-0.623H26.14c-1.466,0-2.912,0.495-4.068,1.395
		l-8.086,6.282c-0.148,0.113-0.331,0.177-0.518,0.177H5.863c-0.465,0-0.842-0.378-0.842-0.841c0-0.464,0.377-0.842,0.842-0.842
		h7.315l7.859-6.104c1.452-1.128,3.264-1.749,5.101-1.749h4.873l1.241-1.24l-0.178-0.263c-1.77-2.619-1.431-6.144,0.806-8.38
		l2.919-2.92c0.159-0.159,0.371-0.246,0.596-0.246s0.436,0.087,0.595,0.246c0.329,0.329,0.329,0.861,0,1.189l-2.919,2.921
		c-0.932,0.93-1.444,2.169-1.444,3.488c0,1.318,0.512,2.558,1.443,3.488l9.319,9.322c0.933,0.931,2.171,1.443,3.489,1.443
		s2.557-0.513,3.489-1.445l13.485-13.484c0.931-0.93,1.443-2.17,1.443-3.49c0-1.319-0.513-2.559-1.444-3.489l-9.317-9.319
		c-0.932-0.931-2.171-1.443-3.49-1.443s-2.558,0.513-3.489,1.443l-2.769,2.769c-0.159,0.159-0.37,0.246-0.594,0.246
		c-0.226,0-0.437-0.087-0.596-0.246s-0.246-0.37-0.246-0.595s0.087-0.436,0.246-0.594l2.769-2.77
		c1.248-1.248,2.91-1.936,4.679-1.936c1.77,0,3.432,0.688,4.68,1.936l9.319,9.318c2.579,2.581,2.579,6.779-0.001,9.358
		L52.499,38.198h1.112c2.328,0,4.222,1.894,4.222,4.222c0,0.687-0.17,1.371-0.492,1.976l-0.3,0.564h0.818
		c2.327,0,4.221,1.894,4.221,4.223c0,2.328-1.894,4.222-4.221,4.222h-0.818l0.3,0.564c0.322,0.607,0.492,1.29,0.492,1.976
		c0,2.328-1.894,4.223-4.222,4.223h-3.947l0.301,0.564c0.321,0.604,0.491,1.287,0.491,1.976c0,2.344-1.894,4.252-4.221,4.252H30.478
		z M33.126,46.906c-1.159,1.473-1.034,3.583,0.291,4.908c0.699,0.698,1.629,1.083,2.619,1.083c0.991,0,1.92-0.385,2.619-1.083
		c1.323-1.325,1.449-3.436,0.291-4.908l-2.91-3.697L33.126,46.906z M41.026,47.171c0.524,1.295,0.528,2.724,0.01,4.025l-0.211,0.526
		h17.034c1.4,0,2.539-1.14,2.539-2.54s-1.139-2.54-2.539-2.54H40.812L41.026,47.171z M39.566,43.118
		c-0.164,0.163-0.354,0.301-0.561,0.408l-0.41,0.216l0.96,1.219h14.056c1.4,0,2.541-1.14,2.541-2.54s-1.141-2.54-2.541-2.54h-2.935
		l-0.097,0.065c-1.091,0.74-2.371,1.132-3.701,1.132c-1.331,0-2.61-0.392-3.702-1.132l-0.263-0.178L39.566,43.118z M30.093,33.645
		c-0.113,0.113-0.176,0.264-0.176,0.423s0.063,0.309,0.176,0.422l7.438,7.438c0.111,0.114,0.262,0.176,0.422,0.176
		c0.161,0,0.31-0.062,0.423-0.177l3.306-3.304l-8.283-8.284L30.093,33.645z"/>
	<path fill="#FFFFFF" d="M33.126,46.965c-1.159,1.473-1.034,3.583,0.291,4.908c0.699,0.698,1.629,1.083,2.619,1.083
		s1.92-0.385,2.618-1.083c1.325-1.325,1.451-3.436,0.291-4.908l-2.909-3.697L33.126,46.965z"/>
	<path fill="#2A267A" d="M40.295,15.271c-0.272,0-0.54-0.109-0.73-0.302c-0.192-0.192-0.303-0.459-0.303-0.731
		s0.11-0.539,0.303-0.731c0.191-0.191,0.459-0.301,0.73-0.301s0.538,0.109,0.729,0.301c0.192,0.194,0.303,0.46,0.303,0.731
		c0,0.272-0.11,0.539-0.303,0.731S40.566,15.271,40.295,15.271"/>
	<path fill="#2A267A" d="M40.295,15.079c-0.223,0-0.438-0.09-0.596-0.245c-0.156-0.156-0.245-0.374-0.245-0.596
		c0-0.221,0.089-0.438,0.245-0.596c0.157-0.156,0.373-0.246,0.596-0.246s0.438,0.09,0.594,0.246
		c0.156,0.159,0.246,0.375,0.246,0.596c0,0.222-0.089,0.439-0.246,0.596C40.732,14.989,40.517,15.079,40.295,15.079"/>
</g>
</svg>
