<?xml version="1.0" encoding="utf-8"?>
<!-- Generator: Adobe Illustrator 16.0.0, SVG Export Plug-In . SVG Version: 6.00 Build 0)  -->
<!DOCTYPE svg PUBLIC "-//W3C//DTD SVG 1.1//EN" "http://www.w3.org/Graphics/SVG/1.1/DTD/svg11.dtd">
<svg version="1.1" id="Layer_1" xmlns="http://www.w3.org/2000/svg" xmlns:xlink="http://www.w3.org/1999/xlink" x="0px" y="0px"
	 width="375.016px" height="370.367px" viewBox="0 0 375.016 370.367" enable-background="new 0 0 375.016 370.367"
	 xml:space="preserve">
<g>
	<path fill="#DDDDED" d="M280.738,177.31c-17.746-0.976-34.896-1.641-52.042-6.98c-31.446-9.795-61.292-27.308-80.679-54.498
		c-9.943-13.947-12.768-31.782-21.989-46.313c-3.314-5.223-6.971-10.219-10.681-15.164c-6.225-8.296-13.06-16.161-20.656-23.231
		C78.082,15.662,59.826,6.738,37.735,2.284C32.85,1.299,0.057-3.335,0.016,4.351v365.885h375v-81.674
		C373.482,235.677,336.957,180.401,280.738,177.31z"/>
	<g opacity="0.4">
		<g>
			<defs>
				<rect id="SVGID_1_" x="0.016" y="241.698" width="183.842" height="128.668"/>
			</defs>
			<clipPath id="SVGID_2_">
				<use xlink:href="#SVGID_1_"  overflow="visible"/>
			</clipPath>
			<path clip-path="url(#SVGID_2_)" fill="#FFFFFF" d="M0.016,368.882V241.698c1.302,42.502,32.299,86.926,80.008,89.41
				c15.059,0.784,29.614,1.319,44.165,5.611c22.301,6.578,43.482,17.356,59.499,33.516L0,370.22L0.016,368.882z"/>
		</g>
	</g>
	<path fill="#FFFFFF" d="M375.016,286.841c-2.247-24.187-11.59-48.174-26.239-66.823c-17.684-22.513-41.837-35.704-68.012-37.144
		l-3.004-0.164c-16.868-0.914-32.799-1.776-48.916-6.796c-24.453-7.616-58.254-23.221-80.42-54.31
		c-5.224-7.328-8.54-15.919-11.747-24.228c-2.88-7.462-5.858-15.179-10.227-22.063c-3.36-5.294-7.13-10.432-10.704-15.195
		c-6.722-8.958-13.498-16.579-20.715-23.296C78.726,21.642,60.551,12.438,37.833,7.857C33.953,7.075,6.842,3.016,0.782,7.948
		C0.45,8.218,0.202,8.519,0,8.834v2.077c0.005,0,0.009,0.003,0.014,0.003c0,0,0.001,0,0.002,0c0.275,0,0.499-0.222,0.5-0.498
		c0.003-0.65,0.297-1.204,0.897-1.693C6.647,4.463,31.705,7.64,37.636,8.837C60.164,13.38,78.186,22.504,94.35,37.553
		c7.173,6.677,13.911,14.254,20.597,23.165c3.561,4.747,7.317,9.866,10.659,15.131c4.316,6.801,7.276,14.47,10.139,21.887
		c3.229,8.367,6.568,17.018,11.865,24.448c22.328,31.315,56.338,47.022,80.937,54.685c16.236,5.057,32.229,5.923,49.16,6.84
		l3.004,0.163c56.797,3.124,92.297,58.772,93.806,110.768c0.008,0.271,0.23,0.485,0.5,0.485V286.841z"/>
	<path fill="#FFFFFF" d="M375.016,292.524c-2.247-24.187-11.59-48.174-26.239-66.823c-17.684-22.513-41.837-35.704-68.012-37.143
		l-2.977-0.162c-16.877-0.913-32.818-1.775-48.943-6.798c-24.453-7.616-58.253-23.221-80.42-54.31
		c-5.224-7.329-8.54-15.919-11.747-24.228c-2.88-7.462-5.858-15.179-10.227-22.063c-3.356-5.289-7.128-10.429-10.704-15.195
		c-6.724-8.961-13.5-16.582-20.715-23.297C78.724,27.324,60.549,18.121,37.833,13.542C33.953,12.759,6.842,8.7,0.782,13.633
		c-0.332,0.27-0.58,0.57-0.782,0.886v2.077c0.005,0,0.009,0.003,0.014,0.003c0,0,0.001,0,0.002,0c0.275,0,0.499-0.222,0.5-0.498
		c0.003-0.65,0.297-1.204,0.897-1.693c5.234-4.26,30.292-1.083,36.223,0.114c22.526,4.542,40.548,13.666,56.714,28.715
		c7.171,6.675,13.909,14.252,20.597,23.166c3.563,4.75,7.321,9.871,10.659,15.131c4.316,6.801,7.276,14.47,10.139,21.888
		c3.229,8.366,6.568,17.017,11.865,24.448c22.329,31.315,56.338,47.022,80.937,54.684c16.245,5.059,32.247,5.925,49.188,6.841
		l2.976,0.162c56.797,3.124,92.297,58.771,93.806,110.767c0.008,0.271,0.23,0.485,0.5,0.485V292.524z"/>
	<path fill="#FFFFFF" d="M0.516,311.789c-0.008-0.276-0.259-0.484-0.515-0.485c0,0,0,0-0.001,0v7.397
		c1.952,18.542,9.395,36.952,20.957,51.534h1.267C9.067,353.932,1.155,332.649,0.516,311.789z"/>
	<path fill="#FFFFFF" d="M33.082,370.159C13.507,353.165,1.333,327.094,0.516,300.42c-0.008-0.276-0.259-0.466-0.515-0.485
		c0,0,0,0-0.001,0v7.588c2.526,24.078,14.051,47.055,31.667,62.712h1.474C33.121,370.21,33.107,370.181,33.082,370.159z"/>
	<g>
		<path fill="#FF8358" d="M252.433,162.371c1.146-0.584,2.396-0.958,3.503-1.616c1.797-1.068,8.229-8.04,10.168-10.504
			c1.818-2.311,2.839-4.977,6.44-5.525c2.783-0.422,7.299-0.238,5.171,3.416c-3.89,6.682-10.224,11.908-17.521,14.466
			c-0.789,0.273-1.602,0.529-2.277,1.019c-0.61,0.441-1.071,1.057-1.61,1.582c-2.126,2.077-5.556,2.691-8.267,1.479
			C249.025,164.849,250.577,163.323,252.433,162.371"/>
		<path fill="#FF8358" d="M277.113,148.313l-1.852,0.944c-1.826,0.938-4.064,0.396-5.268-1.269l-6.764-9.377l-1.246-1.729
			c-1.354-2.15-4.664-7.204-1.391-9.218c1.026-0.632,2.348-0.354,3.51-0.033c3.263,0.898,3.949,3.456,5.778,6.035l7.951,11.222
			C278.666,146.063,278.324,147.693,277.113,148.313"/>
		<g opacity="0.18">
			<g>
				<defs>
					<rect id="SVGID_3_" x="229.872" y="233.419" width="53.531" height="30.907"/>
				</defs>
				<clipPath id="SVGID_4_">
					<use xlink:href="#SVGID_3_"  overflow="visible"/>
				</clipPath>
				<path clip-path="url(#SVGID_4_)" fill="#647DDD" d="M275.563,237.945c-10.452-6.035-27.399-6.035-37.853,0
					s-10.453,15.82,0,21.855c10.453,6.034,27.4,6.034,37.853,0C286.016,253.766,286.016,243.98,275.563,237.945"/>
			</g>
		</g>
		<path fill="#3772CE" d="M270.796,252.869c-0.919,0.931-2.572,0.603-3.856,0.16c-0.939-0.324-1.944-0.677-2.949-1.087
			c-0.886-0.357-1.768-0.759-2.601-1.223c-1.46-0.813-2.76-1.813-3.626-3.093c-0.131-0.188-0.159-0.443-0.139-0.722
			c0.086-1.186,1.706-1.357,2.847-1.21c0.008,0,0.016,0.004,0.024,0.004l0.513,0.074l0.332,0.045l2.06,0.197
			c0.508,0.049,2.998-0.337,4.885-0.448l0.086-0.052c0.136-0.038,0.267-0.075,0.39-0.112c0.193,0.037,0.374,0.087,0.546,0.136
			c0.652,0.013,1.107,0.095,1.173,0.304c0.181,0.574,0.332,1.156,0.46,1.743c0.139,0.632,0.241,1.271,0.315,1.911
			c0.045,0.374,0.078,0.747,0.099,1.12C271.403,251.405,271.375,252.278,270.796,252.869"/>
		<path fill="#FFFFFF" d="M271.354,250.617c-0.024-0.39-0.039-0.765-0.154-1.132c-0.94,0.573-1.898,1.065-3.05,1.005
			c-0.651-0.033-1.284-0.221-1.91-0.407c-1.84-0.548-4.739-0.896-6.06-2.456c-0.192-0.226-0.39-0.468-0.468-0.755
			c-0.282-1.026,0.821-0.718,1.297-1.099l-0.513-0.074c-0.009,0-0.017-0.004-0.024-0.004c-1.141-0.147-2.761,0.024-2.847,1.21
			c-0.021,0.278,0.008,0.533,0.139,0.722c0.866,1.28,2.166,2.28,3.626,3.093c0.406,0.185,0.792,0.353,1.124,0.513
			c0.488,0.234,0.98,0.472,1.477,0.71c1.005,0.41,2.01,0.763,2.949,1.087c1.284,0.441,2.938,0.771,3.856-0.16
			C271.375,252.278,271.403,251.405,271.354,250.617"/>
		<path fill="#FF8358" d="M271.271,212.747c-0.05-0.205-0.078-0.414-0.074-0.628l0.318-41.731l0.004-0.275l-0.235-5.242
			c-0.248-0.738-0.587-1.46-1.025-2.149l-2.048-3.216c-4.397-1.242-9.032,0.641-11.27,4.964c-0.128,0.254-0.206,0.533-0.244,0.816
			c-1.095,4.364-1.629,8.855-1.591,13.355c0.004,0.414,0.012,0.808,0.016,1.16c0.017,0.743,0.042,1.329,0.075,1.637l2.464,22.844
			c0.013,0.077,0.024,0.155,0.037,0.233l3.907,19.012l2.108,11.473l1.823,9.923c0.034,0.186,0.025,0.39,0.013,0.597
			c-0.1,0.19-0.103,0.39-0.007,0.58c0.009,0.089,0.021,0.176,0.048,0.259c0.05,0.013,0.1,0.017,0.153,0.033
			c0.017,0.005,0.034,0.009,0.05,0.014c0.108,0.093,0.233,0.182,0.396,0.262c0.962,0.466,2.521,0.466,3.479,0
			c0.453-0.223,0.683-0.511,0.704-0.802c0.099-0.12,0.197-0.242,0.296-0.36c0.111-1.333,0.202-2.666,0.496-3.975
			c0.479-2.141,0.835-4.225,1.083-6.234C273.727,223.53,271.701,214.479,271.271,212.747 M266.231,246.645
			c-0.016-0.008-0.029-0.016-0.044-0.022C266.202,246.629,266.215,246.637,266.231,246.645c0.029,0.014,0.059,0.027,0.089,0.041
			C266.29,246.672,266.26,246.658,266.231,246.645"/>
		<path fill="#FF8358" d="M251.875,156.535c-3.367-1.065-4.28-3.911-6.696-1.485c-1.52,1.529-5.343,8.928-5.894,11.051
			c-8.721,33.581-2.749,59.004,14.319,76.868c0.857,0.897,2.42,0.096,3.583-0.253c0.212-0.066,0.437-0.14,0.592-0.31
			c0.285-0.313,0.227-0.811,0.146-1.238c-1.877-10.238-3.583-19.375-7.444-28.582c-0.711-1.699-1.504-3.402-2.379-5.112
			c-0.035-0.833-0.08-1.672-0.146-2.521c0-0.019-0.004-0.037-0.005-0.056l10.582-37.909
			C259.977,161.89,256.325,157.947,251.875,156.535"/>
		<path fill="#3772CE" d="M253.903,254.589l-0.322-9.99c0,0,0.322-4.513,3.384-4.352s3.544,2.74,3.544,2.74l-2.094,9.023
			L253.903,254.589z"/>
		<path fill="#FFFFFF" d="M254.164,256.28c1.245-0.155,3.352-0.606,5.058-1.923c0.614-0.474,0.98-1.201,1.018-1.976l0.271-5.688
			l0.645-2.578l-0.025-0.201c-0.17-1.358-1.324-2.378-2.692-2.378c-1.387,0-2.551,1.046-2.698,2.425l-0.385,6.6l-1.878,4.831
			C253.294,255.854,253.671,256.342,254.164,256.28"/>
		<path fill="#3772CE" d="M233.683,195.35c0,0,2.432,9.634,14.954,10.971c9.322,0.996,19.296-3.075,23.785-5.223
			c1.479-0.707,2.391-2.227,2.317-3.865l-0.808-17.858c0.028-8.765-1.682-17.448-5.032-25.546l-2.564-6.2l-18.881,2.444
			C247.455,150.072,234.521,164.372,233.683,195.35"/>
		<path fill="#D7E9F9" d="M269.575,135.433c-0.593,1.569-3.124,3.721-4.59,4.469c-2.232,1.143-4.147-1.528-5.912-3.234
			c-1.897-1.835-3.566-4.192-3.559-6.83c0-1.046,0.291-2.121,0.983-2.906c0.235-0.266,0.512-0.49,0.814-0.678
			c0.431-0.048,0.861-0.085,1.293-0.118c0.784-0.025,1.562,0,2.331,0.081c1.319,0.133,2.612,0.42,3.867,0.837
			c0.156,0.106,0.307,0.217,0.458,0.331c0.763,0.582,1.466,1.249,2.122,1.949C268.949,130.995,270.385,133.3,269.575,135.433"/>
		<path fill="#73B0DD" d="M252.756,126.825c0.008,0.013,0.017,0.024,0.021,0.037c-0.209,0.058-0.418,0.103-0.636,0.14
			c-0.045,0.008-0.09,0.016-0.136,0.021c-0.024-0.046-0.045-0.095-0.069-0.144L252.756,126.825z"/>
		<path fill="#D7E9F9" d="M263.043,149.062c-0.021,0.637-0.011,1.26,0.041,1.882c-0.015,0-0.081,0.206-0.155,0.442
			c0.004,0.247-0.036,0.497-0.136,0.74c-0.291,0.744-1.039,1.456-2.262,2.03c-2.336,1.101-5.739,1.407-8.672,0.906
			c-1.105-0.188-2.137-0.494-3.024-0.906c-1.091-0.513-1.816-1.128-2.17-1.782v-0.005c0,0-0.004,0-0.004-0.004h-0.099
			c-0.008-0.073-0.015-0.162-0.022-0.262c-0.147-0.379-0.177-0.77-0.089-1.156c-0.003-0.026-0.003-0.048-0.003-0.073
			c-0.009-0.107-0.015-0.218-0.022-0.328c-0.029-0.376-0.059-0.759-0.081-1.112c-0.008-0.074-0.011-0.147-0.015-0.222
			c-0.019-0.31-0.037-0.582-0.052-0.788c-0.005-0.063-0.007-0.122-0.011-0.17c0-0.025-0.004-0.047-0.004-0.069
			c-0.052-0.881-0.125-1.769-0.331-2.604c-0.078-0.314-0.178-0.62-0.303-0.915c0,0-0.004,0,0-0.004
			c-0.206-0.489-0.483-0.954-0.858-1.37c-0.287-0.505-0.601-0.987-0.913-1.461c-0.004-0.005,0-0.005,0-0.005
			c-0.347-0.534-0.689-1.068-0.983-1.628c-0.066-0.122-0.129-0.251-0.188-0.376c-0.059-0.129-0.114-0.258-0.169-0.391
			c-0.361-0.896-0.561-1.89-0.446-3.099c0.012-0.11,0.022-0.225,0.037-0.334c0.039-0.336,0.096-0.656,0.165-0.966
			c0.232-1.139,0.616-2.141,1.143-3.028c1.146-1.922,2.958-3.278,5.367-4.255c0.368-0.15,0.756-0.291,1.153-0.419
			c0.052-0.02,0.106-0.034,0.158-0.053c0.906-0.294,1.809-0.541,2.634-0.747c1.533-0.387,3.64-0.63,5.691-0.457
			c0.041,0.004,0.081,0.008,0.122,0.011c0.84,0.074,1.672,0.218,2.442,0.453c1.138,0.332,2.144,0.858,2.888,1.621
			c0.162,0.154,0.313,0.331,0.449,0.512c2.425,3.346,1.161,7.932,0.339,11.291C263.895,143.111,263.118,146.136,263.043,149.062"/>
		<g>
			<g>
				<defs>
					<rect id="SVGID_5_" x="242.039" y="134.054" width="8.507" height="21.01"/>
				</defs>
				<clipPath id="SVGID_6_">
					<use xlink:href="#SVGID_5_"  overflow="visible"/>
				</clipPath>
				<path clip-path="url(#SVGID_6_)" fill="#8DC0EF" d="M250.545,155.063c-0.912-0.188-1.768-0.492-2.5-0.906
					c-0.901-0.513-1.499-1.128-1.793-1.784c-0.104,0-0.208-0.004-0.314-0.004c-0.06-0.813-0.223-3.512-0.258-4.184
					c-0.089-1.76-0.248-3.553-1.287-4.89c-1.071-2.199-2.581-3.889-2.326-6.962c0.039-0.45,0.095-0.885,0.173-1.3
					c0.863-0.364,1.736-0.718,2.652-0.91c1.715-0.361,2.527,0.734,3.489,2.228c0.138,0.217,0.29,0.397,0.449,0.55l1.039,10.996
					l0.432,4.565L250.545,155.063z"/>
			</g>
		</g>
		<path fill="#FFFFFF" d="M259.345,127.588c0,0.262-0.07,0.516-0.202,0.752c-0.582,1.027-2.325,1.75-4.444,1.75
			c-2.6,0-4.641-1.098-4.641-2.502c0-0.106,0.012-0.21,0.037-0.31c0.906-0.295,1.809-0.541,2.634-0.747
			c1.533-0.387,3.64-0.631,5.691-0.457C259.006,126.49,259.345,127.01,259.345,127.588"/>
		<path fill="#FF8358" d="M241.281,155.369c-0.802,1.891-2.864,2.914-4.854,2.408l-2.017-0.512
			c-1.315-0.334-2.009-1.849-1.458-3.179l7.944-19.177c0.757-1.785,3.348-1.027,5.031-0.308c1.75,0.748,2.546,2.896,0.7,8.162
			L241.281,155.369z"/>
		<path fill="#FF8358" d="M238.771,157.237c-0.426,0.182-0.937,0.297-1.534,0.341c-4.563,0.341-8.092-3.355-10.847-6.539
			c-1.875-2.166-5.251-6.284-6.333-9.688c-0.218-0.681-0.345-1.329-0.348-1.933c-0.01-0.897,0.602-1.861,1.467-1.973
			c0.054-0.008,0.177,0.037,0.16-0.012c-0.144-0.357,0.09-0.238,0.537,0.155c1.153,1.002,3.696,3.778,4.586,4.5
			c2.231,1.817,5.238,4.229,7.646,5.804c0.037,0.025,0.074,0.05,0.111,0.074c0.181,0.115,0.36,0.226,0.541,0.333
			c2.276,1.365,4.627,2.3,5.415,5.528C240.563,155.502,240.073,156.681,238.771,157.237"/>
		<path fill="#D7E9F9" d="M245.506,129.923c-1.642,0.042-3.271,1.351-4.445,2.783c-1.841,2.246-2.379,4.279-3.357,6.999
			c0.312,0.519,0.786,0.936,1.465,1.19c1.307,0.491,2.613,0.981,3.92,1.473c0.813,0.305,2.002,1.943,2.753,1.707
			c0.665-0.209,1.082-0.937,1.406-1.625c0.587-1.245,1.075-2.549,1.459-3.89c0.436-1.522,0.736-3.143,0.499-4.721
			c-0.237-1.577-1.104-3.109-2.431-3.675C246.357,129.986,245.931,129.912,245.506,129.923"/>
		<path fill="#D7E9F9" d="M246.663,143.604c-0.268,0.957-2.545,0.997-5.088,0.091c-2.542-0.907-4.385-2.418-4.117-3.374
			s2.545-0.997,5.087-0.09C245.086,141.137,246.93,142.647,246.663,143.604"/>
		<path fill="#715154" d="M254.581,116.041c0.015,0,0.029,0.017,0.045,0.033c0.015-0.066,0.015-0.148,0.015-0.215
			C254.64,115.926,254.625,115.991,254.581,116.041"/>
		<path fill="#715154" d="M250.459,114.231c0.017,0,0.033,0.019,0.051,0.036c0.017-0.073,0.017-0.165,0.017-0.238
			C250.527,114.103,250.51,114.176,250.459,114.231"/>
		<path fill="#D7E9F9" d="M246.343,113.612c0.015,0,0.028,0.018,0.042,0.033c0.014-0.066,0.014-0.148,0.014-0.215
			C246.399,113.497,246.385,113.563,246.343,113.612"/>
		<path fill="#FF8358" d="M218.165,139.294c-1.006-1.479-1.895-3.622-1.171-5.352c0.472-1.131,1.764-1.733,2.495-2.706
			c0.378-0.502,0.927-0.828,1.548-0.916c0.113-0.017,0.226-0.024,0.338-0.024c0.504,0,0.993,0.162,1.403,0.47
			c2.274,0-0.902,7.428-1.133,8.132c-0.253,0.778-0.65,1.685-1.46,1.808c-0.741,0.113-1.375-0.519-1.817-1.124
			C218.299,139.488,218.232,139.393,218.165,139.294"/>
		<path fill="#3772CE" d="M226.649,136.8l-4.243,2.746c-0.413,0.228-1.253-0.169-1.382-0.653l-3.18-11.954
			c-0.129-0.484,0.103-1.061,0.516-1.288l4.643-2.558c0.414-0.228,1.356-0.074,1.485,0.409l2.677,12.01
			C227.293,135.995,227.063,136.572,226.649,136.8"/>
		<path fill="#1F3598" d="M227.218,136.92l-4.645,2.557c-0.412,0.228-0.852,0.021-0.98-0.464l-3.181-11.954
			c-0.128-0.484,0.103-1.061,0.516-1.288l4.644-2.558c0.413-0.228,0.853-0.02,0.981,0.464l3.18,11.955
			C227.862,136.115,227.631,136.692,227.218,136.92"/>
		<path fill="#3772CE" d="M225.953,134.794l-3.422,1.885c-0.297,0.163-0.611,0.015-0.703-0.332l-2.428-9.126
			c-0.093-0.346,0.073-0.759,0.369-0.922l3.422-1.885c0.296-0.163,0.611-0.014,0.703,0.332l2.428,9.126
			C226.414,134.218,226.249,134.631,225.953,134.794"/>
		<path fill="#F4F8F9" d="M225.185,136.465c0.078,0.294-0.063,0.646-0.313,0.782c-0.252,0.139-0.519,0.013-0.597-0.281
			s0.062-0.645,0.313-0.783C224.84,136.045,225.107,136.171,225.185,136.465"/>
		<path fill="#FF8358" d="M223.407,131.838c-0.38-0.409-1.021-0.432-1.429-0.052l-3.593,3.343c0.381,0.588,0.67,1.254,0.876,1.947
			l4.095-3.81C223.765,132.886,223.788,132.246,223.407,131.838"/>
		<path fill="#3772CE" d="M256.406,139.624l-3.387-7.129c-0.819-1.725-2.179-3.135-3.873-4.016l-1.573-0.818
			c-2.78,0.56-3.98,2.341-4.294,2.906l-0.093,0.178l0.387,0.201c2.966,1.542,5.347,4.01,6.78,7.029l1.753,3.691l2.15-1.021
			L256.406,139.624z"/>
		<path fill="#3772CE" d="M264.118,133.755l-6.917,2.099c-1.31,0.397-2.44,1.237-3.2,2.376c0,0-1.565,2.349-1.569,2.353
			l-0.542,17.67c0.273,2.372,0.364,4.786,0.387,7.151c0.008,0.844,0.42,1.634,1.104,2.128c1.991,1.438,3.799,2.394,5.087,2.394
			c0.271,0,0.548-0.017,0.835-0.046c2.416-0.259,4.79-1.253,7.012-2.184c1.913-0.801,4.452-1.337,6.15-2.424
			c3.521-2.254,2.647-7.603,2.647-11.107v-9.647c-0.487-5.029-3.376-8.14-5.653-9.841C267.93,133.533,265.944,133.2,264.118,133.755
			"/>
		<path fill="#3772CE" d="M266.983,138.464l-5.643-1.377l-0.472-10.648c1.123,0.1,2.229,0.284,3.313,0.544
			c0.695,0.167,1.241,0.622,1.52,1.204c0.037,0.078,0.074,0.136,0.11,0.16L266.983,138.464z"/>
		<path fill="#8DC0EF" d="M258.597,148.428c0.896,0.889,1.765,1.807,2.712,2.643c0.362,0.321,0.938,0.639,1.31,0.999
			c0.124,0.061,0.242,0.13,0.367,0.185c0.039,0.016,0.074,0.03,0.108,0.044c0.073,0.016,0.146,0.034,0.219,0.049
			c0.249,0.049,0.499,0.087,0.749,0.121c1.372-0.124,2.796-0.033,4.171-0.201c0.826-0.102,1.648-0.229,2.469-0.376
			c0.229-0.042,0.459-0.089,0.688-0.134c0.577-0.163,3.422-2.855,3.991-3.031l-0.185-1.842c0,0-3.021,4.119-8.505,4.394
			c-5.485,0.274-8.228-4.113-8.228-4.113s-0.556-0.054-1.246-0.023C257.691,147.56,258.153,147.987,258.597,148.428"/>
		<path fill="#8DC0EF" d="M259.301,169.879c-0.288,0.029-0.565,0.07-0.835,0.046c-8.118-0.736-11.266-10.967-13.377-14.507
			c-0.41-0.687-0.549-1.504-0.386-2.288l0.845-4.073c0.09-0.431,0.665-0.522,0.884-0.141l5.452,9.49l0.547-17.824l0.004-0.004
			c0.041-0.045,0.379-0.432,0.922-0.798c1.123-0.766,3.114-1.461,5.109,1.078C260.794,143.819,259.852,161.825,259.301,169.879"/>
		<path fill="#FF8358" d="M251.468,128.176c1.853,0.026,3.688,0.268,5.529,0.422c0.242-0.369,0.386-0.81,0.386-1.284v-10.858h-6.174
			v10.858c0,0.307,0.061,0.599,0.169,0.867C251.409,128.18,251.438,128.175,251.468,128.176"/>
		<path fill="#FF5E53" d="M257.383,116.455v7.933c-2.407-0.533-4.577-2.031-6.174-3.948v-3.984H257.383z"/>
		<path fill="#FF8358" d="M256.47,126.688c-1.2-0.693-3.146-0.693-4.348,0c-1.2,0.692-1.2,1.816,0,2.51
			c1.201,0.692,3.147,0.692,4.348,0C257.67,128.505,257.67,127.381,256.47,126.688"/>
		<path fill="#715154" d="M250.379,116.508c0.016,0,0.031,0.017,0.048,0.034c0.016-0.069,0.016-0.155,0.016-0.226
			C250.443,116.387,250.427,116.455,250.379,116.508"/>
		<path fill="#D7E9F9" d="M246.496,115.924c0.013,0,0.025,0.015,0.039,0.03c0.013-0.062,0.013-0.14,0.013-0.202
			C246.547,115.814,246.535,115.877,246.496,115.924"/>
		<path fill="#FF8358" d="M247.08,113.911c0.156,0.095,0.333,0.093,0.504,0.044c0.018-0.046,0.008-0.098,0.033-0.142L247.08,113.911
			z"/>
		<path fill="#FF8358" d="M244.186,104.789c-0.09-0.07-0.168-0.145-0.249-0.217c-0.275,0.278-0.53,0.576-0.758,0.891
			c-2.059,2.839-1.354,5.671-1.272,8.843c0.078,2.245,0.441,4.463,1.691,6.109c0.809,1.086,1.918,1.785,3.12,2.186
			c0.835,0.28,1.718,0.418,2.582,0.443c1.156,0.028,2.355-0.148,3.391-0.79c1.944-1.224,2.849-3.863,3.343-6.358
			c0.081-0.431,0.151-0.864,0.212-1.299C252.902,110.605,248.244,107.995,244.186,104.789"/>
		<path fill="#FF5E53" d="M253.823,112.102l-3.539,2.766c0,0,0.311,5.675-3.565,7.734c0.834,0.279,1.718,0.417,2.582,0.442
			c1.157,0.028,2.355-0.148,3.391-0.79c1.943-1.224,2.85-3.863,3.343-6.358c0.081-0.431,0.151-0.864,0.212-1.299
			C255.497,113.702,254.682,112.878,253.823,112.102"/>
		<path fill="#1F3598" d="M267.051,116.721c1.69-5.985,3.427-11.754-1.976-17.307c-6.505-6.688-14.444-5.431-21.548-0.12
			c-1.894,1.416-4.685,3.747-4.873,6.315c-0.243,3.307,3.758,4.732,6.519,4.441c-1.133,0.119,1.819,7.536,2.409,8.194
			c1.969,2.2,5.512,4.088,8.784,5.388c1.538,0.61,2.42,2.211,2.147,3.845c-1.022,6.145-2.68,21.696,2.514,26.143
			c1.962,1.679,4.562,2.475,7.137,2.656c2.844,0.199,5.955-1.686,6.845-4.459c0.621-1.934,0.157-4.178-1.18-5.706
			c-1.69-1.933-4.425-2.573-6.413-4.196c-1.98-1.616-3.084-4.126-3.416-6.661C263.264,129.644,265.53,122.109,267.051,116.721"/>
		<path fill="#FF8358" d="M250.521,114.205c0.05,1.031-0.41,2.01-0.93,2.876c-0.329,0.549-0.696,1.085-1.186,1.469
			c-0.488,0.384-1.121,0.601-1.708,0.446c-1.833-0.481-1.662-3.393-1.093-4.821c0.434-1.09,1.358-1.992,2.448-2.138
			C249.31,111.869,250.454,112.819,250.521,114.205"/>
		<path fill="#1F3598" d="M237.344,103.457c-1.274,5.678,6.136,6.625,8.379,6.317c0.584-0.08,1.189-0.222,1.632-0.611
			c0.624-0.549,0.779-1.519,0.473-2.291C246.439,103.367,238.357,98.95,237.344,103.457"/>
	</g>
	<g>
		<g opacity="0.18">
			<g>
				<defs>
					<rect id="SVGID_7_" x="51.06" y="183.127" width="68.906" height="39.784"/>
				</defs>
				<clipPath id="SVGID_8_">
					<use xlink:href="#SVGID_7_"  overflow="visible"/>
				</clipPath>
				<path clip-path="url(#SVGID_8_)" fill="#647DDD" d="M109.874,188.954c-13.454-7.769-35.269-7.769-48.723,0
					c-13.455,7.768-13.455,20.362,0,28.131c13.454,7.768,35.269,7.768,48.723,0C123.329,209.316,123.329,196.722,109.874,188.954"/>
			</g>
		</g>
		<path fill="#1F3598" d="M94.734,188.65c-1.113-0.023-2.084,0.86-2.518,1.887c-0.432,1.026-0.441,2.175-0.443,3.289
			c-0.001,0.976,0.042,2.064,0.737,2.749c0.449,0.441,1.084,0.621,1.692,0.786c1.142,0.31,2.293,0.62,3.471,0.722
			c1.336,0.115,2.691-0.04,4.017,0.161c0.845,0.129,1.66,0.4,2.492,0.595c2.352,0.554,4.846,0.489,7.166-0.184
			c0.517-0.15,1.054-0.349,1.393-0.767c0.562-0.693,0.367-1.773-0.197-2.465c-0.566-0.691-1.406-1.087-2.217-1.46
			c-2.443-1.12-4.885-2.242-7.327-3.363c-2.396-1.1-4.876-2.222-7.512-2.281c-0.842-0.02-1.952,0.362-1.876,1.201L94.734,188.65z"/>
		<path fill="#1F3598" d="M112.865,197.323c-0.339,0.419-0.875,0.617-1.393,0.768c-2.32,0.673-4.814,0.736-7.166,0.184
			c-0.832-0.195-1.647-0.467-2.492-0.595c-1.326-0.202-2.68-0.047-4.015-0.162c-1.18-0.102-2.33-0.412-3.473-0.722
			c-0.607-0.164-1.243-0.345-1.691-0.785c-0.526-0.519-0.678-1.267-0.721-2.022c-0.013,0.334-0.016,0.669-0.016,1.001
			c-0.002,0.976,0.041,2.064,0.737,2.749c0.448,0.44,1.084,0.621,1.691,0.786c1.143,0.309,2.293,0.62,3.473,0.722
			c1.335,0.114,2.689-0.041,4.015,0.161c0.845,0.129,1.66,0.4,2.492,0.596c2.352,0.553,4.846,0.488,7.166-0.185
			c0.518-0.15,1.054-0.349,1.393-0.766c0.433-0.533,0.415-1.292,0.129-1.931C112.955,197.191,112.917,197.262,112.865,197.323"/>
		<path fill="#1F3598" d="M71.732,192.991l-0.116,0.827c-0.071-0.435-0.293-0.856-0.597-1.177c-0.547-0.573-1.317-0.878-2.087-1.063
			l-0.038-0.009c-1.814-0.425-3.655,0.62-4.313,2.363l-1.677,4.439l-3.568,7.031c-0.086,0.173-0.157,0.341-0.224,0.517
			c-0.894,2.458,0.437,5.23,2.931,5.828l1.143,0.273c3.061,0.732,6.101-1.479,6.567-4.774l1.873-13.381l0.118-0.843
			C71.74,193.014,71.736,193.002,71.732,192.991"/>
		<path fill="#1F3598" d="M71.616,193.818l-1.603,11.431c-0.465,3.296-3.504,5.498-6.566,4.771l-1.144-0.27
			c-1.824-0.438-3.027-2.039-3.191-3.829c0.067-0.176,0.138-0.344,0.225-0.517l3.567-7.031l2.328-6.165
			c0.895-0.826,2.441-0.934,3.7-0.629c0.77,0.185,1.54,0.489,2.087,1.063C71.323,192.962,71.545,193.384,71.616,193.818"/>
		<path fill="#DCEFFE" d="M98.228,179.501c-1.328-0.979-3.481-0.979-4.801,0c-0.66,0.489-0.988,1.132-0.985,1.774v8.312
			c0.003,0.643,0.337,1.285,1.001,1.774c1.327,0.979,3.481,0.979,4.801,0c0.66-0.489,0.987-1.132,0.985-1.774v-8.312
			C99.226,180.633,98.892,179.99,98.228,179.501"/>
		<path fill="#DCEFFE" d="M73.246,183.625c-1.042-1.279-3.127-1.817-4.648-1.199c-0.762,0.31-1.24,0.85-1.398,1.473l-2.075,8.048
			c-0.158,0.623,0.005,1.329,0.525,1.969c1.042,1.278,3.127,1.816,4.65,1.198c0.76-0.309,1.239-0.849,1.396-1.472l2.076-8.049
			C73.93,184.97,73.767,184.265,73.246,183.625"/>
		<path fill="#1F3598" d="M128.57,81.124c-5.292,1.726-18.799-9.577-24.215-8.229c-0.308,4.468,9.005,21.856,11.452,25.71
			c1.118,1.759,2.547,3.417,4.473,4.397c1.925,0.979,4.417,1.169,6.273,0.08c0.846-0.496,1.514-1.221,2.056-2.002
			c1.868-2.695,2.311-6.036,2.296-9.244c-0.016-3.208-0.438-6.425-0.091-9.617L128.57,81.124z"/>
		<path fill="#1F3598" d="M121.363,101.381c3.618,0.801,6.595-3.075,5.201-6.832c-3.261-8.779-7.388-17.408-10.16-26.251
			c-1.621-5.168-3.3-10.452-6.577-14.765c-1.782-2.346-6.044-6.224-8.576-2.309c-1.907,2.948-0.457,10.047,0.08,13.294
			c1.536,9.283,5.52,18.009,10.032,26.193c2.127,3.859,4.933,8.763,9.286,10.451C120.889,101.257,121.128,101.328,121.363,101.381"
			/>
		<path fill="#3772CE" d="M92.675,84.155l-17.559,6.227l-6.789,13.729l1.873,46.127c0.225,5.298-0.862,10.198-1.795,15.389
			c-0.959,5.331-1.917,10.663-2.876,15.994c-0.245,1.355-0.488,2.711-0.732,4.066c0,2.372,1.88,4.296,4.199,4.296h2.888
			c2.183,0,4.002-1.711,4.185-3.937l8.221-30.678l1.603-13.521l1.46-20.401l3.649-1.515l1.673,24.452l-1.969,40.353
			c-0.118,2.508,1.936,4.555,4.383,4.37l2.034-0.153c1.91-0.144,3.467-1.626,3.744-3.566l6.626-44.795v-48.41L92.675,84.155z"/>
		<path fill="#D7E9F9" d="M107.507,60.247v38.784c0,1.016-0.555,1.958-1.464,2.489l-10.239,5.976
			c-4.857,2.848-10.488,4.022-16.058,3.485c-1.947-0.199-3.893-0.598-5.778-1.235l-5.68-3.613l3.084-43.058
			c0.084-2.071,0.943-4.003,2.407-5.477c0.545-0.577,1.194-1.075,1.926-1.493l3.686-2.212l1.025-0.616
			c2.784-1.852,8.187-4.289,13.043-4.847c0.963-0.119,1.885,0.347,2.764,0.347c1.947,0,3.684,0.298,4.941,0.995
			C105.079,51.943,107.507,55.926,107.507,60.247"/>
		<path fill="#1F3598" d="M68.131,117.132l4.798,2.931c1.156,0.391,2.66,0.701,4.133,0.934c0.957,0.048,1.915,0.064,2.873,0.049
			c0.128-0.045,0.253-0.095,0.374-0.152c1.165-0.519,2.048-1.473,2.796-2.794c0.408-0.724,0.66-1.516,0.759-2.328
			c0.379-0.62,0.642-1.367,0.77-2.039c3.586-18.742,3.385-32.467-0.594-51.139c-0.659-3.089-1.329-8.124,0.832-10.832
			c0.419-0.524,0.989-0.91,1.583-1.226c4.002-2.125,11.608-1.919,14.071,2.611c0.603,1.112,0.832,2.896,1.028,4.133
			c1.925,12.125-0.011,18.217-0.179,30.413c-0.11,7.882-0.22,15.764-0.33,23.646c-0.014,1.015,0.527,1.919,1.451,2.421
			c0.678,0.372,1.524,0.339,2.19-0.051l3.32-1.938c1.14-0.665,1.836-1.848,1.836-3.119v-2.476V76.645
			c0-6.446,2.43-21.965-3.009-26.283c-3.642-2.894-8.118-2.16-12.41-2.198c-6.132-0.056-12.969,1.328-18.608,3.894
			c-6.469,2.943-6.83,9.789-6.433,15.956c0.575,8.918-0.939,18.28-1.463,27.251c-0.378,6.47-0.766,12.94-1.114,19.412
			C66.75,115.662,67.259,116.599,68.131,117.132"/>
		<path fill="#1F3598" d="M66.805,114.676c0.499-9.271,3.012-51.62,3.012-51.629c0.007-0.159,0.027-0.317,0.042-0.476h-0.113
			c0,0,0.071-2.699,0.071-2.71c0.013-0.323,0.044-0.646,0.092-0.963c1.577-0.788,3.105-0.889,4.548,0.648
			c0.255,0.271,0.496,0.595,0.727,0.957v60.149c-0.817-0.171-1.594-0.367-2.255-0.591l-4.798-2.931
			C67.259,116.599,66.75,115.662,66.805,114.676"/>
		<path fill="#F4F8F9" d="M86.115,56.909c-0.357-0.85-0.639-1.712-0.812-2.573c-1.724-8.553,15.267-7.578,15.267,1.927v1.484
			c0,0.595-0.496,1.003-1.037,0.854l-4.422-1.225l-3.678,3.671c-0.533,0.757-1.612,0.73-2.219-0.058
			C88.283,59.781,87.205,58.347,86.115,56.909"/>
		<path fill="#715154" d="M91.367,40.901c-0.018-0.001-0.035,0.013-0.053,0.027c-0.017-0.065-0.017-0.145-0.017-0.209
			C91.297,40.784,91.313,40.85,91.367,40.901"/>
		<path fill="#1F3598" d="M43.48,157.341l1.314,0.752v7.208c0,0.726,0.39,1.398,1.021,1.761c0,0,30.586,17.62,30.646,17.654
			c0.88,0.506,2.082,0.544,3.284,0.245c2.372-0.578,4.763-2.455,4.763-4.605v-23.868c0-0.359-0.083-0.699-0.23-1.009
			c-0.193-0.438-0.537-0.82-0.968-1.069l-33.403-19.241c-0.938-0.544-2.124-0.389-2.891,0.367l-1.941,1.896l-0.107,0.105
			c-1.14,1.13-1.783,2.671-1.783,4.276v13.608C43.185,156.219,42.796,156.94,43.48,157.341"/>
		<path fill="#3772CE" d="M43.185,141.47v3.441l32.917,14.561c1.201,0.529,2.569,0.438,3.672-0.216
			c0.201-0.116,0.39-0.253,0.567-0.403l3.937-3.374c-0.193-0.438-0.537-0.82-0.968-1.069l-33.403-19.241
			c-0.938-0.544-2.124-0.389-2.891,0.367l-1.941,1.896l-0.107,0.105l-0.219,0.216C43.748,138.73,43.185,140.073,43.185,141.47"/>
		<path fill="#1F3598" d="M43.48,157.341l1.314,0.752v7.208c0,0.726,0.39,1.398,1.021,1.761c0,0,30.586,17.62,30.646,17.654
			c0.88,0.506,2.082,0.544,3.284,0.245c0.509-0.502,0.834-1.201,0.834-2.014v-20.37c0-1.171-0.284-2.309-0.805-3.321
			c-0.631-1.231-1.608-2.281-2.848-2.995l-31.851-18.829l-0.107,0.105l-0.218,0.216c-1.001,0.978-1.565,2.319-1.565,3.717v13.952
			C43.185,156.219,42.796,156.94,43.48,157.341"/>
		<path fill="#D7E9F9" d="M56.333,165.536l5.547,3.195c0.453,0.262,0.821,0.05,0.821-0.473v-3.711c0-0.522-0.368-1.157-0.821-1.419
			l-5.547-3.195c-0.453-0.262-0.821-0.05-0.821,0.473v3.711C55.513,164.641,55.88,165.275,56.333,165.536"/>
		<path fill="#1F3598" d="M59.708,140.883c0-2.698,2.35-4.202,4.9-2.733l3.248,1.871c2.108,1.216,3.822,4.177,3.822,6.604v3.581
			l-1.079,0.539l-1.496-0.862v-3.58c0-1.478-1.043-3.28-2.326-4.019l-3.248-1.871c-0.34-0.196-0.66-0.292-0.952-0.308
			c-0.181,0.276-0.294,0.643-0.294,1.107v3.58l-1.079,0.539l-1.496-0.861V140.883z"/>
		<path fill="#4568C7" d="M70.107,132.738c-0.021,0.38-0.043,0.752-0.063,1.112l-0.562-0.323
			C69.752,133.278,69.961,133.013,70.107,132.738"/>
		<path fill="#4568C7" d="M63.386,142.911c-2.966-0.327-5.214-2.837-5.187-5.813C58.172,140.074,60.42,142.584,63.386,142.911"/>
		<path fill="#FF8358" d="M58.199,137.098c0.001-0.099,0.004-0.198,0.01-0.299c0.001-0.017,0.003-0.039,0.004-0.063
			c0.001-0.019,0.002-0.04,0.003-0.063c0-0.001,0.001-0.003,0.001-0.005c0.001-0.026,0.003-0.055,0.003-0.086
			c0.001-0.004,0.001-0.01,0.001-0.014c0.007-0.129,0.017-0.3,0.029-0.511c0.004-0.063,0.008-0.131,0.011-0.201
			c0.046-0.816,0.119-2.098,0.211-3.71c0.088,0.03,0.173,0.066,0.262,0.095c0.015,0.005,0.029,0.009,0.045,0.014
			c0.179,0.685,0.725,1.344,1.64,1.871c2.275,1.311,5.964,1.311,8.239,0c0.32-0.185,1.241-1.537,1.472-1.75l-0.086,1.476
			c-0.075,1.279-0.142,2.491-0.208,3.612c-0.175,3.09-2.746,5.481-5.81,5.481c-0.107,0-0.224-0.009-0.341-0.009
			c-0.1-0.006-0.2-0.014-0.299-0.024C60.421,142.584,58.173,140.074,58.199,137.098"/>
		<path fill="#1F3598" d="M58.75,127.356c0.658-11.411,1.689-35.079,1.831-36.898c0.025-0.307,0.075-0.623,0.15-0.93
			c0.818-4.153,1.636-8.306,2.455-12.459c1.246-6.327,1.405-14.21,5.211-19.481c2.305-3.192,6.061-7.268,9.509-2.507
			c1.085,1.499,1.391,3.451,1.202,5.292c-0.521,5.099-2.801,10.344-3.8,15.427c-1.047,5.329-2.094,10.658-3.142,15.987
			c-0.217,3.375-1.226,25.707-1.961,39.184c0.24,0.582,0.207,1.194-0.098,1.768c-0.146,0.274-0.355,0.54-0.625,0.789
			c-0.23,0.212-0.503,0.413-0.824,0.598c-2.275,1.311-5.964,1.311-8.239,0c-0.915-0.527-1.461-1.187-1.64-1.871
			c-0.015-0.005-0.03-0.009-0.045-0.014c-0.088-0.028-0.173-0.064-0.261-0.095c-0.086,1.499-0.156,2.711-0.202,3.529
			C58.359,134.103,58.533,131.075,58.75,127.356"/>
		<path fill="#1F3598" d="M58.271,135.675c-0.003,0.062-0.007,0.124-0.01,0.181C58.264,135.798,58.268,135.737,58.271,135.675"/>
		<path fill="#FF8358" d="M87.609,50.864l0.056,0.012c-0.03,1.771,1.681,3.464,4.157,3.995c2.218,0.472,4.258-0.153,5.161-1.46
			c0.105-0.152,0.194-0.313,0.269-0.483l0.053,0.011l0.109-0.508l0.002-0.002l2.226-10.404c0.288-1.344,0-2.668-0.688-3.731
			c-0.581-0.9-1.447-1.614-2.49-1.979c-0.249-0.073-0.516-0.152-0.79-0.21c-0.586-0.105-1.158-0.105-1.725-0.023
			c-0.45,0.081-0.879,0.223-1.28,0.417c-0.243,0.116-0.472,0.251-0.687,0.403c-1.006,0.703-3.538,1.499-3.813,2.783l-0.452,10.668
			v0.002L87.609,50.864z"/>
		<path fill="#FF5E53" d="M96.983,53.411c0.105-0.152,0.194-0.313,0.269-0.483l0.053,0.011l0.109-0.507l0.002-0.003l2.226-10.404
			c0.288-1.343,0-2.668-0.688-3.731c-0.581-0.9-1.447-1.614-2.49-1.979c-0.249-0.073-0.516-0.152-0.79-0.21
			c-0.587-0.105-1.158-0.105-1.725-0.023c-0.45,0.081-0.879,0.223-1.28,0.417l-1.399,6.533
			C90.431,46.95,92.838,51.003,96.983,53.411"/>
		<path fill="#EDF4F9" d="M71.389,125.455l-0.021,0.362c-0.121,1.847-0.24,3.428-0.37,4.805l-0.188,2.03l-0.525,0.796l-0.327-0.029
			c-0.321,0.307-0.712,0.586-1.164,0.835c-1.353,0.713-3.101,1.03-4.835,0.968c-1.733-0.063-3.453-0.506-4.744-1.314
			c-0.744-0.47-1.292-1.012-1.632-1.635l-0.067-0.118l0.302-3.187c0.044-0.436,0.067-1.695,0.079-3.067
			c0.005-0.471,0.51-0.771,0.924-0.544c0.489,0.267,0.931,0.502,1.124,0.624c2.346,1.476,6.248,1.616,8.695,0.314
			c0.532-0.282,1.935-0.604,2.24-0.981c0.053,0.011,0.106,0.03,0.167,0.05L71.389,125.455z"/>
		<path fill="#DCEFFE" d="M131.677,83.975l0.015,0.304c0.071,1.551,0.119,2.879,0.137,4.041l0.031,1.712l-0.373,0.735l-0.282,0.021
			c-0.245,0.301-0.552,0.587-0.914,0.857c-1.088,0.784-2.549,1.296-4.034,1.49c-1.484,0.193-2.993,0.07-4.17-0.418
			c-0.68-0.284-1.197-0.656-1.546-1.125l-0.068-0.089l-0.043-2.688c-0.003-0.368-0.102-1.417-0.22-2.558
			c-0.041-0.392,0.362-0.712,0.737-0.583c0.442,0.153,0.841,0.285,1.017,0.36c2.141,0.89,5.482,0.453,7.446-0.975
			c0.428-0.31,1.594-0.774,1.82-1.133c0.046,0.001,0.092,0.01,0.146,0.018L131.677,83.975z"/>
		<path fill="#C4DFFC" d="M116.871,90.039l2.951-15.986c0.038-0.191,0.15-0.356,0.32-0.457l8.018-4.813
			c0.348-0.208,0.794-0.148,1.073,0.145l0.672,0.704l-0.04,0.216l-2.855,15.476c-0.07,0.213-0.603,0.409-0.789,0.548l-7.768,4.54
			l-0.57,0.335C117.383,91.044,116.765,90.613,116.871,90.039"/>
		<path fill="#71A2EA" d="M118.453,90.411l7.768-4.54c0.186-0.139,0.719-0.335,0.789-0.548l2.855-15.475l-8.306,4.985
			c-0.165,0.102-0.282,0.267-0.314,0.458L118.453,90.411z"/>
		<path fill="#D7E9F9" d="M125.145,75.769c0.132,0.324,0.584,0.447,1.009,0.275c0.425-0.172,0.662-0.575,0.529-0.899
			c-0.132-0.324-0.583-0.447-1.008-0.275C125.25,75.042,125.013,75.444,125.145,75.769"/>
		<path fill="#FF8358" d="M118.671,81.51c0.046-0.101,0.099-0.199,0.152-0.297l8.345-2.702l0.536-0.219l1.246-4.576l1.288,0.311
			l1.031,5.823l-0.099,0.37c0.11,1.04,0.081,2.538,0.081,3.061c0,2.834-2.904,5.131-6.488,5.131c-3.583,0-6.488-2.297-6.488-5.131
			C118.275,82.657,118.416,82.062,118.671,81.51"/>
		<path fill="#1F3598" d="M79.313,26.931c0.886-3.292,4.502-6.875,4.53-6.899c5.17-2.398,11.054-2.981,16.201-0.211
			c1.346,0.724,2.555,1.748,3.79,2.714c2.383,1.867,4.312,4.328,4.122,7.414c-0.137,2.227-0.284,4.499-1.113,6.571
			c-1.504,3.762-2.567,7.331-6.873,8.49c-3.684,0.992-7.792-0.462-11.251-1.643c-4.959-1.691-8.864-4.476-9.788-9.614
			c-0.403-2.245-0.259-4.627,0.405-6.822H79.313z"/>
		<path fill="#FF8358" d="M89.695,27.055c0.212-0.069,0.425-0.134,0.636-0.192c4.085-1.128,12.916-1.818,15.345,2.711
			c1.645,3.064,2.133,12.319,1.037,15.332c-1.205,3.31-4.93,5.305-8.445,5.072c-2.14-0.143-4.162-0.995-5.894-2.277
			c-1.691-1.25-2.679-3.236-2.679-5.339V27.055z"/>
		<path fill="#1F3598" d="M107.241,28.034c3.864-9.14-15.573-3.619-19.263-1.369c-4.995,3.047-4.592,7.233,0.898,9.337
			c5.329,2.042,12.125-0.076,16.047-4.391C105.894,30.543,106.688,29.341,107.241,28.034 M89.097,35.87
			c-0.086-0.033-0.167-0.068-0.251-0.102C88.93,35.802,89.011,35.837,89.097,35.87c0.168,0.064,0.338,0.125,0.512,0.184
			C89.435,35.995,89.265,35.934,89.097,35.87"/>
		<path fill="#FF8358" d="M91.224,42.238c0,1.901-1.651,2.947-3.688,2.336c-2.039-0.611-3.69-2.647-3.69-4.55
			c0-1.901,1.651-2.947,3.69-2.336C89.573,38.3,91.224,40.337,91.224,42.238"/>
		<path fill="#FF8358" d="M97.356,37.999c0,0-6.537-1.394-8.716-7.316l3.713,8.67L97.356,37.999z"/>
		<path fill="#1F3598" d="M86.979,28.608c3.953,2.667,6.006,9.876,3.442,13.167c-0.769-3.445-2.16-6.833-4.135-10.074
			c0.804-0.084-1.15-3.425-0.344-3.508L86.979,28.608z"/>
	</g>
	<g>
		<g opacity="0.18">
			<g>
				<defs>
					<rect id="SVGID_9_" x="117.397" y="304.329" width="49.701" height="28.695"/>
				</defs>
				<clipPath id="SVGID_10_">
					<use xlink:href="#SVGID_9_"  overflow="visible"/>
				</clipPath>
				<path clip-path="url(#SVGID_10_)" fill="#647DDD" d="M124.675,328.822c9.705,5.604,25.439,5.604,35.145,0
					c9.705-5.604,9.705-14.688,0-20.291s-25.439-5.603-35.145,0C114.971,314.134,114.971,323.218,124.675,328.822"/>
			</g>
		</g>
		<path fill="#C14744" d="M134.489,175.744l-7.844,2.381c-1.484,0.451-2.766,1.403-3.628,2.694c0,0-1.774,2.663-1.779,2.667
			l-0.615,20.035c0.31,2.69,0.413,5.428,0.438,8.11c0.009,0.956,0.477,1.852,1.252,2.412c2.258,1.631,4.307,2.714,5.768,2.714
			c0.307,0,0.62-0.019,0.946-0.052c2.74-0.294,5.432-1.421,7.95-2.476c2.17-0.908,5.049-1.516,6.975-2.748
			c3.992-2.557,3.002-8.622,3.002-12.596v-10.938c-0.553-5.703-3.827-9.23-6.409-11.159
			C138.811,175.494,136.56,175.116,134.489,175.744"/>
		<path fill="#E9564B" d="M129.027,214.551c-0.326,0.03-0.64,0.074-0.946,0.048c-9.205-0.782-12.774-11.667-15.168-15.433
			c-0.465-0.732-0.622-1.601-0.438-2.435l0.958-4.334c0.102-0.459,0.754-0.557,1.002-0.15l6.183,10.098l0.62-18.964l0.005-0.004
			c0.046-0.049,0.429-0.46,1.044-0.85c1.273-0.813,3.531-1.554,5.794,1.146C130.72,186.825,129.652,205.981,129.027,214.551"/>
		<path fill="#FFFFFF" d="M145.127,315.078l-0.333-0.898l-0.083,0.104c0,0,0.458,4.538-4.362-2.075
			c-2.645-3.629-4.473-7.18-4.301-8.513c-0.539,0.406-1.07,0.853-1.531,1.32c-0.692,0.997-0.724,2.345-0.01,3.385l0.825,1.196
			l0.127,0.134c1.36,1.442,2.724,3.235,3.708,4.892c0.454,0.757,0.949,1.543,1.368,2.076c1.071,1.372,2.853,2.451,3.668,2.551
			c0.204,0.026,0.435-0.094,0.672-0.286C145.857,318.162,145.564,316.27,145.127,315.078"/>
		<path fill="#FF8358" d="M144.711,314.283l0.083-0.104l-0.755-2.293c-0.502-1.527-1-4.778-1.011-6.788
			c-1.108-2.764-2.813-3.431-3.863-3.56c-1.221,0.829-2.766,1.892-3.117,2.156c-0.172,1.333,1.656,4.884,4.301,8.513
			C145.169,318.821,144.711,314.283,144.711,314.283"/>
		<path fill="#1F3598" d="M148.622,261.918c-0.001,0.021-0.006,0.042-0.006,0.062c-0.072,0.965-0.125,1.916-0.165,2.86
			c-0.992,1.939-1.891,3.87-2.697,5.798c-0.499,1.192-0.963,2.396-1.406,3.608c-2.811,11.168-4.994,26.816-4.994,26.816
			l-0.377,1.027c0,0,0.834,4.177,3.063,3.898c1.288-0.161,8.066-11.584,13.559-21.193c2.936-6.787,5.373-10.886,6.491-18.071
			c2.505-16.074,0.448-33.901-3.62-49.567c-0.625-2.408-4.959-13.303-6.683-15.037c-2.739-2.75-3.795,3.754-7.613,4.963
			c-5.046,1.601-9.187,6.069-7.55,11.851L148.622,261.918z"/>
		<path fill="#FFFFFF" d="M138.642,321.139l-0.838-0.464l0.005,0.132c0,0,3.304,3.144-4.662,1.269
			c-4.37-1.028-8.07-2.531-8.809-3.653c-0.144,0.659-0.257,1.345-0.301,1.999c0.125,1.207,0.979,2.25,2.199,2.573l1.405,0.37
			l0.183,0.019c1.972,0.206,4.174,0.68,6.001,1.294c0.838,0.278,1.725,0.551,2.39,0.684c1.707,0.34,3.761,0,4.444-0.456
			c0.172-0.113,0.269-0.354,0.323-0.655C141.205,323.001,139.748,321.758,138.642,321.139"/>
		<path fill="#FF8358" d="M137.809,320.807l-0.005-0.132l-2.067-1.249c-1.375-0.83-3.872-2.972-5.19-4.49
			c-2.641-1.372-4.37-0.768-5.25-0.181c-0.385,1.424-0.865,3.236-0.959,3.667c0.739,1.122,4.439,2.625,8.809,3.654
			C141.113,323.95,137.809,320.807,137.809,320.807"/>
		<path fill="#FF8358" d="M174.55,182.519c-0.021,3.639-4.786,9.097-7.213,11.714c-2.235,2.406-4.835,4.519-7.708,6.243
			c-1.274,0.765-2.608,1.455-3.979,2.059c-0.555,0.244-1.033,0.373-1.44,0.41c-2.351,0.194-2.388-2.783-1.927-5.123
			c0.054-0.269,0.117-0.529,0.178-0.777c0.852-3.254,3.388-4.197,5.845-5.574c0.234-0.128,0.47-0.264,0.704-0.409
			c2.6-1.588,5.846-4.019,8.253-5.851c1.333-1.009,6.088-5.995,5.53-4.692c-0.018,0.05,0.115,0.004,0.173,0.013
			C173.9,180.642,174.559,181.613,174.55,182.519"/>
		<path fill="#FF8358" d="M158.628,200.294l-1.209-7.114l-2.82-16.601c-0.471-2.771-5.32-3.207-6.576-0.87
			c-0.76,1.414-0.565,3.13-0.35,4.721c0.663,4.901,1.326,9.804,1.99,14.705c0.279,2.069,0.681,7.827,3.6,7.966
			c0.506,0.023,5.592-2.214,5.48-2.521L158.628,200.294z"/>
		<path fill="#1F3598" d="M154.857,208.035c-1.021-2.648-2.217-5.271-3.553-7.798l-2.071-3.929l-2.874-1.614l-10.982,1.732
			l-0.051,0.052c-0.053,0.053-5.361,5.474-10.271,17.111l-0.07,0.167l10.78,7.337l0.054,0.036l8.097,0.226l0.053-0.03
			c5.136-2.897,9.002-7.563,10.892-13.14l0.024-0.075L154.857,208.035z"/>
		<path fill="#D7E9F9" d="M155.59,176.232c0.217,0.93,0.34,1.836,0.372,2.638c0.039,0.955-0.319,1.984-1.129,2.491
			c-1.131,0.709-2.615,0.174-3.762-0.506c-3.513-2.08-6.351-6.097-8.408-9.562c0-0.006-0.004-0.01-0.01-0.015
			c1.898-0.51,3.556-1.733,5.474-2.103c0.428-0.083,0.868-0.122,1.327-0.103C152.812,169.222,154.809,172.879,155.59,176.232"/>
		<path fill="#FF8358" d="M115.012,202.662l-5.174-3.23c-1.241-0.776-1.457-2.562-0.452-3.748l14.475-17.103
			c1.365-1.586,3.78,0.046,5.274,1.34c1.554,1.346,1.664,3.815-1.966,8.619L115.012,202.662z"/>
		<path fill="#8DC0EF" d="M152.418,182.895l-2.041-4.813l0.213-2.731c0.261-3.41-2.431-5.978-5.362-4.968l-2.015,0.761l-0.589,0.222
			c-2.104,0.788-4.188,1.616-6.296,2.391c-1.749,0.643-4.795,1.66-6.682,2.26c-1.42,0.455-2.682,1.172-3.488,2.575
			c-0.638,1.107-0.567,2.502-0.155,3.706c0.411,1.209,1.129,2.28,1.766,3.388c2.405,4.166,3.901,7.837,5.566,12.251
			c0.049,0.131,0.139,0.257,0.255,0.378c0.281,0.826,1.059,1.616,2.349,2.251c3.285,1.617,8.613,1.617,11.876,0
			c2.461-1.219,3.69-0.395,3.97-4.851l0.782-7.948l0.063-0.195C153.101,186.017,153.029,184.356,152.418,182.895 M136.083,200.494
			c-0.052-0.025-0.101-0.052-0.15-0.078C135.981,200.442,136.031,200.469,136.083,200.494c0.101,0.049,0.202,0.097,0.308,0.144
			C136.285,200.591,136.183,200.543,136.083,200.494"/>
		<path fill="#D7E9F9" d="M152.535,187.497c-0.604,0.784-1.604,1.043-2.602,1.472c-1.375,0.591-2.76,1.157-4.156,1.696
			c-2.971,1.156-6.264,2.161-9.16,0.926c-1.771-0.753-10.968-11.494-8.364-14.735l1.395-0.841c5.277-1.673,10.351-3.843,15.58-5.633
			c0.168-0.057,0.337-0.102,0.5-0.137c2.732-0.575,5.111,1.891,4.863,5.105l-0.197,2.475c-0.008,0.164-0.016,0.257-0.016,0.257
			s2.026,4.779,2.04,4.813c0.47,1.106,0.875,2.494,0.554,3.695C152.873,186.957,152.722,187.252,152.535,187.497"/>
		<path fill="#D7E9F9" d="M134.018,179.275c-1.353-1.85-3.598-2.775-6.236-2.54c-2.307,0.206-4.608,1.099-6.375,2.635
			c-1.514,1.313-3.584,4.008-2.635,5.946c1.023,2.099,4.084,5.177,6.569,5.178c2.801,0,4.355-2.441,7.736-1.007
			c0.376,0.159,0.794,0.351,1.172,0.202c0.446-0.176,0.595-0.72,0.682-1.19c0.375-2.038,0.676-4.131,0.33-6.173
			C135.059,181.136,134.63,180.111,134.018,179.275"/>
		<path fill="#FF8358" d="M129.067,217.679c0,0,1.07,5.259,11.104,6.275l-2.494-4.856l-7.516-3.454L129.067,217.679z"/>
		<path fill="#2846B2" d="M122.218,264.56c-3.84,11.379-4.166,23.776-0.858,34.963l2.355,7.963c0.25,1.918,0.488,3.646,0.692,5.128
			c0.155,1.118,0.286,2.072,0.384,2.837c0.031,0.012,0.062,0.022,0.091,0.034c0.829,0.199,1.653,0.364,2.488,0.512
			c0.216,0.003,0.433,0.001,0.65,0.003c0.523-0.321,1.064-0.615,1.621-0.867c0.187-0.085,0.374-0.169,0.561-0.253
			c1.902-9.051,4.663-29.303,4.69-29.503l11-65.912c0.877-5.272-3.49-11.264-8.816-12.096c-3.086-0.481-6.061,0.166-8.604,1.875
			c-3.519,2.364-6.048,6.715-7.315,12.583c-0.346,1.604,0.005,9.948,0.412,19.61C121.929,249.979,122.327,259.461,122.218,264.56"/>
		<path fill="#3772CE" d="M166.258,177.056l5.651-3.149c0.203-0.111,0.41-0.131,0.592-0.088l0.003-0.003l0.008,0.005
			c0.101,0.025,0.188,0.072,0.267,0.136l0.906,0.68l-0.744,0.634l-1.637,11.969c-0.041,0.298-0.234,0.573-0.504,0.723l-4.098,2.294
			l-1.377,1.63l-0.928-0.741l0.004-0.004c-0.252-0.129-0.418-0.402-0.371-0.752l1.724-12.609
			C165.794,177.48,165.988,177.205,166.258,177.056"/>
		<path fill="#1F3598" d="M165.959,191.703l5.653-3.149c0.271-0.148,0.463-0.424,0.504-0.723l1.723-12.607
			c0.088-0.644-0.531-1.045-1.115-0.724l-5.654,3.149c-0.271,0.148-0.463,0.424-0.504,0.723l-1.723,12.608
			C164.755,191.623,165.375,192.024,165.959,191.703"/>
		<path fill="#FF8358" d="M172.539,188.764c0.285,0.107,0.57,0.21,0.855,0.309c0.506,0.174,1.05-0.141,1.129-0.668
			c0.271-1.801,0.435-3.917,0.228-5.6c-0.123-1.005-0.267-1.613-1.198-2.094c-1.836-0.949-3.021,1.882-4.015,3.178
			c-0.548,0.714-1.099,1.434-1.509,2.234c-0.053,0.102-0.104,0.218-0.067,0.326c0.031,0.097,0.124,0.159,0.211,0.213
			C169.548,187.516,171.03,188.198,172.539,188.764"/>
		<path fill="#BE1E2D" d="M167.985,186.491c1.696-0.718,3.229-1.829,4.448-3.232l0.313,0.279c-1.205,1.384-2.711,2.498-4.377,3.241
			L167.985,186.491z"/>
		<path fill="#BE1E2D" d="M169.249,187.279c1.356-0.319,2.66-0.873,3.833-1.639l0.225,0.358c-1.08,0.7-2.27,1.232-3.507,1.574
			L169.249,187.279z"/>
		<path fill="#D7E9F9" d="M151.818,183.011c-0.297-1.509-0.934-2.982-1.828-4.284l0.16-0.01c-0.294-0.418-0.625-0.778-0.993-1.064
			c-1.075-1.232-2.403-2.239-3.905-2.862c-0.068,0.881-0.162,1.777-0.517,2.587c-0.04,0.092-0.086,0.183-0.134,0.272
			c-0.461,0.17-0.918,0.335-1.371,0.441c-1.9,0.447-3.653,0.057-5.502,0.733c-1.445,0.527-1.404,0.697-0.928,2.152
			c0.397,1.215,0.908,2.397,1.398,3.577c1.038,2.489,2.141,4.952,3.208,7.429c1.478-0.257,2.961-0.769,4.371-1.317
			c2.688-1.038,6.251-1.474,6.308-5.047C152.095,184.915,152.011,183.991,151.818,183.011 M142.735,178.31
			c-0.048-0.006,0.04-0.019,0.221-0.035C142.864,178.313,142.785,178.332,142.735,178.31"/>
		<path fill="#1F3598" d="M155.309,162.715c0.864,3.481-4.032,5.504-6.485,6.522c-2.205,0.915-4.512,1.635-6.859,2.11
			c-1.911,0.393-3.854,0.619-5.799,0.665c-0.357,0.01-0.72,0.01-1.079,0.005c-3.174-0.037-6.336-0.577-9.354-1.732
			c-1.451-0.559-9.294-3.423-8.104-5.94c1.576-3.313,4.327-5.902,5.981-9.165c1.44-2.843,0.018-7.033,0.007-10.306
			c-0.005-1.194,0.013-2.406,0.338-3.557c1.298-4.588,7.797-7.1,12.096-7.039c6.346,0.09,11.37,3.729,15.43,8.27
			c4.653,5.205-0.229,11.255,2.418,17.156C154.354,160.717,155.041,161.636,155.309,162.715"/>
		<path fill="#1F3598" d="M129.608,145.535c-0.778-1.92,0.082-4.225,1.64-5.589c1.558-1.365,3.669-1.932,5.731-2.125
			c4.575-0.428,20.815,3.492,14.901,10.595C146.664,154.682,132.782,153.368,129.608,145.535"/>
		<path fill="#FFFFFF" d="M133.253,175.406c0,2.12,2.315,3.776,5.264,3.776c2.402,0,4.379-1.092,5.037-2.642
			c0.151-0.357,0.232-0.74,0.232-1.135c0-0.879-0.395-1.669-1.066-2.303c-0.953-0.903-2.466-1.475-4.203-1.475
			c-0.257,0-0.509,0.013-0.753,0.044c-1.418,0.132-2.642,0.665-3.45,1.437C133.643,173.743,133.253,174.534,133.253,175.406"/>
		<path fill="#FF8358" d="M142.019,162.241v12.97h-0.037c-0.029,0.142-0.074,0.279-0.139,0.409
			c-0.133,0.268-0.329,0.514-0.584,0.727c-0.284,0.242-0.639,0.438-1.049,0.585c-0.004,0-0.004,0.004-0.008,0
			c-0.496,0.184-1.074,0.289-1.684,0.289c-1.788,0-3.221-0.857-3.463-2.01h-0.042v-12.97c0-0.352,0.059-0.686,0.167-1.003
			c0.172-0.501,0.473-0.952,0.865-1.315c0.254-0.238,0.543-0.438,0.866-0.594c0.35-0.175,0.734-0.292,1.139-0.342
			c0.185-0.013,0.385-0.029,0.58-0.029c0.428,0.017,0.815,0.096,1.201,0.226c0.111,0.041,0.221,0.092,0.33,0.146
			c0.34,0.172,0.646,0.397,0.901,0.66C141.656,160.578,142.019,161.376,142.019,162.241"/>
		<path fill="#FF5E53" d="M142.019,162.241c0,1.558,0.018,3.117,0,4.675c-0.029,2.783-1.583,2.852-3.904,1.123
			c-1.518-1.129-2.921-2.709-3.158-4.568c-0.047-0.375,0.477-4.142,0.224-4.142h4.98c0.34,0.172,0.646,0.397,0.901,0.66
			C141.656,160.578,142.019,161.376,142.019,162.241"/>
		<path fill="#FF8358" d="M134.964,144.893c0.213-0.07,0.427-0.135,0.64-0.193c4.111-1.136,12.997-1.829,15.442,2.728
			c1.654,3.084,2.146,12.397,1.043,15.429c-1.213,3.331-4.961,5.339-8.498,5.104c-3.398-0.226-6.495-2.231-8.627-4.896V144.893z"/>
		<path fill="#1F3598" d="M152.708,148.101c-0.124-0.447-0.217-0.905-0.284-1.369c-1.974-0.948-3.529-2.517-4.415-4.63
			c-4.844-0.897-10.512-0.395-14.389,1.517c-5.281,2.603-5.253,6.836,0.063,9.439c5.313,2.603,13.933,2.604,19.213,0
			c0.031-0.016,0.06-0.031,0.09-0.047c-0.156-0.698-0.313-1.396-0.469-2.095C152.435,149.951,152.501,149.013,152.708,148.101"/>
		<path fill="#1F3598" d="M134.729,158.887c0,0,3.342-1.671,3.551-5.431c0.209-3.758-6.057-9.815-6.893-9.606
			c-0.835,0.208-5.429,4.803-5.429,4.803L134.729,158.887z"/>
		<path fill="#1F3598" d="M133.913,152.944c-0.083-0.041-0.162-0.084-0.243-0.125C133.75,152.86,133.83,152.903,133.913,152.944
			c0.162,0.079,0.327,0.156,0.495,0.23C134.24,153.101,134.075,153.023,133.913,152.944"/>
		<path fill="#FF8358" d="M136.502,162.422c0,1.914-1.661,2.966-3.712,2.352c-2.05-0.615-3.712-2.665-3.712-4.578
			c0-1.914,1.662-2.966,3.712-2.352C134.841,158.459,136.502,160.509,136.502,162.422"/>
		<path fill="#E9564B" d="M153.175,153.707c1.211-3.263-0.117-4.783-2.359-5.305c-3.264-0.769-8.464,0.563-10.615,1.701
			c-2.238,1.181-4.139,2.86-5.563,4.953l-0.002,0.002c-0.481,0.715-1.067,1.355-1.794,1.817c-1.777,1.128-3.965,1.782-6.023,1.728
			c-0.063,0-0.13,0-0.197-0.005c-2.753-0.138-3.705-1.662-4.039-4.265c-0.075-0.605-0.117-6.354-0.346-6.479
			c-6.291-3.354-3.777-7.134-3.777-7.134c5.864-8.755,14.942-10.928,24.106-5.932c3.111,1.696,5.822,3.927,8.428,6.299
			C154.824,144.58,155.059,148.933,153.175,153.707"/>
		<path fill="#1F3598" d="M155.626,144.973c-0.259-0.131-0.538-0.222-0.831-0.262c-1.261-0.172-2.467,0.562-3.419,1.404
			s-1.803,1.843-2.943,2.403c-1.396,0.686-8.789,0.631-4.988,4.207c2.603,2.447,6.529,2.284,9.514,0.795
			c1.199-0.599,2.361-1.332,3.223-2.361c0.859-1.028,1.389-2.392,1.188-3.718C157.211,146.408,156.543,145.437,155.626,144.973"/>
		<path fill="#E9564B" d="M149.723,177.686c1.265,2.596,1.362,6.59,1.468,9.489c0.021,0.607,0.044,1.215,0.076,1.821
			c-0.031,0.938,0.145,7.26-0.113,9.865c0.049,0.013,0.098,0.029,0.148,0.043c3.247-2.584,4.908-6.102,4.986-9.611l-0.004-0.192
			c-0.033-0.611-0.055-1.222-0.078-1.833c-0.121-3.354-0.246-8.075-2.063-11.716l-0.109-0.199c-1.762-2.886-3.72-4.028-5.692-6.16
			c-1.943,0.154-4.052,1.128-5.124,1.689C145.472,173.176,147.764,174.501,149.723,177.686"/>
		<path fill="#D7E9F9" d="M142.875,191.677l6.363-2.339c2.576-0.947,4.199-3.806,3.871-6.826c-0.117-1.092-0.592-2.095-1.332-2.816
			l-7.414-7.233L142.875,191.677z"/>
		<path fill="#8DC0EF" d="M151.005,198.406c0,0,5.289,10.146,6.018,12.4c0,0,2.388,5.239-15.914,5.306c0,0-8.887-0.199-16.645-3.647
			l9.35-12.467L151.005,198.406z"/>
		<path fill="#FF8358" d="M135.08,216.838c-1.178-0.735-2.488-1.254-3.617-2.063c-1.833-1.315-8.106-9.409-9.962-12.238
			c-1.741-2.653-2.592-5.615-6.414-6.538c-2.954-0.713-7.828-0.934-5.877,3.194c3.563,7.546,9.891,13.753,17.502,17.18
			c0.824,0.368,1.674,0.718,2.355,1.307c0.617,0.531,1.054,1.235,1.585,1.851c2.095,2.431,5.726,3.409,8.754,2.355
			C138.517,219.816,136.988,218.033,135.08,216.838"/>
		<path fill="#E9564B" d="M136.809,182.026l-0.11-0.2c-1.761-2.885-3.719-4.027-5.69-6.159c-1.944,0.154-4.052,1.127-5.125,1.689
			c2.254,2.294,4.547,3.618,6.505,6.804c1.265,2.595,1.363,6.589,1.468,9.488c0.022,0.606,0.044,1.215,0.076,1.822
			c-0.118,3.504-2.669,6.357-7.794,8.722l1.003,4.471c8.632-1.95,11.69-7.433,11.813-12.896l-0.004-0.191
			c-0.033-0.611-0.056-1.223-0.078-1.833C138.751,190.388,138.626,185.667,136.809,182.026"/>
	</g>
</g>
</svg>
