<?xml version="1.0" encoding="utf-8"?>
<!-- Generator: Adobe Illustrator 16.0.0, SVG Export Plug-In . SVG Version: 6.00 Build 0)  -->
<!DOCTYPE svg PUBLIC "-//W3C//DTD SVG 1.1//EN" "http://www.w3.org/Graphics/SVG/1.1/DTD/svg11.dtd">
<svg version="1.1" id="Layer_1" xmlns="http://www.w3.org/2000/svg" xmlns:xlink="http://www.w3.org/1999/xlink" x="0px" y="0px"
	 width="19.967px" height="19.813px" viewBox="0 0 19.967 19.813" enable-background="new 0 0 19.967 19.813" xml:space="preserve">
<path fill="#818181" d="M19.962,1.721C19.884,1.029,19.292,0,17.983,0c-0.17,0-0.356,0.017-0.609,0.068l-7.39,1.95l-7.436-1.96
	C2.342,0.017,2.155,0,1.985,0C0.676,0,0.083,1.029,0,1.805l0,13.779c0.033,1.095,0.772,1.63,1.236,1.784l8.531,2.416
	c0.067,0.019,0.136,0.028,0.205,0.028c0.004,0,0.008-0.002,0.012-0.002s0.008,0.002,0.012,0.002c0.068,0,0.137-0.01,0.205-0.028
	l8.563-2.426c0.432-0.145,1.172-0.68,1.203-1.797L19.962,1.721z M9.222,18.071l-7.543-2.136c-0.002,0-0.169-0.081-0.178-0.373
	L1.493,1.904C1.557,1.5,1.879,1.5,1.985,1.5c0.083,0,0.173,0.01,0.227,0.019l7.01,1.85V18.071z M18.467,15.541
	c-0.008,0.287-0.146,0.379-0.145,0.385l-7.577,2.146V3.368l6.964-1.839C17.81,1.51,17.901,1.5,17.983,1.5
	c0.105,0,0.428,0,0.484,0.305V15.541z"/>
</svg>
