<?xml version="1.0" encoding="utf-8"?>
<!-- Generator: Adobe Illustrator 16.0.0, SVG Export Plug-In . SVG Version: 6.00 Build 0)  -->
<!DOCTYPE svg PUBLIC "-//W3C//DTD SVG 1.1//EN" "http://www.w3.org/Graphics/SVG/1.1/DTD/svg11.dtd">
<svg version="1.1" id="Layer_1" xmlns="http://www.w3.org/2000/svg" xmlns:xlink="http://www.w3.org/1999/xlink" x="0px" y="0px"
	 width="137.399px" height="28.368px" viewBox="0 0 137.399 28.368" enable-background="new 0 0 137.399 28.368"
	 xml:space="preserve">
<g>
	<g>
		<polygon fill="#2A267A" points="127.858,27.595 90.622,27.595 90.622,0.773 137.399,0.773 137.399,16.446 127.858,16.446 		"/>
		<g>
			<polygon fill="#FFFFFF" points="100.604,11.909 99.588,11.909 99.588,9.368 96.797,9.368 96.797,11.909 95.792,11.909 
				95.792,5.964 96.797,5.964 96.797,8.421 99.588,8.421 99.588,5.964 100.604,5.964 			"/>
			<polygon fill="#FFFFFF" points="106.892,11.909 103.219,11.909 103.219,5.964 106.892,5.964 106.892,6.903 104.226,6.903 
				104.226,8.48 106.64,8.48 106.64,9.393 104.226,9.393 104.226,10.97 106.892,10.97 			"/>
			<path fill="#FFFFFF" d="M113.448,11.909l-0.561-1.493h-2.516l-0.555,1.493h-1.063l2.313-5.945h1.166l2.314,5.945H113.448z
				 M111.629,7.054l-0.904,2.432h1.81L111.629,7.054z"/>
			<polygon fill="#FFFFFF" points="120.25,11.909 116.52,11.909 116.52,5.964 117.526,5.964 117.526,10.953 120.25,10.953 			"/>
			<polygon fill="#FFFFFF" points="125.874,6.912 123.936,6.912 123.936,11.91 122.93,11.91 122.93,6.912 121.001,6.912 
				121.001,5.965 125.874,5.965 			"/>
			<polygon fill="#FFFFFF" points="132.671,11.909 131.657,11.909 131.657,9.368 128.864,9.368 128.864,11.909 127.858,11.909 
				127.858,5.964 128.864,5.964 128.864,8.421 131.657,8.421 131.657,5.964 132.671,5.964 			"/>
			<path fill="#FFFFFF" d="M98.432,22.516c-0.833,0-1.542-0.282-2.126-0.848c-0.584-0.564-0.876-1.313-0.876-2.247
				c0-0.927,0.296-1.677,0.889-2.247c0.592-0.57,1.295-0.854,2.104-0.854c0.716,0,1.304,0.182,1.766,0.545
				c0.461,0.362,0.765,0.825,0.909,1.383l-0.947,0.319c-0.096-0.385-0.287-0.698-0.578-0.939c-0.291-0.24-0.674-0.361-1.149-0.361
				c-0.531,0-0.99,0.189-1.38,0.566c-0.387,0.378-0.582,0.908-0.582,1.589c0,0.666,0.193,1.188,0.578,1.564
				c0.386,0.377,0.85,0.565,1.393,0.565c0.464,0,0.848-0.125,1.148-0.377c0.302-0.252,0.509-0.562,0.621-0.931l0.922,0.302
				c-0.146,0.553-0.453,1.021-0.918,1.4C99.739,22.327,99.147,22.516,98.432,22.516"/>
			<path fill="#FFFFFF" d="M103.393,21.075c-0.289-0.481-0.432-1.035-0.432-1.66c0-0.627,0.143-1.18,0.432-1.656
				c0.289-0.479,0.658-0.838,1.111-1.078c0.452-0.24,0.944-0.359,1.475-0.359c0.531,0,1.023,0.119,1.477,0.359
				c0.452,0.24,0.824,0.6,1.115,1.078c0.29,0.477,0.436,1.029,0.436,1.656c0,0.625-0.146,1.179-0.436,1.66
				c-0.291,0.48-0.663,0.84-1.115,1.08c-0.453,0.241-0.945,0.361-1.477,0.361c-0.53,0-1.022-0.12-1.475-0.361
				C104.051,21.915,103.682,21.555,103.393,21.075 M104.58,17.833c-0.392,0.377-0.587,0.904-0.587,1.582
				c0,0.676,0.195,1.203,0.587,1.58s0.858,0.565,1.399,0.565c0.543,0,1.011-0.188,1.406-0.565c0.393-0.377,0.59-0.904,0.59-1.58
				c0-0.678-0.197-1.205-0.59-1.582c-0.396-0.377-0.863-0.565-1.406-0.565C105.438,17.267,104.971,17.456,104.58,17.833"/>
			<path fill="#FFFFFF" d="M113.383,22.389h-2.097v-5.943h2.106c0.838,0,1.529,0.266,2.074,0.796
				c0.545,0.531,0.817,1.261,0.817,2.188c0,0.923-0.274,1.646-0.822,2.172C114.916,22.127,114.222,22.389,113.383,22.389
				 M112.293,21.467h1.057c0.547,0,1-0.174,1.354-0.523s0.532-0.854,0.532-1.514c0-0.666-0.176-1.176-0.528-1.529
				c-0.353-0.355-0.804-0.533-1.351-0.533h-1.064V21.467z"/>
			<polygon fill="#FFFFFF" points="122.221,22.39 118.548,22.39 118.548,16.446 122.221,16.446 122.221,17.384 119.555,17.384 
				119.555,18.961 121.969,18.961 121.969,19.875 119.555,19.875 119.555,21.452 122.221,21.452 			"/>
		</g>
	</g>
	<g>
		<polygon fill="#E9564B" points="49.897,0.539 42.413,18.502 34.917,0.539 28.327,0.539 39.967,27.883 44.863,27.883 56.485,0.539 
					"/>
		<path fill="#E9564B" d="M83.09,7.084c-1.209-2.077-2.929-3.71-5.113-4.853c-2.147-1.123-4.645-1.692-7.42-1.692h-10.39v27.345
			h10.444c2.766,0,5.252-0.569,7.395-1.692c2.178-1.144,3.893-2.781,5.094-4.866c1.191-2.066,1.793-4.466,1.793-7.131
			C84.893,11.538,84.288,9.146,83.09,7.084 M66.241,6.325h4.229c1.742,0,3.256,0.334,4.5,0.994c1.215,0.646,2.123,1.531,2.771,2.708
			c0.658,1.196,0.992,2.622,0.992,4.238c0,1.613-0.332,3.019-0.985,4.183c-0.646,1.148-1.547,2.014-2.752,2.643
			c-1.232,0.646-2.732,0.972-4.455,0.972h-4.299V6.325z"/>
		<path fill="#E9564B" d="M18.52,21.223c-1.238,0.842-2.684,1.251-4.416,1.251c-1.509,0-2.837-0.343-4.061-1.049
			c-1.217-0.702-2.152-1.655-2.857-2.914c-0.702-1.252-1.059-2.705-1.059-4.318c0-1.625,0.347-3.039,1.061-4.323
			c0.706-1.27,1.643-2.23,2.859-2.938c1.224-0.71,2.55-1.056,4.057-1.056c1.746,0,3.195,0.409,4.434,1.251
			c1.152,0.783,1.931,1.906,2.383,3.421h6.258l-0.114-0.549c-0.444-2.126-1.325-3.971-2.619-5.483
			c-1.28-1.497-2.842-2.639-4.639-3.396C18.042,0.377,16.153,0,14.194,0c-2.597,0-5.01,0.638-7.173,1.895
			C4.862,3.151,3.133,4.882,1.885,7.042C0.633,9.203,0,11.609,0,14.193c0,2.572,0.633,4.971,1.885,7.133
			c1.248,2.16,2.977,3.891,5.136,5.146c2.162,1.257,4.575,1.895,7.173,1.895c1.971,0,3.862-0.373,5.626-1.108
			c1.8-0.751,3.359-1.892,4.638-3.392c1.285-1.513,2.164-3.362,2.606-5.5l0.113-0.547h-6.274C20.45,19.323,19.67,20.44,18.52,21.223
			"/>
	</g>
</g>
</svg>
