<?xml version="1.0" encoding="utf-8"?>
<!-- Generator: Adobe Illustrator 16.0.0, SVG Export Plug-In . SVG Version: 6.00 Build 0)  -->
<!DOCTYPE svg PUBLIC "-//W3C//DTD SVG 1.1//EN" "http://www.w3.org/Graphics/SVG/1.1/DTD/svg11.dtd">
<svg version="1.1" id="Layer_1" xmlns="http://www.w3.org/2000/svg" xmlns:xlink="http://www.w3.org/1999/xlink" x="0px" y="0px"
	 width="19.967px" height="19.813px" viewBox="0 0 19.967 19.813" enable-background="new 0 0 19.967 19.813" xml:space="preserve">
<path fill="#818181" d="M15.282,2.042h-0.84V0.874c0-0.414-0.336-0.75-0.75-0.75s-0.75,0.336-0.75,0.75v1.168H7.028V0.874
	c0-0.414-0.336-0.75-0.75-0.75s-0.75,0.336-0.75,0.75v1.168H4.687c-2.105,0-3.818,1.712-3.818,3.817v10.012
	c0,2.105,1.713,3.818,3.818,3.818h10.595c2.105,0,3.818-1.713,3.818-3.818V5.859C19.1,3.754,17.387,2.042,15.282,2.042z
	 M4.687,3.542h10.595c1.278,0,2.318,1.04,2.318,2.317v0.33H2.368v-0.33C2.368,4.582,3.408,3.542,4.687,3.542z M15.282,18.19H4.687
	c-1.278,0-2.318-1.04-2.318-2.318V7.689H17.6v8.182C17.6,17.15,16.56,18.19,15.282,18.19z"/>
</svg>
