<?xml version="1.0" encoding="utf-8"?>
<!-- Generator: Adobe Illustrator 16.0.0, SVG Export Plug-In . SVG Version: 6.00 Build 0)  -->
<!DOCTYPE svg PUBLIC "-//W3C//DTD SVG 1.1//EN" "http://www.w3.org/Graphics/SVG/1.1/DTD/svg11.dtd">
<svg version="1.1" id="Layer_1" xmlns="http://www.w3.org/2000/svg" xmlns:xlink="http://www.w3.org/1999/xlink" x="0px" y="0px"
	 width="72px" height="72px" viewBox="0 0 72 72" enable-background="new 0 0 72 72" xml:space="preserve">
<g>
	<path fill="#FFFFFF" d="M42.161,66.342c-0.628-7.758-5.87-13.416-12.722-14.58c0,0-3.498,2.541-7.746,2.598l-0.57-1.713
		l-5.706-2.853l-1.4,1.968c-6.851,1.164-12.189,6.822-12.821,14.58H42.161z"/>
	<path fill="#2A267A" d="M15.952,66.958c-0.113,0-0.229-0.022-0.339-0.07c-0.434-0.188-0.634-0.692-0.446-1.126l5.689-13.157
		l-4.76-2.105L6.192,66.551c-0.248,0.402-0.774,0.528-1.178,0.279c-0.402-0.248-0.526-0.775-0.278-1.178L15.03,48.966
		c0.226-0.363,0.684-0.507,1.075-0.334l6.22,2.749c0.43,0.189,0.626,0.69,0.439,1.122l-6.026,13.938
		C16.598,66.766,16.283,66.958,15.952,66.958"/>
	<path fill="#2A267A" d="M21.505,52.364c-0.128,0-0.257-0.028-0.379-0.089c-0.424-0.21-0.598-0.723-0.388-1.146
		c0.366-0.74,1.015-1.732,2.031-2.26c1.916-0.995,2.737-4.848,2.912-6.387c-0.164-0.986-0.59-1.509-0.912-1.656
		c-0.116-0.053-0.293-0.104-0.548,0.035l-2.131,2.13l-1.467,2.484c-0.24,0.408-0.764,0.543-1.173,0.302
		c-0.407-0.241-0.542-0.766-0.301-1.173l1.522-2.577c0.037-0.062,0.081-0.119,0.132-0.17l2.283-2.282
		c0.043-0.044,0.092-0.083,0.145-0.117c0.718-0.458,1.518-0.524,2.252-0.188c0.998,0.457,1.694,1.577,1.909,3.071
		c0.009,0.067,0.01,0.137,0.004,0.207c-0.064,0.63-0.707,6.213-3.838,7.84c-0.472,0.246-0.929,0.777-1.285,1.499
		C22.123,52.189,21.82,52.364,21.505,52.364"/>
	<path fill="#2A267A" d="M17.026,50.803c-0.09,0-0.181-0.015-0.271-0.045c-0.449-0.148-0.691-0.634-0.541-1.082
		c0.276-0.828,0.408-1.56,0.352-1.959c-0.031-0.221-0.204-0.618-0.356-0.968c-0.302-0.691-0.586-1.345-0.429-1.931
		c0.23-0.859,1.086-2.449,2.739-4.103c0.334-0.334,0.876-0.334,1.21,0c0.335,0.334,0.335,0.877,0,1.211
		c-1.459,1.459-2.114,2.745-2.279,3.276c0.03,0.179,0.215,0.603,0.328,0.862c0.206,0.473,0.419,0.962,0.482,1.416
		c0.12,0.854-0.164,1.96-0.423,2.735C17.719,50.576,17.385,50.803,17.026,50.803"/>
	<path fill="#2A267A" d="M54.336,53.293c-2.947-0.007-7.035-0.839-9.587-1.607c-0.453-0.138-0.709-0.615-0.572-1.067
		c0.137-0.453,0.613-0.708,1.066-0.572c2.514,0.758,6.445,1.529,9.093,1.535c5.632-0.016,11.133-1.935,15.537-5.414
		c-0.566-5.004-4.22-8.854-9.464-9.967c-3.103,2.68-8.811,3.223-12.475-0.315c-0.34-0.328-0.35-0.869-0.022-1.211
		c0.328-0.339,0.871-0.35,1.211-0.021c3.096,2.99,7.979,2.406,10.428,0.012c0.197-0.192,0.475-0.282,0.752-0.229
		c6.41,1.166,10.853,5.894,11.319,12.046c0.021,0.277-0.096,0.549-0.311,0.726C66.545,51.114,60.517,53.276,54.336,53.293"/>
	<path fill="#2A267A" d="M41.155,40.115c-0.208,0-0.415-0.075-0.579-0.226c-0.349-0.32-0.371-0.861-0.052-1.209
		c2.02-2.198,4.772-3.666,7.96-4.246c0.466-0.084,0.91,0.225,0.995,0.689c0.084,0.466-0.224,0.911-0.689,0.995
		c-2.819,0.514-5.24,1.799-7.005,3.719C41.616,40.022,41.385,40.115,41.155,40.115"/>
	<path fill="#2A267A" d="M50.959,22.403h-1.712c-0.473,0-0.855-0.383-0.855-0.855c0-0.474,0.382-0.856,0.855-0.856h1.712
		c0.473,0,0.856,0.383,0.856,0.856C51.815,22.021,51.432,22.403,50.959,22.403"/>
	<path fill="#2A267A" d="M58.948,22.403h-1.712c-0.473,0-0.856-0.383-0.856-0.855c0-0.474,0.383-0.856,0.856-0.856h1.712
		c0.473,0,0.855,0.383,0.855,0.856C59.803,22.021,59.421,22.403,58.948,22.403"/>
	<path fill="#2A267A" d="M56.999,29.76c-0.18,0-0.361-0.057-0.517-0.174c-1.328-1.007-2.696-1.007-4.024,0
		c-0.378,0.285-0.914,0.212-1.199-0.165c-0.286-0.377-0.212-0.914,0.165-1.199c1.91-1.446,4.182-1.446,6.093,0
		c0.377,0.285,0.451,0.822,0.165,1.199C57.514,29.643,57.258,29.76,56.999,29.76"/>
	<path fill="#2A267A" d="M63.514,51.506c-0.473,0-0.856-0.384-0.856-0.855v-5.706c0-0.474,0.383-0.857,0.856-0.857
		c0.472,0,0.855,0.384,0.855,0.857v5.706C64.369,51.122,63.986,51.506,63.514,51.506"/>
	<path fill="#2A267A" d="M65.098,37.454c-0.134,0-0.27-0.032-0.396-0.098c-0.418-0.218-0.581-0.736-0.362-1.155
		c1.634-3.13,2.586-6.417,2.827-9.771c0.09-1.251,0.673-12.378-6.321-17.497c-2.705-1.979-5.679-2.146-5.708-2.147
		c-0.573-0.045-1.126-0.044-1.672-0.002c-0.014,0.002-2.663,0.272-5.5,2.136c-1.805,1.186-3.422,3.715-3.438,3.739
		c-3.416,5.553-2.997,12.946-2.938,13.771c0.186,2.588,0.802,5.159,1.831,7.642c0.182,0.438-0.025,0.938-0.463,1.118
		c-0.436,0.181-0.937-0.026-1.118-0.463c-1.099-2.652-1.758-5.402-1.958-8.174c-0.062-0.882-0.51-8.782,3.195-14.802
		c0.08-0.127,1.839-2.877,3.95-4.263c3.214-2.111,6.171-2.399,6.295-2.41c0.643-0.051,1.287-0.051,1.923-0.001
		c0.112,0.004,3.473,0.178,6.612,2.476c7.737,5.66,7.114,17.65,7.018,19c-0.258,3.589-1.274,7.102-3.017,10.44
		C65.704,37.286,65.406,37.454,65.098,37.454"/>
	<path fill="#2A267A" d="M54.288,34.155c-0.012,0-0.022,0-0.033-0.001c-3.205-0.123-6.264-2.728-7.873-5.256
		c-1.728-2.717-1.776-5.452-1.791-6.351c-0.07-3.709,1.458-6.523,2.376-7.871c0.185-0.272,0.514-0.413,0.838-0.363
		c0.326,0.05,0.594,0.283,0.689,0.6C48.7,15.6,48.9,16.286,49.1,16.973c0.572,0.07,1.175,0.131,1.804,0.183
		c0.471,0.038,0.822,0.451,0.783,0.923c-0.039,0.472-0.446,0.821-0.922,0.783c-0.865-0.07-1.689-0.159-2.449-0.265
		c-0.335-0.045-0.61-0.285-0.704-0.609c-0.063-0.219-0.127-0.436-0.189-0.653c-0.611,1.309-1.16,3.082-1.12,5.183
		c0.014,0.864,0.053,3.154,1.523,5.462c1.319,2.073,3.9,4.347,6.462,4.464c2.561-0.117,5.143-2.391,6.461-4.464
		c1.47-2.308,1.51-4.598,1.524-5.461c0.039-2.102-0.509-3.875-1.12-5.184c-0.046,0.16-0.093,0.32-0.139,0.48l-0.05,0.174
		c-0.095,0.324-0.371,0.563-0.706,0.609c-2.001,0.272-4.018,0.401-5.977,0.388c-0.555,0.009-1.125-0.001-1.667-0.027
		c-0.472-0.023-0.836-0.425-0.812-0.896c0.022-0.471,0.425-0.845,0.896-0.813c0.506,0.025,1.038,0.034,1.576,0.025
		c1.723,0.016,3.464-0.088,5.201-0.301c0.201-0.687,0.401-1.373,0.607-2.06c0.095-0.316,0.363-0.55,0.689-0.6
		c0.329-0.051,0.653,0.091,0.838,0.363c0.917,1.347,2.446,4.161,2.376,7.873c-0.015,0.896-0.063,3.632-1.792,6.348
		c-1.609,2.529-4.667,5.134-7.873,5.257C54.309,34.155,54.299,34.155,54.288,34.155"/>
	<path fill="#2A267A" d="M52.655,18.959c-0.464,0-0.845-0.371-0.855-0.838l-0.002-0.115l-0.294,0.462
		c-0.254,0.399-0.784,0.516-1.182,0.263s-0.516-0.783-0.263-1.182l1.814-2.85c0.203-0.318,0.592-0.466,0.953-0.364
		c0.363,0.103,0.617,0.43,0.625,0.808l0.06,2.943c0.01,0.474-0.365,0.863-0.837,0.873H52.655z"/>
	<path fill="#2A267A" d="M12.133,40.175c-0.349,0-0.676-0.214-0.803-0.56l-0.003-0.007c-0.018-0.013-0.144-0.074-0.236-0.119
		c-0.495-0.241-1.323-0.645-1.938-2.116c-0.94-2.248-0.011-3.465,0.431-3.884c0.751-0.71,1.897-0.934,2.724-0.533
		c0.426,0.206,0.603,0.719,0.397,1.144c-0.206,0.427-0.718,0.603-1.143,0.397c-0.124-0.06-0.519-0.031-0.801,0.236
		c-0.396,0.375-0.405,1.077-0.028,1.98c0.365,0.875,0.726,1.051,1.108,1.236c0.36,0.176,0.854,0.416,1.095,1.073
		c0.164,0.442-0.063,0.935-0.507,1.099C12.331,40.158,12.232,40.175,12.133,40.175"/>
	<path fill="#2A267A" d="M19.574,37.239h-2.282c-0.473,0-0.857-0.383-0.857-0.854c0-0.474,0.384-0.856,0.857-0.856h2.282
		c0.473,0,0.856,0.383,0.856,0.856C20.431,36.856,20.047,37.239,19.574,37.239"/>
	<path fill="#2A267A" d="M27.563,37.239h-2.282c-0.474,0-0.857-0.383-0.857-0.854c0-0.474,0.383-0.856,0.857-0.856h2.282
		c0.473,0,0.855,0.383,0.855,0.856C28.418,36.856,28.037,37.239,27.563,37.239"/>
	<path fill="#2A267A" d="M28.825,46.742c-0.149,0-0.302-0.039-0.439-0.122c-0.406-0.243-0.537-0.77-0.293-1.175
		c2.143-3.568,2.73-5.435,2.73-8.688c0-2.596-1.117-5.021-1.681-6.184c-2.189,0.548-4.343,1.273-6.414,2.163
		c-0.215,0.093-0.459,0.093-0.674,0c-2.055-0.883-4.195-1.604-6.368-2.151c-0.215,0.58-0.391,1.149-0.534,1.725
		c-0.287,1.137-0.459,2.712-0.552,3.558c-0.081,0.742-0.126,1.15-0.698,1.31c-0.337,0.092-0.7-0.03-0.911-0.31
		c-0.009-0.012-0.018-0.022-0.025-0.035c-0.557-0.751-0.942-1.356-1.174-1.844c-1.63-3.416-0.655-7.796-0.646-7.84
		c0.975-4.092,4.213-7.097,8.663-8.04c4.656-0.986,9.34,0.577,11.935,3.983c0.286,0.376,0.214,0.912-0.162,1.199
		c-0.376,0.286-0.913,0.214-1.199-0.162c-2.198-2.882-6.209-4.195-10.218-3.346c-3.787,0.802-6.536,3.33-7.354,6.762
		c-0.175,0.74-0.591,3.82,0.324,6.231c0.092-0.637,0.21-1.303,0.356-1.882c0.218-0.879,0.507-1.746,0.883-2.646
		c0.161-0.385,0.575-0.599,0.984-0.504c2.399,0.56,4.763,1.323,7.033,2.275c2.27-0.952,4.634-1.716,7.033-2.275
		c0.408-0.094,0.822,0.118,0.983,0.504c0.039,0.094,0.107,0.23,0.193,0.407c0.579,1.191,1.935,3.979,1.935,7.102
		c0,3.583-0.667,5.729-2.976,9.57C29.399,46.596,29.116,46.742,28.825,46.742"/>
	<path fill="#FFFFFF" d="M45.561,66.911c-0.374,0-0.718-0.247-0.823-0.625l-15.185-54.11c-0.127-0.454,0.139-0.928,0.593-1.056
		c0.454-0.128,0.928,0.138,1.056,0.593l15.184,54.111c0.127,0.455-0.138,0.928-0.594,1.056
		C45.715,66.901,45.638,66.911,45.561,66.911"/>
	<path fill="#FFFFFF" d="M13.246,44.416c-0.062,0-0.124-0.007-0.187-0.021L7.56,43.168c-0.46-0.103-0.751-0.56-0.648-1.021
		c0.103-0.46,0.56-0.751,1.022-0.648l5.498,1.227c0.461,0.103,0.752,0.56,0.649,1.021C13.992,44.146,13.639,44.416,13.246,44.416"/>
	<path fill="#FFFFFF" d="M8.001,49.089c-0.384,0-0.732-0.26-0.83-0.647c-0.114-0.459,0.165-0.925,0.623-1.039l5.244-1.311
		c0.46-0.117,0.924,0.164,1.038,0.622c0.114,0.459-0.164,0.924-0.623,1.038l-5.244,1.313C8.14,49.081,8.069,49.089,8.001,49.089"/>
	<path fill="#2A267A" d="M22.404,55.196c-0.375,0-0.758-0.021-1.142-0.063c-0.469-0.053-0.809-0.475-0.757-0.945
		c0.051-0.47,0.474-0.808,0.944-0.757c0.359,0.039,0.718,0.057,1.062,0.052c3.768-0.051,6.721-2.545,6.75-2.57
		c0.195-0.166,0.453-0.237,0.705-0.193c2.284,0.4,4.41,1.291,6.32,2.647c0.386,0.273,0.475,0.809,0.202,1.193
		c-0.272,0.386-0.81,0.476-1.193,0.202c-1.597-1.133-3.362-1.902-5.251-2.286c-0.958,0.725-3.868,2.67-7.509,2.719
		C22.492,55.196,22.449,55.196,22.404,55.196"/>
	<path fill="#2A267A" d="M1.231,66.485c-0.018,0-0.035-0.001-0.053-0.002c-0.472-0.028-0.831-0.435-0.801-0.907
		c0.453-7.35,6-13.598,13.19-14.856c0.466-0.08,0.909,0.23,0.99,0.697c0.082,0.465-0.229,0.908-0.695,0.989
		C7.444,53.53,2.492,59.113,2.085,65.682C2.058,66.136,1.681,66.485,1.231,66.485"/>
</g>
</svg>
