<?xml version="1.0" encoding="utf-8"?>
<!-- Generator: Adobe Illustrator 16.0.0, SVG Export Plug-In . SVG Version: 6.00 Build 0)  -->
<!DOCTYPE svg PUBLIC "-//W3C//DTD SVG 1.1//EN" "http://www.w3.org/Graphics/SVG/1.1/DTD/svg11.dtd">
<svg version="1.1" id="Layer_1" xmlns="http://www.w3.org/2000/svg" xmlns:xlink="http://www.w3.org/1999/xlink" x="0px" y="0px"
	 width="375.016px" height="370.367px" viewBox="0 0 375.016 370.367" enable-background="new 0 0 375.016 370.367"
	 xml:space="preserve">
<g>
	<g>
		<defs>
			<rect id="SVGID_1_" x="0.008" y="-0.063" width="375" height="370.429"/>
		</defs>
		<clipPath id="SVGID_2_">
			<use xlink:href="#SVGID_1_"  overflow="visible"/>
		</clipPath>
		<path clip-path="url(#SVGID_2_)" fill="#DDDDED" d="M280.729,177.441c-17.746-0.976-34.896-1.641-52.042-6.98
			c-31.445-9.795-61.291-27.308-80.679-54.498c-9.944-13.947-12.77-31.782-21.989-46.313c-3.313-5.223-6.971-10.219-10.681-15.164
			c-6.227-8.296-13.061-16.161-20.656-23.231C78.074,15.793,59.818,6.87,37.727,2.416C32.842,1.43,0.049-3.204,0.008,4.482v365.884
			h375v-81.673C373.474,235.809,336.948,180.533,280.729,177.441z"/>
	</g>
	<g>
		<defs>
			<rect id="SVGID_3_" x="0.008" y="-0.063" width="375" height="370.429"/>
		</defs>
		<clipPath id="SVGID_4_">
			<use xlink:href="#SVGID_3_"  overflow="visible"/>
		</clipPath>
		<path clip-path="url(#SVGID_4_)" fill="#FF8358" d="M305.989,440.103c19.215-28.264,36.162-69.173,22.378-102.208
			c-9.011-21.598-33.697-33.104-47.666-51.688c-7.205-9.588-17.705-15.806-29.565-17.499c-2.153-0.313-4.305-0.458-6.442-0.458
			c-9.635,0-18.963,3.097-26.802,8.979c-43.439,0,17.225,141.857,21.61,155.307c4.843,14.852,12.439,32.168,27.884,34.518
			c14.182,2.158,26.265-9.897,34.739-21.471C303.417,443.813,304.707,441.985,305.989,440.103"/>
	</g>
	<g>
		<defs>
			<rect id="SVGID_5_" x="0.008" y="-0.063" width="375" height="370.429"/>
		</defs>
		<clipPath id="SVGID_6_">
			<use xlink:href="#SVGID_5_"  overflow="visible"/>
		</clipPath>
		<path clip-path="url(#SVGID_6_)" fill="#FF8358" d="M69.026,440.103c-19.215-28.264-36.162-69.173-22.378-102.208
			c9.012-21.598,33.697-33.104,47.667-51.688c7.205-9.588,17.705-15.806,29.565-17.499c2.153-0.313,4.305-0.458,6.441-0.458
			c9.637,0,18.965,3.097,26.803,8.979c43.439,0-17.225,141.857-21.61,155.307c-4.843,14.852-12.439,32.168-27.884,34.518
			c-14.182,2.158-26.265-9.897-34.739-21.471C71.599,443.813,70.309,441.985,69.026,440.103"/>
	</g>
	<g>
		<defs>
			<rect id="SVGID_7_" x="0.008" y="-0.063" width="375" height="370.429"/>
		</defs>
		<clipPath id="SVGID_8_">
			<use xlink:href="#SVGID_7_"  overflow="visible"/>
		</clipPath>
		<path clip-path="url(#SVGID_8_)" fill="#3772CE" d="M250.095,482.384H124.921c-10.893,0-19.722-8.83-19.722-19.723v-235.67
			c0-10.894,8.829-19.724,19.722-19.724h125.174c10.893,0,19.723,8.83,19.723,19.724v235.67
			C269.817,473.554,260.987,482.384,250.095,482.384"/>
	</g>
	<g>
		<defs>
			<rect id="SVGID_9_" x="0.008" y="-0.063" width="375" height="370.429"/>
		</defs>
		<clipPath id="SVGID_10_">
			<use xlink:href="#SVGID_9_"  overflow="visible"/>
		</clipPath>
		<path clip-path="url(#SVGID_10_)" fill="#1F3598" d="M247.509,475.185H127.507c-10.442,0-18.907-8.465-18.907-18.907V230.344
			c0-10.441,8.465-18.908,18.907-18.908h120.002c10.442,0,18.907,8.467,18.907,18.908v225.933
			C266.416,466.72,257.951,475.185,247.509,475.185"/>
	</g>
	<g>
		<defs>
			<rect id="SVGID_11_" x="0.008" y="-0.063" width="375" height="370.429"/>
		</defs>
		<clipPath id="SVGID_12_">
			<use xlink:href="#SVGID_11_"  overflow="visible"/>
		</clipPath>
		<path clip-path="url(#SVGID_12_)" fill="#F4F8F9" d="M239.465,433.938H135.551c-6.359,0-11.518-5.156-11.518-11.519V237.674
			c0-6.359,5.157-11.517,11.518-11.517h103.914c6.36,0,11.517,5.155,11.517,11.517v184.745
			C250.981,428.78,245.825,433.938,239.465,433.938"/>
	</g>
	<g>
		<defs>
			<rect id="SVGID_13_" x="0.008" y="-0.063" width="375" height="370.429"/>
		</defs>
		<clipPath id="SVGID_14_">
			<use xlink:href="#SVGID_13_"  overflow="visible"/>
		</clipPath>
		<polygon clip-path="url(#SVGID_14_)" fill="#2A267A" points="213.85,248.482 197.269,248.482 197.269,236.539 218.098,236.539 
			218.098,243.518 213.85,243.518 		"/>
	</g>
	<g>
		<defs>
			<rect id="SVGID_15_" x="0.008" y="-0.063" width="375" height="370.429"/>
		</defs>
		<clipPath id="SVGID_16_">
			<use xlink:href="#SVGID_15_"  overflow="visible"/>
		</clipPath>
		<polygon clip-path="url(#SVGID_16_)" fill="#FFFFFF" points="201.714,241.498 201.262,241.498 201.262,240.366 200.019,240.366 
			200.019,241.498 199.57,241.498 199.57,238.852 200.019,238.852 200.019,239.943 201.262,239.943 201.262,238.852 
			201.714,238.852 		"/>
	</g>
	<g>
		<defs>
			<rect id="SVGID_17_" x="0.008" y="-0.063" width="375" height="370.429"/>
		</defs>
		<clipPath id="SVGID_18_">
			<use xlink:href="#SVGID_17_"  overflow="visible"/>
		</clipPath>
		<polygon clip-path="url(#SVGID_18_)" fill="#FFFFFF" points="204.514,241.498 202.879,241.498 202.879,238.852 204.514,238.852 
			204.514,239.27 203.327,239.27 203.327,239.97 204.402,239.97 204.402,240.377 203.327,240.377 203.327,241.079 204.514,241.079 
					"/>
	</g>
	<g>
		<defs>
			<rect id="SVGID_19_" x="0.008" y="-0.063" width="375" height="370.429"/>
		</defs>
		<clipPath id="SVGID_20_">
			<use xlink:href="#SVGID_19_"  overflow="visible"/>
		</clipPath>
		<path clip-path="url(#SVGID_20_)" fill="#FFFFFF" d="M207.434,241.498l-0.25-0.665h-1.12l-0.246,0.665h-0.475l1.03-2.646h0.52
			l1.03,2.646H207.434z M206.623,239.335l-0.403,1.083h0.807L206.623,239.335z"/>
	</g>
	<g>
		<defs>
			<rect id="SVGID_21_" x="0.008" y="-0.063" width="375" height="370.429"/>
		</defs>
		<clipPath id="SVGID_22_">
			<use xlink:href="#SVGID_21_"  overflow="visible"/>
		</clipPath>
		<polygon clip-path="url(#SVGID_22_)" fill="#FFFFFF" points="210.462,241.498 208.801,241.498 208.801,238.852 209.249,238.852 
			209.249,241.072 210.462,241.072 		"/>
	</g>
	<g>
		<defs>
			<rect id="SVGID_23_" x="0.008" y="-0.063" width="375" height="370.429"/>
		</defs>
		<clipPath id="SVGID_24_">
			<use xlink:href="#SVGID_23_"  overflow="visible"/>
		</clipPath>
		<polygon clip-path="url(#SVGID_24_)" fill="#FFFFFF" points="212.966,239.271 212.104,239.271 212.104,241.498 211.655,241.498 
			211.655,239.271 210.797,239.271 210.797,238.85 212.966,238.85 		"/>
	</g>
	<g>
		<defs>
			<rect id="SVGID_25_" x="0.008" y="-0.063" width="375" height="370.429"/>
		</defs>
		<clipPath id="SVGID_26_">
			<use xlink:href="#SVGID_25_"  overflow="visible"/>
		</clipPath>
		<polygon clip-path="url(#SVGID_26_)" fill="#FFFFFF" points="215.993,241.498 215.541,241.498 215.541,240.366 214.298,240.366 
			214.298,241.498 213.85,241.498 213.85,238.852 214.298,238.852 214.298,239.943 215.541,239.943 215.541,238.852 
			215.993,238.852 		"/>
	</g>
	<g>
		<defs>
			<rect id="SVGID_27_" x="0.008" y="-0.063" width="375" height="370.429"/>
		</defs>
		<clipPath id="SVGID_28_">
			<use xlink:href="#SVGID_27_"  overflow="visible"/>
		</clipPath>
		<path clip-path="url(#SVGID_28_)" fill="#FFFFFF" d="M200.747,246.22c-0.371,0-0.688-0.126-0.946-0.377
			c-0.261-0.252-0.391-0.585-0.391-1.001c0-0.412,0.132-0.746,0.396-1s0.576-0.381,0.938-0.381c0.317,0,0.58,0.08,0.785,0.242
			s0.341,0.367,0.405,0.615l-0.422,0.143c-0.043-0.172-0.129-0.311-0.258-0.418c-0.13-0.107-0.301-0.16-0.512-0.16
			c-0.236,0-0.441,0.084-0.614,0.252s-0.26,0.403-0.26,0.707c0,0.297,0.086,0.528,0.258,0.696s0.378,0.252,0.62,0.252
			c0.206,0,0.377-0.056,0.512-0.168s0.226-0.25,0.275-0.414l0.41,0.134c-0.063,0.247-0.2,0.455-0.408,0.624
			C201.329,246.135,201.065,246.22,200.747,246.22"/>
	</g>
	<g>
		<defs>
			<rect id="SVGID_29_" x="0.008" y="-0.063" width="375" height="370.429"/>
		</defs>
		<clipPath id="SVGID_30_">
			<use xlink:href="#SVGID_29_"  overflow="visible"/>
		</clipPath>
		<path clip-path="url(#SVGID_30_)" fill="#FFFFFF" d="M202.956,245.578c-0.128-0.213-0.192-0.46-0.192-0.739
			c0-0.278,0.064-0.524,0.192-0.737s0.293-0.371,0.494-0.479s0.421-0.16,0.656-0.16c0.236,0,0.456,0.053,0.657,0.16
			c0.202,0.107,0.367,0.268,0.497,0.479c0.129,0.213,0.193,0.459,0.193,0.737c0,0.279-0.064,0.526-0.193,0.739
			c-0.13,0.215-0.295,0.375-0.497,0.482c-0.201,0.105-0.421,0.159-0.657,0.159c-0.235,0-0.455-0.054-0.656-0.159
			C203.249,245.953,203.084,245.792,202.956,245.578 M203.484,244.135c-0.175,0.168-0.262,0.402-0.262,0.703
			c0,0.303,0.087,0.536,0.262,0.704s0.383,0.252,0.623,0.252c0.242,0,0.45-0.084,0.626-0.252s0.264-0.401,0.264-0.704
			c0-0.301-0.088-0.535-0.264-0.703s-0.384-0.252-0.626-0.252C203.866,243.883,203.658,243.967,203.484,244.135"/>
	</g>
	<g>
		<defs>
			<rect id="SVGID_31_" x="0.008" y="-0.063" width="375" height="370.429"/>
		</defs>
		<clipPath id="SVGID_32_">
			<use xlink:href="#SVGID_31_"  overflow="visible"/>
		</clipPath>
		<path clip-path="url(#SVGID_32_)" fill="#FFFFFF" d="M207.404,246.165h-0.934v-2.647h0.938c0.372,0,0.682,0.118,0.924,0.354
			c0.243,0.235,0.363,0.562,0.363,0.976c0,0.409-0.121,0.732-0.365,0.967C208.087,246.047,207.777,246.165,207.404,246.165
			 M206.919,245.753h0.471c0.244,0,0.444-0.078,0.604-0.233c0.158-0.154,0.236-0.379,0.236-0.674c0-0.296-0.078-0.522-0.234-0.682
			c-0.156-0.158-0.357-0.236-0.602-0.236h-0.475V245.753L206.919,245.753z"/>
	</g>
	<g>
		<defs>
			<rect id="SVGID_33_" x="0.008" y="-0.063" width="375" height="370.429"/>
		</defs>
		<clipPath id="SVGID_34_">
			<use xlink:href="#SVGID_33_"  overflow="visible"/>
		</clipPath>
		<polygon clip-path="url(#SVGID_34_)" fill="#FFFFFF" points="211.34,246.165 209.704,246.165 209.704,243.518 211.34,243.518 
			211.34,243.936 210.152,243.936 210.152,244.637 211.228,244.637 211.228,245.044 210.152,245.044 210.152,245.746 
			211.34,245.746 		"/>
	</g>
	<g>
		<defs>
			<rect id="SVGID_35_" x="0.008" y="-0.063" width="375" height="370.429"/>
		</defs>
		<clipPath id="SVGID_36_">
			<use xlink:href="#SVGID_35_"  overflow="visible"/>
		</clipPath>
		<polygon clip-path="url(#SVGID_36_)" fill="#E9564B" points="179.136,236.434 175.803,244.434 172.464,236.434 169.531,236.434 
			174.715,248.611 176.894,248.611 182.068,236.434 		"/>
	</g>
	<g>
		<defs>
			<rect id="SVGID_37_" x="0.008" y="-0.063" width="375" height="370.429"/>
		</defs>
		<clipPath id="SVGID_38_">
			<use xlink:href="#SVGID_37_"  overflow="visible"/>
		</clipPath>
		<path clip-path="url(#SVGID_38_)" fill="#E9564B" d="M193.915,239.348c-0.538-0.925-1.305-1.649-2.276-2.16
			c-0.955-0.5-2.067-0.754-3.304-0.754h-4.627v12.178h4.65c1.23,0,2.339-0.254,3.292-0.756c0.972-0.508,1.733-1.236,2.27-2.166
			c0.53-0.92,0.799-1.987,0.799-3.176C194.719,241.332,194.448,240.268,193.915,239.348 M186.413,239.01h1.882
			c0.775,0,1.451,0.149,2.004,0.442c0.542,0.288,0.945,0.683,1.234,1.206c0.293,0.531,0.441,1.168,0.441,1.888
			c0,0.718-0.147,1.345-0.438,1.862c-0.288,0.512-0.688,0.896-1.227,1.177c-0.549,0.287-1.216,0.433-1.982,0.433h-1.914V239.01z"/>
	</g>
	<g>
		<defs>
			<rect id="SVGID_39_" x="0.008" y="-0.063" width="375" height="370.429"/>
		</defs>
		<clipPath id="SVGID_40_">
			<use xlink:href="#SVGID_39_"  overflow="visible"/>
		</clipPath>
		<path clip-path="url(#SVGID_40_)" fill="#E9564B" d="M165.164,245.645c-0.554,0.375-1.193,0.558-1.968,0.558
			c-0.672,0-1.262-0.153-1.807-0.468c-0.543-0.313-0.959-0.736-1.272-1.297c-0.313-0.559-0.474-1.205-0.474-1.924
			c0-0.724,0.155-1.354,0.475-1.925c0.314-0.565,0.73-0.993,1.271-1.309c0.545-0.316,1.135-0.47,1.807-0.47
			c0.777,0,1.424,0.182,1.976,0.557c0.514,0.349,0.858,0.849,1.061,1.523h2.787l-0.052-0.244c-0.198-0.947-0.59-1.77-1.166-2.441
			c-0.571-0.667-1.266-1.176-2.065-1.514c-0.785-0.33-1.627-0.498-2.5-0.498c-1.154,0-2.229,0.283-3.191,0.845
			c-0.962,0.56-1.731,1.33-2.287,2.291c-0.557,0.963-0.839,2.034-0.839,3.185c0,1.146,0.282,2.215,0.839,3.178
			c0.556,0.961,1.325,1.731,2.287,2.291c0.963,0.561,2.037,0.844,3.191,0.844c0.879,0,1.722-0.166,2.507-0.494
			c0.802-0.334,1.495-0.842,2.063-1.51c0.573-0.674,0.963-1.497,1.162-2.449l0.049-0.243h-2.793
			C166.023,244.798,165.677,245.295,165.164,245.645"/>
	</g>
	<g>
		<defs>
			<rect id="SVGID_41_" x="0.008" y="-0.063" width="375" height="370.429"/>
		</defs>
		<clipPath id="SVGID_42_">
			<use xlink:href="#SVGID_41_"  overflow="visible"/>
		</clipPath>
		<path opacity="0.4" clip-path="url(#SVGID_42_)" fill="#FFFFFF" enable-background="new    " d="M280.729,177.441
			c-17.746-0.976-34.896-1.641-52.042-6.98c-31.445-9.795-61.291-27.308-80.679-54.498c-9.944-13.947-12.77-31.782-21.989-46.313
			c-3.313-5.223-6.971-10.219-10.681-15.164c-6.227-8.296-13.061-16.161-20.656-23.231C78.074,15.793,59.818,6.87,37.727,2.416
			C32.842,1.43,0.049-3.204,0.008,4.482v44.935c0.041-7.686,32.834-3.051,37.719-2.066c22.092,4.454,40.349,13.377,56.956,28.839
			c7.597,7.071,14.431,14.936,20.656,23.231c3.71,4.945,7.367,9.941,10.681,15.164c9.222,14.53,12.045,32.365,21.989,46.313
			c19.388,27.19,49.232,44.704,80.679,54.499c17.146,5.34,34.296,6.004,52.042,6.98c56.219,3.091,92.744,58.366,94.278,111.251
			v-44.937C373.474,235.809,336.948,180.533,280.729,177.441z"/>
	</g>
	<rect x="0.008" y="-0.063" fill="none" width="375" height="370.429"/>
	<g>
		<g enable-background="new    ">
			<path fill="#2E2D78" d="M161.463,279.961h-7.068l-1.555,4.193h-2.992l6.503-16.704h3.274l6.502,16.704h-3.086L161.463,279.961z
				 M155.384,277.346h5.089l-2.544-6.832L155.384,277.346z"/>
		</g>
		<g enable-background="new    ">
			<path fill="#2E2D78" d="M167.984,284.154v-17.057h2.733v17.057H167.984z"/>
		</g>
		<g enable-background="new    ">
			<path fill="#2E2D78" d="M173.896,284.154v-11.474h2.615v1.461c0.66-1.178,2.097-1.791,3.393-1.791
				c1.508,0,2.827,0.684,3.44,2.026c0.895-1.508,2.238-2.026,3.722-2.026c2.073,0,4.053,1.319,4.053,4.358v7.445h-2.639v-6.997
				c0-1.343-0.684-2.356-2.215-2.356c-1.437,0-2.379,1.131-2.379,2.545v6.809h-2.686v-6.997c0-1.319-0.66-2.356-2.214-2.356
				c-1.461,0-2.379,1.084-2.379,2.545v6.809H173.896z"/>
		</g>
		<g enable-background="new    ">
			<path fill="#2E2D78" d="M205.32,278.406c0,3.533-2.521,6.102-5.961,6.102c-3.416,0-5.937-2.568-5.937-6.102
				c0-3.511,2.521-6.079,5.937-6.079C202.799,272.327,205.32,274.896,205.32,278.406z M202.563,278.406
				c0-2.38-1.508-3.605-3.204-3.605c-1.673,0-3.204,1.226-3.204,3.605c0,2.379,1.531,3.651,3.204,3.651
				C201.055,282.058,202.563,280.809,202.563,278.406z"/>
		</g>
		<g enable-background="new    ">
			<path fill="#2E2D78" d="M209.202,280.385c0.095,1.037,0.872,1.955,2.333,1.955c1.131,0,1.719-0.612,1.719-1.319
				c0-0.612-0.424-1.083-1.342-1.271l-1.697-0.377c-2.025-0.448-3.086-1.768-3.086-3.346c0-2.003,1.838-3.699,4.217-3.699
				c3.205,0,4.241,2.073,4.43,3.204l-2.309,0.66c-0.094-0.66-0.59-1.72-2.121-1.72c-0.965,0-1.648,0.612-1.648,1.319
				c0,0.612,0.447,1.06,1.154,1.201l1.743,0.354c2.167,0.471,3.298,1.79,3.298,3.486c0,1.744-1.413,3.676-4.334,3.676
				c-3.322,0-4.594-2.168-4.736-3.463L209.202,280.385z"/>
		</g>
		<g enable-background="new    ">
			<path fill="#2E2D78" d="M222.086,272.681h2.38v2.427h-2.38v5.324c0,1.014,0.447,1.438,1.461,1.438
				c0.377,0,0.824-0.07,0.942-0.095v2.262c-0.165,0.071-0.683,0.26-1.673,0.26c-2.12,0-3.439-1.272-3.439-3.416v-5.772h-2.121
				v-2.427h0.59c1.225,0,1.767-0.777,1.767-1.79v-1.721h2.474V272.681z"/>
		</g>
	</g>
	<rect x="0.008" y="-0.063" fill="none" width="375" height="370.429"/>
	<g>
		<g enable-background="new    ">
			<path fill="#2E2D78" d="M161.154,312.419v-16.704h5.914c4.547,0,8.128,3.016,8.128,8.388c0,5.348-3.628,8.316-8.151,8.316
				H161.154z M166.949,309.827c2.898,0,5.301-1.861,5.301-5.725c0-3.911-2.379-5.796-5.277-5.796h-2.992v11.521H166.949z"/>
		</g>
		<g enable-background="new    ">
			<path fill="#2E2D78" d="M188.903,306.671c0,3.533-2.521,6.102-5.961,6.102c-3.416,0-5.937-2.568-5.937-6.102
				c0-3.511,2.521-6.079,5.937-6.079C186.382,300.592,188.903,303.16,188.903,306.671z M186.146,306.671
				c0-2.38-1.508-3.605-3.204-3.605c-1.673,0-3.204,1.226-3.204,3.605c0,2.379,1.531,3.651,3.204,3.651
				C184.638,310.322,186.146,309.073,186.146,306.671z"/>
		</g>
		<g enable-background="new    ">
			<path fill="#2E2D78" d="M194.059,312.419h-2.733v-11.474h2.662v1.531c0.754-1.319,2.12-1.861,3.393-1.861
				c2.804,0,4.146,2.026,4.146,4.548v7.256h-2.733v-6.785c0-1.414-0.636-2.545-2.355-2.545c-1.555,0-2.379,1.202-2.379,2.71V312.419
				z"/>
		</g>
		<g enable-background="new    ">
			<path fill="#2E2D78" d="M214.905,309.145c-0.613,2.002-2.427,3.628-5.184,3.628c-3.109,0-5.866-2.262-5.866-6.149
				c0-3.628,2.687-6.031,5.583-6.031c3.535,0,5.607,2.333,5.607,5.961c0,0.447-0.047,0.824-0.07,0.872h-8.387
				c0.07,1.743,1.438,2.991,3.133,2.991c1.649,0,2.498-0.871,2.875-2.002L214.905,309.145z M212.289,305.422
				c-0.047-1.343-0.942-2.545-2.827-2.545c-1.72,0-2.71,1.319-2.804,2.545H212.289z"/>
		</g>
	</g>
	<g>
		<defs>
			<rect id="SVGID_43_" x="0.008" y="-0.063" width="375" height="370.429"/>
		</defs>
		<clipPath id="SVGID_44_">
			<use xlink:href="#SVGID_43_"  overflow="visible"/>
		</clipPath>
		<path clip-path="url(#SVGID_44_)" fill="#2E2D78" d="M230.392,357.409h-85.769c-4.666,0-8.447-3.782-8.447-8.447v-6.284
			c0-4.664,3.781-8.447,8.447-8.447h85.769c4.666,0,8.448,3.783,8.448,8.447v6.284C238.84,353.626,235.058,357.409,230.392,357.409"
			/>
	</g>
	<g>
		<defs>
			<rect id="SVGID_45_" x="0.008" y="-0.063" width="375" height="370.429"/>
		</defs>
		<clipPath id="SVGID_46_">
			<use xlink:href="#SVGID_45_"  overflow="visible"/>
		</clipPath>
		<path clip-path="url(#SVGID_46_)" fill="#FF8358" d="M199.701,340.836c6.521-11.375,21.027-15.313,32.403-8.788l99.958,57.304
			c-5.558,15.472-8.624,32.224-9.662,49.195L208.49,373.24C197.114,366.721,193.181,352.211,199.701,340.836"/>
	</g>
	<g>
		<defs>
			<rect id="SVGID_47_" x="0.008" y="-0.063" width="375" height="370.429"/>
		</defs>
		<clipPath id="SVGID_48_">
			<use xlink:href="#SVGID_47_"  overflow="visible"/>
		</clipPath>
		<path clip-path="url(#SVGID_48_)" fill="#FF8358" d="M175.314,340.836c-6.521-11.375-21.026-15.313-32.403-8.788l-99.957,57.304
			c5.557,15.472,8.623,32.224,9.66,49.195l113.912-65.307C177.901,366.721,181.836,352.211,175.314,340.836"/>
	</g>
	<g>
		<defs>
			<rect id="SVGID_49_" x="0.008" y="-0.063" width="375" height="370.429"/>
		</defs>
		<clipPath id="SVGID_50_">
			<use xlink:href="#SVGID_49_"  overflow="visible"/>
		</clipPath>
		<g clip-path="url(#SVGID_50_)">
			<g opacity="0.4">
				<g>
					<defs>
						<rect id="SVGID_51_" x="0.008" y="241.83" width="183.842" height="128.669"/>
					</defs>
					<clipPath id="SVGID_52_">
						<use xlink:href="#SVGID_51_"  overflow="visible"/>
					</clipPath>
					<path clip-path="url(#SVGID_52_)" fill="#FFFFFF" d="M0.008,369.014V241.83c1.302,42.502,32.299,86.926,80.008,89.41
						c15.06,0.783,29.614,1.318,44.165,5.611c22.302,6.578,43.652,17.486,59.669,33.647H0.053L0.008,369.014z"/>
				</g>
			</g>
			<g>
				<defs>
					<rect id="SVGID_53_" x="0.008" y="-0.063" width="375" height="370.429"/>
				</defs>
				<clipPath id="SVGID_54_">
					<use xlink:href="#SVGID_53_"  overflow="visible"/>
				</clipPath>
				<path clip-path="url(#SVGID_54_)" fill="#FFFFFF" d="M22.215,370.366C9.059,354.064,1.146,332.779,0.508,311.919
					c-0.008-0.271-0.258-0.467-0.5-0.481v7.551c1.975,18.49,9.408,36.837,20.938,51.378H22.215z"/>
			</g>
			<g>
				<defs>
					<rect id="SVGID_55_" x="0.008" y="-0.063" width="375" height="370.429"/>
				</defs>
				<clipPath id="SVGID_56_">
					<use xlink:href="#SVGID_55_"  overflow="visible"/>
				</clipPath>
				<path clip-path="url(#SVGID_56_)" fill="#FFFFFF" d="M31.674,370.366h1.458c-0.021-0.025-0.033-0.056-0.059-0.076
					c-19.575-16.994-31.749-43.065-32.565-69.739c-0.008-0.271-0.258-0.474-0.5-0.48v7.744
					C2.568,331.839,14.093,354.744,31.674,370.366z"/>
			</g>
			<g>
				<defs>
					<rect id="SVGID_57_" x="0.008" y="-0.063" width="375" height="370.429"/>
				</defs>
				<clipPath id="SVGID_58_">
					<use xlink:href="#SVGID_57_"  overflow="visible"/>
				</clipPath>
				<path clip-path="url(#SVGID_58_)" fill="#FFFFFF" d="M375.008,292.657c-2.247-24.188-11.592-48.175-26.239-66.823
					c-17.684-22.513-41.837-35.704-68.012-37.145l-2.978-0.162c-16.877-0.912-32.817-1.774-48.943-6.797
					c-24.451-7.616-58.252-23.221-80.42-54.31c-5.226-7.329-8.541-15.92-11.747-24.229c-2.88-7.462-5.858-15.179-10.228-22.063
					c-3.355-5.289-7.128-10.429-10.704-15.195c-6.724-8.961-13.5-16.582-20.715-23.298C78.716,27.456,60.541,18.252,37.825,13.673
					C33.944,12.89,6.833,8.832,0.773,13.764c-0.321,0.263-0.564,0.555-0.766,0.862v2.104c0.275,0,0.498-0.222,0.5-0.498
					c0.004-0.65,0.297-1.204,0.896-1.693c5.234-4.261,30.292-1.083,36.225,0.114c22.525,4.542,40.548,13.666,56.714,28.715
					c7.172,6.675,13.908,14.252,20.598,23.165c3.563,4.75,7.32,9.871,10.658,15.131c4.316,6.801,7.275,14.471,10.139,21.888
					c3.229,8.366,6.567,17.018,11.865,24.448c22.33,31.315,56.339,47.022,80.938,54.685c16.244,5.06,32.246,5.924,49.187,6.84
					l2.978,0.162c56.797,3.125,92.298,58.771,93.806,110.768c0.008,0.271,0.229,0.484,0.5,0.484L375.008,292.657L375.008,292.657z"
					/>
			</g>
			<g>
				<defs>
					<rect id="SVGID_59_" x="0.008" y="-0.063" width="375" height="370.429"/>
				</defs>
				<clipPath id="SVGID_60_">
					<use xlink:href="#SVGID_59_"  overflow="visible"/>
				</clipPath>
				<path clip-path="url(#SVGID_60_)" fill="#FFFFFF" d="M375.008,286.973c-2.247-24.187-11.592-48.175-26.239-66.824
					c-17.684-22.513-41.837-35.704-68.012-37.144l-3.005-0.164c-16.867-0.913-32.799-1.775-48.916-6.796
					c-24.452-7.616-58.254-23.221-80.42-54.31c-5.226-7.328-8.541-15.92-11.747-24.229c-2.88-7.462-5.858-15.179-10.228-22.063
					c-3.359-5.295-7.13-10.433-10.704-15.195c-6.722-8.959-13.498-16.579-20.715-23.297C78.717,21.771,60.543,12.568,37.825,7.987
					C33.944,7.206,6.833,3.146,0.773,8.08C0.451,8.343,0.208,8.635,0.008,8.941v2.104c0.275,0,0.498-0.222,0.5-0.498
					c0.004-0.65,0.297-1.204,0.896-1.693C6.638,4.593,31.696,7.77,37.628,8.968c22.527,4.542,40.55,13.667,56.714,28.716
					c7.174,6.677,13.911,14.254,20.598,23.165c3.562,4.747,7.316,9.866,10.658,15.131c4.316,6.801,7.275,14.471,10.139,21.888
					c3.229,8.366,6.567,17.018,11.865,24.448c22.328,31.315,56.338,47.022,80.938,54.685c16.234,5.058,32.228,5.923,49.159,6.84
					l3.004,0.163c56.797,3.124,92.298,58.771,93.806,110.768c0.008,0.271,0.229,0.485,0.5,0.485L375.008,286.973L375.008,286.973z"
					/>
			</g>
		</g>
	</g>
</g>
</svg>
