<?xml version="1.0" encoding="utf-8"?>
<!-- Generator: Adobe Illustrator 16.0.0, SVG Export Plug-In . SVG Version: 6.00 Build 0)  -->
<!DOCTYPE svg PUBLIC "-//W3C//DTD SVG 1.1//EN" "http://www.w3.org/Graphics/SVG/1.1/DTD/svg11.dtd">
<svg version="1.1" id="Layer_1" xmlns="http://www.w3.org/2000/svg" xmlns:xlink="http://www.w3.org/1999/xlink" x="0px" y="0px"
	 width="58.422px" height="58.42px" viewBox="0 0 58.422 58.42" enable-background="new 0 0 58.422 58.42" xml:space="preserve">
<g>
	<path fill="#DEDEDD" d="M57.558,29.209c0,15.655-12.691,28.347-28.348,28.347c-15.654,0-28.346-12.691-28.346-28.347
		S13.556,0.864,29.21,0.864C44.866,0.864,57.558,13.554,57.558,29.209"/>
	<g>
		<path fill="#E9574C" d="M14.018,26.204c-0.659,0-1.193-0.534-1.193-1.194v-6.79c0-2.871,2.337-5.207,5.208-5.207h6.771
			c0.659,0,1.193,0.534,1.193,1.193c0,0.66-0.534,1.194-1.193,1.194h-6.771c-1.555,0-2.82,1.265-2.82,2.819v6.79
			C15.212,25.669,14.678,26.204,14.018,26.204z"/>
	</g>
	<g>
		<path fill="#E9574C" d="M44.404,26.184c-0.66,0-1.194-0.534-1.194-1.193v-6.771c0-1.555-1.266-2.819-2.82-2.819h-6.789
			c-0.659,0-1.194-0.534-1.194-1.194c0-0.659,0.535-1.193,1.194-1.193h6.789c2.871,0,5.208,2.336,5.208,5.207v6.771
			C45.598,25.65,45.063,26.184,44.404,26.184z"/>
	</g>
	<g>
		<path fill="#E9574C" d="M24.821,45.409h-6.789c-2.871,0-5.208-2.337-5.208-5.208V33.43c0-0.659,0.534-1.193,1.193-1.193
			c0.66,0,1.194,0.534,1.194,1.193v6.771c0,1.555,1.266,2.82,2.82,2.82h6.789c0.659,0,1.194,0.534,1.194,1.194
			C26.016,44.875,25.48,45.409,24.821,45.409z"/>
	</g>
	<g>
		<path fill="#E9574C" d="M40.388,45.409h-6.771c-0.659,0-1.193-0.534-1.193-1.193c0-0.66,0.534-1.194,1.193-1.194h6.771
			c1.556,0,2.822-1.266,2.822-2.82v-6.789c0-0.66,0.534-1.194,1.194-1.194c0.659,0,1.193,0.534,1.193,1.194v6.789
			C45.598,43.072,43.26,45.409,40.388,45.409z"/>
	</g>
</g>
</svg>
